{"asset":{"version":"2.0","generator":"Blockbench 4.12.6 glTF exporter"},"scenes":[{"nodes":[16],"name":"blockbench_export"}],"scene":0,"nodes":[{"translation":[0,0,-0.09375],"name":"cube","mesh":0},{"translation":[0,-0.0625,-0.125],"name":"cube","mesh":1},{"translation":[-0.0625,0,-0.125],"name":"cube","mesh":2},{"translation":[0.0625,0,-0.125],"name":"cube","mesh":3},{"translation":[0,0.125,-0.21875],"name":"head","children":[1,2,3]},{"translation":[-0.0625,-0.125,-0.03125],"name":"cube","mesh":4},{"translation":[-0.125,0.0640625,-0.15625],"name":"leftArm","children":[5]},{"translation":[0.0625,-0.125,-0.03125],"name":"cube","mesh":5},{"translation":[0.125,0.0640625,-0.15625],"name":"rightArm","children":[7]},{"translation":[-0.0625,-0.125,-0.03125],"name":"cube","mesh":6},{"translation":[-0.125,0.0640625,0.15625],"name":"leftLeg","children":[9]},{"translation":[0.0625,-0.125,-0.03125],"name":"cube","mesh":7},{"translation":[0.125,0.0640625,0.15625],"name":"rightLeg","children":[11]},{"translation":[0,-0.09375,0.0625],"name":"cube","mesh":8},{"translation":[0,0.09375,0.28125],"name":"tail","children":[13]},{"translation":[0,0,0.03125],"name":"root","children":[0,4,6,8,10,12,14]},{"children":[15]}],"bufferViews":[{"buffer":0,"byteOffset":0,"byteLength":288,"target":34962,"byteStride":12},{"buffer":0,"byteOffset":288,"byteLength":288,"target":34962,"byteStride":12},{"buffer":0,"byteOffset":576,"byteLength":192,"target":34962,"byteStride":8},{"buffer":0,"byteOffset":768,"byteLength":72,"target":34963},{"buffer":0,"byteOffset":840,"byteLength":288,"target":34962,"byteStride":12},{"buffer":0,"byteOffset":1128,"byteLength":288,"target":34962,"byteStride":12},{"buffer":0,"byteOffset":1416,"byteLength":192,"target":34962,"byteStride":8},{"buffer":0,"byteOffset":1608,"byteLength":72,"target":34963},{"buffer":0,"byteOffset":1680,"byteLength":288,"target":34962,"byteStride":12},{"buffer":0,"byteOffset":1968,"byteLength":288,"target":34962,"byteStride":12},{"buffer":0,"byteOffset":2256,"byteLength":192,"target":34962,"byteStride":8},{"buffer":0,"byteOffset":2448,"byteLength":72,"target":34963},{"buffer":0,"byteOffset":2520,"byteLength":288,"target":34962,"byteStride":12},{"buffer":0,"byteOffset":2808,"byteLength":288,"target":34962,"byteStride":12},{"buffer":0,"byteOffset":3096,"byteLength":192,"target":34962,"byteStride":8},{"buffer":0,"byteOffset":3288,"byteLength":72,"target":34963},{"buffer":0,"byteOffset":3360,"byteLength":288,"target":34962,"byteStride":12},{"buffer":0,"byteOffset":3648,"byteLength":288,"target":34962,"byteStride":12},{"buffer":0,"byteOffset":3936,"byteLength":192,"target":34962,"byteStride":8},{"buffer":0,"byteOffset":4128,"byteLength":72,"target":34963},{"buffer":0,"byteOffset":4200,"byteLength":288,"target":34962,"byteStride":12},{"buffer":0,"byteOffset":4488,"byteLength":288,"target":34962,"byteStride":12},{"buffer":0,"byteOffset":4776,"byteLength":192,"target":34962,"byteStride":8},{"buffer":0,"byteOffset":4968,"byteLength":72,"target":34963},{"buffer":0,"byteOffset":5040,"byteLength":288,"target":34962,"byteStride":12},{"buffer":0,"byteOffset":5328,"byteLength":288,"target":34962,"byteStride":12},{"buffer":0,"byteOffset":5616,"byteLength":192,"target":34962,"byteStride":8},{"buffer":0,"byteOffset":5808,"byteLength":72,"target":34963},{"buffer":0,"byteOffset":5880,"byteLength":288,"target":34962,"byteStride":12},{"buffer":0,"byteOffset":6168,"byteLength":288,"target":34962,"byteStride":12},{"buffer":0,"byteOffset":6456,"byteLength":192,"target":34962,"byteStride":8},{"buffer":0,"byteOffset":6648,"byteLength":72,"target":34963},{"buffer":0,"byteOffset":6720,"byteLength":288,"target":34962,"byteStride":12},{"buffer":0,"byteOffset":7008,"byteLength":288,"target":34962,"byteStride":12},{"buffer":0,"byteOffset":7296,"byteLength":192,"target":34962,"byteStride":8},{"buffer":0,"byteOffset":7488,"byteLength":72,"target":34963},{"buffer":0,"byteOffset":7560,"byteLength":264},{"buffer":0,"byteOffset":7824,"byteLength":792},{"buffer":0,"byteOffset":8616,"byteLength":264},{"buffer":0,"byteOffset":8880,"byteLength":1056},{"buffer":0,"byteOffset":9936,"byteLength":264},{"buffer":0,"byteOffset":10200,"byteLength":1056},{"buffer":0,"byteOffset":11256,"byteLength":264},{"buffer":0,"byteOffset":11520,"byteLength":1056},{"buffer":0,"byteOffset":12576,"byteLength":264},{"buffer":0,"byteOffset":12840,"byteLength":1056},{"buffer":0,"byteOffset":13896,"byteLength":264},{"buffer":0,"byteOffset":14160,"byteLength":1056},{"buffer":0,"byteOffset":15216,"byteLength":264},{"buffer":0,"byteOffset":15480,"byteLength":1056},{"buffer":0,"byteOffset":16536,"byteLength":72},{"buffer":0,"byteOffset":16608,"byteLength":288},{"buffer":0,"byteOffset":16896,"byteLength":72},{"buffer":0,"byteOffset":16968,"byteLength":216},{"buffer":0,"byteOffset":17184,"byteLength":72},{"buffer":0,"byteOffset":17256,"byteLength":288},{"buffer":0,"byteOffset":17544,"byteLength":72},{"buffer":0,"byteOffset":17616,"byteLength":288},{"buffer":0,"byteOffset":17904,"byteLength":72},{"buffer":0,"byteOffset":17976,"byteLength":288},{"buffer":0,"byteOffset":18264,"byteLength":72},{"buffer":0,"byteOffset":18336,"byteLength":288},{"buffer":0,"byteOffset":18624,"byteLength":72},{"buffer":0,"byteOffset":18696,"byteLength":288},{"buffer":0,"byteOffset":18984,"byteLength":72},{"buffer":0,"byteOffset":19056,"byteLength":288},{"buffer":0,"byteOffset":19344,"byteLength":52},{"buffer":0,"byteOffset":19396,"byteLength":208},{"buffer":0,"byteOffset":19604,"byteLength":52},{"buffer":0,"byteOffset":19656,"byteLength":156},{"buffer":0,"byteOffset":19812,"byteLength":52},{"buffer":0,"byteOffset":19864,"byteLength":208},{"buffer":0,"byteOffset":20072,"byteLength":52},{"buffer":0,"byteOffset":20124,"byteLength":208},{"buffer":0,"byteOffset":20332,"byteLength":52},{"buffer":0,"byteOffset":20384,"byteLength":208},{"buffer":0,"byteOffset":20592,"byteLength":52},{"buffer":0,"byteOffset":20644,"byteLength":208},{"buffer":0,"byteOffset":20852,"byteLength":52},{"buffer":0,"byteOffset":20904,"byteLength":208},{"buffer":0,"byteOffset":21112,"byteLength":52},{"buffer":0,"byteOffset":21164,"byteLength":208}],"buffers":[{"byteLength":21372,"uri":"data:application/octet-stream;base64,"}],"accessors":[{"bufferView":0,"componentType":5126,"count":24,"max":[0.125,0.1875,0.375],"min":[-0.125,0,-0.1875],"type":"VEC3"},{"bufferView":1,"componentType":5126,"count":24,"max":[1,1,1],"min":[-1,-1,-1],"type":"VEC3"},{"bufferView":2,"componentType":5126,"count":24,"max":[0.625,0.59375],"min":[0,0],"type":"VEC2"},{"bufferView":3,"componentType":5123,"count":36,"max":[23],"min":[0],"type":"SCALAR"},{"bufferView":4,"componentType":5126,"count":24,"max":[0.15625,0.1875,0.125],"min":[-0.15625,0,-0.1875],"type":"VEC3"},{"bufferView":5,"componentType":5126,"count":24,"max":[1,1,1],"min":[-1,-1,-1],"type":"VEC3"},{"bufferView":6,"componentType":5126,"count":24,"max":[0.65625,0.59375],"min":[0,0.125],"type":"VEC2"},{"bufferView":7,"componentType":5123,"count":36,"max":[23],"min":[0],"type":"SCALAR"},{"bufferView":8,"componentType":5126,"count":24,"max":[-0.03125,0.1875,0.0625],"min":[-0.15625,0,-0.125],"type":"VEC3"},{"bufferView":9,"componentType":5126,"count":24,"max":[1,1,1],"min":[-1,-1,-1],"type":"VEC3"},{"bufferView":10,"componentType":5126,"count":24,"max":[0.75,0.71875],"min":[0.40625,0.09375],"type":"VEC2"},{"bufferView":11,"componentType":5123,"count":36,"max":[23],"min":[0],"type":"SCALAR"},{"bufferView":12,"componentType":5126,"count":24,"max":[0.15625,0.1875,0.0625],"min":[0.03125,0,-0.125],"type":"VEC3"},{"bufferView":13,"componentType":5126,"count":24,"max":[1,1,1],"min":[-1,-1,-1],"type":"VEC3"},{"bufferView":14,"componentType":5126,"count":24,"max":[0.75,0.71875],"min":[0.40625,0.09375],"type":"VEC2"},{"bufferView":15,"componentType":5123,"count":36,"max":[23],"min":[0],"type":"SCALAR"},{"bufferView":16,"componentType":5126,"count":24,"max":[0.0625,0.125062495470047,0.125],"min":[-0.1875,0.125,-0.0625],"type":"VEC3"},{"bufferView":17,"componentType":5126,"count":24,"max":[1,1,1],"min":[-1,-1,-1],"type":"VEC3"},{"bufferView":18,"componentType":5126,"count":24,"max":[0.8125,0.90625],"min":[0.53125,0.5],"type":"VEC2"},{"bufferView":19,"componentType":5123,"count":36,"max":[23],"min":[0],"type":"SCALAR"},{"bufferView":20,"componentType":5126,"count":24,"max":[0.1875,0.125062495470047,0.125],"min":[-0.0625,0.125,-0.0625],"type":"VEC3"},{"bufferView":21,"componentType":5126,"count":24,"max":[1,1,1],"min":[-1,-1,-1],"type":"VEC3"},{"bufferView":22,"componentType":5126,"count":24,"max":[0.8125,0.90625],"min":[0.53125,0.5],"type":"VEC2"},{"bufferView":23,"componentType":5123,"count":36,"max":[23],"min":[0],"type":"SCALAR"},{"bufferView":24,"componentType":5126,"count":24,"max":[0.0625,0.125062495470047,0.125],"min":[-0.1875,0.125,-0.0625],"type":"VEC3"},{"bufferView":25,"componentType":5126,"count":24,"max":[1,1,1],"min":[-1,-1,-1],"type":"VEC3"},{"bufferView":26,"componentType":5126,"count":24,"max":[0.8125,0.90625],"min":[0.53125,0.5],"type":"VEC2"},{"bufferView":27,"componentType":5123,"count":36,"max":[23],"min":[0],"type":"SCALAR"},{"bufferView":28,"componentType":5126,"count":24,"max":[0.1875,0.125062495470047,0.125],"min":[-0.0625,0.125,-0.0625],"type":"VEC3"},{"bufferView":29,"componentType":5126,"count":24,"max":[1,1,1],"min":[-1,-1,-1],"type":"VEC3"},{"bufferView":30,"componentType":5126,"count":24,"max":[0.8125,0.90625],"min":[0.53125,0.5],"type":"VEC2"},{"bufferView":31,"componentType":5123,"count":36,"max":[23],"min":[0],"type":"SCALAR"},{"bufferView":32,"componentType":5126,"count":24,"max":[0.0625,0.125,0.3125],"min":[-0.0625,0,-0.0625],"type":"VEC3"},{"bufferView":33,"componentType":5126,"count":24,"max":[1,1,1],"min":[-1,-1,-1],"type":"VEC3"},{"bufferView":34,"componentType":5126,"count":24,"max":[0.8125,0.8125],"min":[0,0],"type":"VEC2"},{"bufferView":35,"componentType":5123,"count":36,"max":[23],"min":[0],"type":"SCALAR"},{"bufferView":36,"componentType":5126,"count":66,"max":[1.6666666269302368],"min":[0],"type":"SCALAR"},{"bufferView":37,"componentType":5126,"count":66,"max":[0,0.046875,0.03125],"min":[0,0.03125,0.03125],"type":"VEC3"},{"bufferView":38,"componentType":5126,"count":66,"max":[1.6666666269302368],"min":[0],"type":"SCALAR"},{"bufferView":39,"componentType":5126,"count":66,"max":[-0.018404848873615265,0,0,0.9998306035995483],"min":[-0.06540312618017197,0,0,0.9978589415550232],"type":"VEC4"},{"bufferView":40,"componentType":5126,"count":66,"max":[1.6666666269302368],"min":[0],"type":"SCALAR"},{"bufferView":41,"componentType":5126,"count":66,"max":[0,0,0.258819043636322,0.9762960076332092],"min":[0,0,0.2164396196603775,0.9659258127212524],"type":"VEC4"},{"bufferView":42,"componentType":5126,"count":66,"max":[1.6666666269302368],"min":[0],"type":"SCALAR"},{"bufferView":43,"componentType":5126,"count":66,"max":[0,0,-0.2164396196603775,0.9762960076332092],"min":[0,0,-0.258819043636322,0.9659258127212524],"type":"VEC4"},{"bufferView":44,"componentType":5126,"count":66,"max":[1.6666666269302368],"min":[0],"type":"SCALAR"},{"bufferView":45,"componentType":5126,"count":66,"max":[0,0,0.237685889005661,0.9807852506637573],"min":[0,0,0.19509032368659973,0.9713420867919922],"type":"VEC4"},{"bufferView":46,"componentType":5126,"count":66,"max":[1.6666666269302368],"min":[0],"type":"SCALAR"},{"bufferView":47,"componentType":5126,"count":66,"max":[0,0,-0.19509032368659973,0.9807852506637573],"min":[0,0,-0.237685889005661,0.9713420867919922],"type":"VEC4"},{"bufferView":48,"componentType":5126,"count":66,"max":[1.6666666269302368],"min":[0],"type":"SCALAR"},{"bufferView":49,"componentType":5126,"count":66,"max":[0.06540312618017197,0,0,0.9990482330322266],"min":[0.04361938685178757,0,0,0.9978589415550232],"type":"VEC4"},{"bufferView":50,"componentType":5126,"count":18,"max":[0.520829975605011],"min":[0],"type":"SCALAR"},{"bufferView":51,"componentType":5126,"count":18,"max":[0,0.02181488461792469,0,1],"min":[0,-0.02181488461792469,0,0.9997619986534119],"type":"VEC4"},{"bufferView":52,"componentType":5126,"count":18,"max":[0.520829975605011],"min":[0],"type":"SCALAR"},{"bufferView":53,"componentType":5126,"count":18,"max":[0.0062500000931322575,0.03125,0.03125],"min":[-0.0062500000931322575,0.03125,0.03125],"type":"VEC3"},{"bufferView":54,"componentType":5126,"count":18,"max":[0.520829975605011],"min":[0],"type":"SCALAR"},{"bufferView":55,"componentType":5126,"count":18,"max":[-0.06538756191730499,0.021768176928162575,0.0014267617370933294,0.9978589415550232],"min":[-0.06540312618017197,-0.021768176928162575,-0.0014267617370933294,0.997621476650238],"type":"VEC4"},{"bufferView":56,"componentType":5126,"count":18,"max":[0.520829975605011],"min":[0],"type":"SCALAR"},{"bufferView":57,"componentType":5126,"count":18,"max":[0.014718001708388329,0.06584364175796509,0.22490248084068298,0.9750341176986694],"min":[-0.04763130098581314,-0.21498049795627594,0.21078535914421082,0.9524096846580505],"type":"VEC4"},{"bufferView":58,"componentType":5126,"count":18,"max":[0.520829975605011],"min":[0],"type":"SCALAR"},{"bufferView":59,"componentType":5126,"count":18,"max":[0.014901824295520782,0.2149447798728943,-0.2108527421951294,0.9750434756278992],"min":[-0.047659944742918015,-0.06666576117277145,-0.22462032735347748,0.9524013996124268],"type":"VEC4"},{"bufferView":60,"componentType":5126,"count":18,"max":[0.520829975605011],"min":[0],"type":"SCALAR"},{"bufferView":61,"componentType":5126,"count":18,"max":[0.022352997213602066,0.1122424304485321,0.19949686527252197,0.9800469875335693],"min":[-0.01732075959444046,-0.08689261227846146,0.19367657601833344,0.9743540287017822],"type":"VEC4"},{"bufferView":62,"componentType":5126,"count":18,"max":[0.520829975605011],"min":[0],"type":"SCALAR"},{"bufferView":63,"componentType":5126,"count":18,"max":[0.02222283184528351,0.08763575553894043,-0.1936650574207306,0.980056643486023],"min":[-0.017461376264691353,-0.11166546493768692,-0.19934234023094177,0.9744387269020081],"type":"VEC4"},{"bufferView":64,"componentType":5126,"count":18,"max":[0.520829975605011],"min":[0],"type":"SCALAR"},{"bufferView":65,"componentType":5126,"count":18,"max":[0.0436185859143734,0.04534038156270981,0.0019868079107254744,0.999029815196991],"min":[0.04357411712408066,-0.04550538212060928,-0.00197960389778018,0.9980113506317139],"type":"VEC4"},{"bufferView":66,"componentType":5126,"count":13,"max":[0.3333300054073334],"min":[0],"type":"SCALAR"},{"bufferView":67,"componentType":5126,"count":13,"max":[-0.04357787221670151,0.04357787221670151,0.0019026509253308177,0.9990406036376953],"min":[-0.043793752789497375,-0.04357787221670151,-0.0019026509253308177,0.9980973601341248],"type":"VEC4"},{"bufferView":68,"componentType":5126,"count":13,"max":[0.3333300054073334],"min":[0],"type":"SCALAR"},{"bufferView":69,"componentType":5126,"count":13,"max":[0.03125,0.03125,0.03125],"min":[-0.03125,0.03125,0.03125],"type":"VEC3"},{"bufferView":70,"componentType":5126,"count":13,"max":[0.3333300054073334],"min":[0],"type":"SCALAR"},{"bufferView":71,"componentType":5126,"count":13,"max":[0.04353220388293266,0.04372250661253929,0.0028413275722414255,0.9990520477294922],"min":[0.04351611062884331,-0.04372250661253929,-0.0028413275722414255,0.998091459274292],"type":"VEC4"},{"bufferView":72,"componentType":5126,"count":13,"max":[0.3333300054073334],"min":[0],"type":"SCALAR"},{"bufferView":73,"componentType":5126,"count":13,"max":[0.06781377643346786,0.07679674029350281,0.17205975949764252,0.9845366477966309],"min":[-0.011147542856633663,-0.29227733612060547,0.14313526451587677,0.94549560546875],"type":"VEC4"},{"bufferView":74,"componentType":5126,"count":13,"max":[0.3333300054073334],"min":[0],"type":"SCALAR"},{"bufferView":75,"componentType":5126,"count":13,"max":[0.06941486895084381,0.28377097845077515,-0.14521250128746033,0.9836863875389099],"min":[-0.010029561817646027,-0.07679587602615356,-0.17372599244117737,0.9477959871292114],"type":"VEC4"},{"bufferView":76,"componentType":5126,"count":13,"max":[0.3333300054073334],"min":[0],"type":"SCALAR"},{"bufferView":77,"componentType":5126,"count":13,"max":[0.062340185046195984,0.31454038619995117,0.22778184711933136,0.9761303663253784],"min":[-0.030912360176444054,-0.1545618772506714,0.18723326921463013,0.9251437783241272],"type":"VEC4"},{"bufferView":78,"componentType":5126,"count":13,"max":[0.3333300054073334],"min":[0],"type":"SCALAR"},{"bufferView":79,"componentType":5126,"count":13,"max":[0.062146395444869995,0.1593705713748932,-0.18495918810367584,0.9756730794906616],"min":[-0.03238343074917793,-0.31454038619995117,-0.22641290724277496,0.9251437783241272],"type":"VEC4"},{"bufferView":80,"componentType":5126,"count":13,"max":[0.3333300054073334],"min":[0],"type":"SCALAR"},{"bufferView":81,"componentType":5126,"count":13,"max":[0.07142122089862823,0.22906765341758728,0.06734386086463928,0.9967334270477295],"min":[0.06160911172628403,-0.22142140567302704,-0.06734386086463928,0.9690425395965576],"type":"VEC4"}],"materials":[{"pbrMetallicRoughness":{"metallicFactor":0,"roughnessFactor":1,"baseColorTexture":{"index":0}},"alphaMode":"MASK","alphaCutoff":0.05,"doubleSided":true}],"textures":[{"sampler":0,"source":0,"name":"lizard"}],"samplers":[{"magFilter":9728,"minFilter":9728,"wrapS":33071,"wrapT":33071}],"images":[{"mimeType":"image/png","uri":"data:image/png;base64,"}],"meshes":[{"primitives":[{"mode":4,"attributes":{"POSITION":0,"NORMAL":1,"TEXCOORD_0":2},"indices":3,"material":0}]},{"primitives":[{"mode":4,"attributes":{"POSITION":4,"NORMAL":5,"TEXCOORD_0":6},"indices":7,"material":0}]},{"primitives":[{"mode":4,"attributes":{"POSITION":8,"NORMAL":9,"TEXCOORD_0":10},"indices":11,"material":0}]},{"primitives":[{"mode":4,"attributes":{"POSITION":12,"NORMAL":13,"TEXCOORD_0":14},"indices":15,"material":0}]},{"primitives":[{"mode":4,"attributes":{"POSITION":16,"NORMAL":17,"TEXCOORD_0":18},"indices":19,"material":0}]},{"primitives":[{"mode":4,"attributes":{"POSITION":20,"NORMAL":21,"TEXCOORD_0":22},"indices":23,"material":0}]},{"primitives":[{"mode":4,"attributes":{"POSITION":24,"NORMAL":25,"TEXCOORD_0":26},"indices":27,"material":0}]},{"primitives":[{"mode":4,"attributes":{"POSITION":28,"NORMAL":29,"TEXCOORD_0":30},"indices":31,"material":0}]},{"primitives":[{"mode":4,"attributes":{"POSITION":32,"NORMAL":33,"TEXCOORD_0":34},"indices":35,"material":0}]}],"animations":[{"name":"idle","samplers":[{"input":36,"output":37,"interpolation":"LINEAR"},{"input":38,"output":39,"interpolation":"LINEAR"},{"input":40,"output":41,"interpolation":"LINEAR"},{"input":42,"output":43,"interpolation":"LINEAR"},{"input":44,"output":45,"interpolation":"LINEAR"},{"input":46,"output":47,"interpolation":"LINEAR"},{"input":48,"output":49,"interpolation":"LINEAR"}],"channels":[{"sampler":0,"target":{"node":15,"path":"translation"}},{"sampler":1,"target":{"node":4,"path":"rotation"}},{"sampler":2,"target":{"node":6,"path":"rotation"}},{"sampler":3,"target":{"node":8,"path":"rotation"}},{"sampler":4,"target":{"node":10,"path":"rotation"}},{"sampler":5,"target":{"node":12,"path":"rotation"}},{"sampler":6,"target":{"node":14,"path":"rotation"}}]},{"name":"walk","samplers":[{"input":50,"output":51,"interpolation":"LINEAR"},{"input":52,"output":53,"interpolation":"LINEAR"},{"input":54,"output":55,"interpolation":"LINEAR"},{"input":56,"output":57,"interpolation":"LINEAR"},{"input":58,"output":59,"interpolation":"LINEAR"},{"input":60,"output":61,"interpolation":"LINEAR"},{"input":62,"output":63,"interpolation":"LINEAR"},{"input":64,"output":65,"interpolation":"LINEAR"}],"channels":[{"sampler":0,"target":{"node":15,"path":"rotation"}},{"sampler":1,"target":{"node":15,"path":"translation"}},{"sampler":2,"target":{"node":4,"path":"rotation"}},{"sampler":3,"target":{"node":6,"path":"rotation"}},{"sampler":4,"target":{"node":8,"path":"rotation"}},{"sampler":5,"target":{"node":10,"path":"rotation"}},{"sampler":6,"target":{"node":12,"path":"rotation"}},{"sampler":7,"target":{"node":14,"path":"rotation"}}]},{"name":"run","samplers":[{"input":66,"output":67,"interpolation":"LINEAR"},{"input":68,"output":69,"interpolation":"LINEAR"},{"input":70,"output":71,"interpolation":"LINEAR"},{"input":72,"output":73,"interpolation":"LINEAR"},{"input":74,"output":75,"interpolation":"LINEAR"},{"input":76,"output":77,"interpolation":"LINEAR"},{"input":78,"output":79,"interpolation":"LINEAR"},{"input":80,"output":81,"interpolation":"LINEAR"}],"channels":[{"sampler":0,"target":{"node":15,"path":"rotation"}},{"sampler":1,"target":{"node":15,"path":"translation"}},{"sampler":2,"target":{"node":4,"path":"rotation"}},{"sampler":3,"target":{"node":6,"path":"rotation"}},{"sampler":4,"target":{"node":8,"path":"rotation"}},{"sampler":5,"target":{"node":10,"path":"rotation"}},{"sampler":6,"target":{"node":12,"path":"rotation"}},{"sampler":7,"target":{"node":14,"path":"rotation"}}]}]}