{"asset":{"version":"2.0","generator":"Blockbench 4.12.5 glTF exporter"},"scenes":[{"nodes":[10],"name":"blockbench_export"}],"scene":0,"nodes":[{"translation":[-0.0625,-0.5625,0.0078125],"name":"cube","mesh":0},{"translation":[-0.0625,-0.5625,0.0078125],"name":"cube","mesh":1},{"translation":[0.0625,-0.5625,0.0078125],"name":"cube","mesh":2},{"translation":[-0.0625,-0.5625,0.0078125],"name":"cube","mesh":3},{"translation":[-0.09375000000000003,0,0],"name":"cube","mesh":4},{"rotation":[0.026416002665204982,0.5108919427714479,-0.17162720808835447,0.8419238202225925],"translation":[-0.190275,0.025596249999999987,-0.05585062499999999],"name":"left_wing","children":[4]},{"translation":[0.09375000000000003,0,0],"name":"cube","mesh":5},{"rotation":[0.026416002665204982,-0.5108919427714479,0.17162720808835447,0.8419238202225925],"translation":[0.190275,0.025596249999999987,-0.05585062499999999],"name":"right_wing","children":[6]},{"translation":[0,0.5625,-0.0703125],"name":"bee","children":[0,1,2,3,5,7]},{"translation":[0,-0.3125,0],"name":"root","children":[8]},{"children":[9]}],"bufferViews":[{"buffer":0,"byteOffset":0,"byteLength":288,"target":34962,"byteStride":12},{"buffer":0,"byteOffset":288,"byteLength":288,"target":34962,"byteStride":12},{"buffer":0,"byteOffset":576,"byteLength":192,"target":34962,"byteStride":8},{"buffer":0,"byteOffset":768,"byteLength":72,"target":34963},{"buffer":0,"byteOffset":840,"byteLength":240,"target":34962,"byteStride":12},{"buffer":0,"byteOffset":1080,"byteLength":240,"target":34962,"byteStride":12},{"buffer":0,"byteOffset":1320,"byteLength":160,"target":34962,"byteStride":8},{"buffer":0,"byteOffset":1480,"byteLength":60,"target":34963},{"buffer":0,"byteOffset":1540,"byteLength":240,"target":34962,"byteStride":12},{"buffer":0,"byteOffset":1780,"byteLength":240,"target":34962,"byteStride":12},{"buffer":0,"byteOffset":2020,"byteLength":160,"target":34962,"byteStride":8},{"buffer":0,"byteOffset":2180,"byteLength":60,"target":34963},{"buffer":0,"byteOffset":2240,"byteLength":240,"target":34962,"byteStride":12},{"buffer":0,"byteOffset":2480,"byteLength":240,"target":34962,"byteStride":12},{"buffer":0,"byteOffset":2720,"byteLength":160,"target":34962,"byteStride":8},{"buffer":0,"byteOffset":2880,"byteLength":60,"target":34963},{"buffer":0,"byteOffset":2940,"byteLength":240,"target":34962,"byteStride":12},{"buffer":0,"byteOffset":3180,"byteLength":240,"target":34962,"byteStride":12},{"buffer":0,"byteOffset":3420,"byteLength":160,"target":34962,"byteStride":8},{"buffer":0,"byteOffset":3580,"byteLength":60,"target":34963},{"buffer":0,"byteOffset":3640,"byteLength":240,"target":34962,"byteStride":12},{"buffer":0,"byteOffset":3880,"byteLength":240,"target":34962,"byteStride":12},{"buffer":0,"byteOffset":4120,"byteLength":160,"target":34962,"byteStride":8},{"buffer":0,"byteOffset":4280,"byteLength":60,"target":34963},{"buffer":0,"byteOffset":4340,"byteLength":784},{"buffer":0,"byteOffset":5124,"byteLength":3136},{"buffer":0,"byteOffset":8260,"byteLength":784},{"buffer":0,"byteOffset":9044,"byteLength":3136},{"buffer":0,"byteOffset":12180,"byteLength":784},{"buffer":0,"byteOffset":12964,"byteLength":3136},{"buffer":0,"byteOffset":16100,"byteLength":148},{"buffer":0,"byteOffset":16248,"byteLength":592},{"buffer":0,"byteOffset":16840,"byteLength":48},{"buffer":0,"byteOffset":16888,"byteLength":144},{"buffer":0,"byteOffset":17032,"byteLength":580},{"buffer":0,"byteOffset":17612,"byteLength":2320},{"buffer":0,"byteOffset":19932,"byteLength":580},{"buffer":0,"byteOffset":20512,"byteLength":2320}],"buffers":[{"byteLength":22832,"uri":"data:application/octet-stream;base64,"}],"accessors":[{"bufferView":0,"componentType":5126,"count":24,"max":[0.21875,0.65625,0.28125],"min":[-0.09375,0.34375,-0.15625],"type":"VEC3"},{"bufferView":1,"componentType":5126,"count":24,"max":[1,1,1],"min":[-1,-1,-1],"type":"VEC3"},{"bufferView":2,"componentType":5126,"count":24,"max":[0.74951171875,0.37451171875],"min":[0.00048828125,0.00048828125],"type":"VEC2"},{"bufferView":3,"componentType":5123,"count":36,"max":[23],"min":[0],"type":"SCALAR"},{"bufferView":4,"componentType":5126,"count":20,"max":[-0.03125,0.65625,-0.15625],"min":[-0.03125,0.59375,-0.28125],"type":"VEC3"},{"bufferView":5,"componentType":5126,"count":20,"max":[1,0,0],"min":[1,0,0],"type":"VEC3"},{"bufferView":6,"componentType":5126,"count":20,"max":[0.4375,0.4375],"min":[0,0],"type":"VEC2"},{"bufferView":7,"componentType":5123,"count":30,"max":[19],"min":[0],"type":"SCALAR"},{"bufferView":8,"componentType":5126,"count":20,"max":[0.03125,0.65625,-0.15625],"min":[0.03125,0.59375,-0.28125],"type":"VEC3"},{"bufferView":9,"componentType":5126,"count":20,"max":[1,0,0],"min":[-1,0,0],"type":"VEC3"},{"bufferView":10,"componentType":5126,"count":20,"max":[0.4375,0.4375],"min":[0,0],"type":"VEC2"},{"bufferView":11,"componentType":5123,"count":30,"max":[19],"min":[0],"type":"SCALAR"},{"bufferView":12,"componentType":5126,"count":20,"max":[0.0625,0.53125,0.40625],"min":[0.0625,0.46875,0.28125],"type":"VEC3"},{"bufferView":13,"componentType":5126,"count":20,"max":[1,0,0],"min":[-1,0,0],"type":"VEC3"},{"bufferView":14,"componentType":5126,"count":20,"max":[0.12504999339580536,0.5],"min":[0.0625,0.40625],"type":"VEC2"},{"bufferView":15,"componentType":5123,"count":30,"max":[19],"min":[0],"type":"SCALAR"},{"bufferView":16,"componentType":5126,"count":20,"max":[0.15625,0,0.15625],"min":[-0.21875,0,-0.21875],"type":"VEC3"},{"bufferView":17,"componentType":5126,"count":20,"max":[1,1,0],"min":[0,0,0],"type":"VEC3"},{"bufferView":18,"componentType":5126,"count":20,"max":[0.34375,0.59375],"min":[0,0],"type":"VEC2"},{"bufferView":19,"componentType":5123,"count":30,"max":[19],"min":[0],"type":"SCALAR"},{"bufferView":20,"componentType":5126,"count":20,"max":[0.21875,0,0.15625],"min":[-0.15625,0,-0.21875],"type":"VEC3"},{"bufferView":21,"componentType":5126,"count":20,"max":[1,1,0],"min":[0,0,0],"type":"VEC3"},{"bufferView":22,"componentType":5126,"count":20,"max":[0.34375,0.59375],"min":[0,0],"type":"VEC2"},{"bufferView":23,"componentType":5123,"count":30,"max":[19],"min":[0],"type":"SCALAR"},{"bufferView":24,"componentType":5126,"count":196,"max":[5.983333110809326],"min":[0],"type":"SCALAR"},{"bufferView":25,"componentType":5126,"count":196,"max":[0.02617296203970909,0.0001758442522259429,0.008725040592253208,1],"min":[-0.02617296203970909,-0.0001758442522259429,-0.008725040592253208,0.999657392501831],"type":"VEC4"},{"bufferView":26,"componentType":5126,"count":196,"max":[5.983333110809326],"min":[0],"type":"SCALAR"},{"bufferView":27,"componentType":5126,"count":196,"max":[0.23985329270362854,0.5114257335662842,0.2002653032541275,0.8591138124465942],"min":[-0.19197124242782593,0.4518614709377289,-0.511359453201294,0.6905093193054199],"type":"VEC4"},{"bufferView":28,"componentType":5126,"count":196,"max":[5.983333110809326],"min":[0],"type":"SCALAR"},{"bufferView":29,"componentType":5126,"count":196,"max":[0.23985329270362854,-0.4518614709377289,0.511359453201294,0.8591138124465942],"min":[-0.19197124242782593,-0.5114257335662842,-0.2002653032541275,0.6905093193054199],"type":"VEC4"},{"bufferView":30,"componentType":5126,"count":37,"max":[0.833329975605011],"min":[0],"type":"SCALAR"},{"bufferView":31,"componentType":5126,"count":37,"max":[0.9994894862174988,0,0,1],"min":[-0.3690967261791229,0,0,0.03194994479417801],"type":"VEC4"},{"bufferView":32,"componentType":5126,"count":12,"max":[0.541670024394989],"min":[0],"type":"SCALAR"},{"bufferView":33,"componentType":5126,"count":12,"max":[0,0.75,0.1171875],"min":[0,0.5625,-0.0703125],"type":"VEC3"},{"bufferView":34,"componentType":5126,"count":145,"max":[4.316666603088379],"min":[0],"type":"SCALAR"},{"bufferView":35,"componentType":5126,"count":145,"max":[0.040372107177972794,0.5114811658859253,-0.14412061870098114,0.8470660448074341],"min":[0.009765813127160072,0.5099788904190063,-0.19457828998565674,0.836917519569397],"type":"VEC4"},{"bufferView":36,"componentType":5126,"count":145,"max":[4.316666603088379],"min":[0],"type":"SCALAR"},{"bufferView":37,"componentType":5126,"count":145,"max":[0.040372107177972794,-0.5099788904190063,0.19457828998565674,0.8470660448074341],"min":[0.009765813127160072,-0.5114811658859253,0.14412061870098114,0.836917519569397],"type":"VEC4"}],"materials":[{"pbrMetallicRoughness":{"metallicFactor":0,"roughnessFactor":1,"baseColorTexture":{"index":0}},"alphaMode":"MASK","alphaCutoff":0.05,"doubleSided":true}],"textures":[{"sampler":0,"source":0,"name":"bee_adult"}],"samplers":[{"magFilter":9728,"minFilter":9728,"wrapS":33071,"wrapT":33071}],"images":[{"mimeType":"image/png","uri":"data:image/png;base64,"}],"meshes":[{"primitives":[{"mode":4,"attributes":{"POSITION":0,"NORMAL":1,"TEXCOORD_0":2},"indices":3,"material":0}]},{"primitives":[{"mode":4,"attributes":{"POSITION":4,"NORMAL":5,"TEXCOORD_0":6},"indices":7,"material":0}]},{"primitives":[{"mode":4,"attributes":{"POSITION":8,"NORMAL":9,"TEXCOORD_0":10},"indices":11,"material":0}]},{"primitives":[{"mode":4,"attributes":{"POSITION":12,"NORMAL":13,"TEXCOORD_0":14},"indices":15,"material":0}]},{"primitives":[{"mode":4,"attributes":{"POSITION":16,"NORMAL":17,"TEXCOORD_0":18},"indices":19,"material":0}]},{"primitives":[{"mode":4,"attributes":{"POSITION":20,"NORMAL":21,"TEXCOORD_0":22},"indices":23,"material":0}]}],"animations":[{"name":"fly","samplers":[{"input":24,"output":25,"interpolation":"LINEAR"},{"input":26,"output":27,"interpolation":"LINEAR"},{"input":28,"output":29,"interpolation":"LINEAR"}],"channels":[{"sampler":0,"target":{"node":9,"path":"rotation"}},{"sampler":1,"target":{"node":5,"path":"rotation"}},{"sampler":2,"target":{"node":7,"path":"rotation"}}]},{"name":"attack","samplers":[{"input":30,"output":31,"interpolation":"LINEAR"},{"input":32,"output":33,"interpolation":"LINEAR"}],"channels":[{"sampler":0,"target":{"node":8,"path":"rotation"}},{"sampler":1,"target":{"node":8,"path":"translation"}}]},{"name":"idle","samplers":[{"input":34,"output":35,"interpolation":"LINEAR"},{"input":36,"output":37,"interpolation":"LINEAR"}],"channels":[{"sampler":0,"target":{"node":5,"path":"rotation"}},{"sampler":1,"target":{"node":7,"path":"rotation"}}]}]}