{"asset":{"version":"2.0","generator":"Blockbench 4.12.6 glTF exporter"},"scenes":[{"nodes":[54],"name":"blockbench_export"}],"scene":0,"nodes":[{"translation":[0,0.4453125,0],"name":"torso"},{"name":"hair-0001-extra"},{"translation":[0.109375,0.015625,0.390625],"name":"hair-0001","children":[1]},{"name":"hair-0002-extra"},{"translation":[0.109375,0.015625,0.390625],"name":"hair-0002","children":[3]},{"translation":[0.109375,0.015625,0.390625],"name":"hair-0003"},{"translation":[0.109375,-0.15234375,-0.015625],"name":"hair-0004-extra"},{"translation":[0,0.19921875,0],"name":"hair-0004","children":[6]},{"translation":[0.125,0.01953125,0.21875],"name":"hair-0005-extra"},{"translation":[-0.015625,0.02734375,-0.234375],"name":"hair-0005","children":[8]},{"translation":[0.125,0.01953125,0.21875],"name":"hair-0006-extra"},{"translation":[-0.015625,0.02734375,-0.234375],"name":"hair-0006","children":[10]},{"translation":[0.125,0.01953125,0.21875],"name":"hair-0007-extra"},{"translation":[-0.015625,0.02734375,-0.234375],"name":"hair-0007","children":[12]},{"translation":[0.125,0.01953125,0.21875],"name":"hair-0008-extra"},{"translation":[-0.015625,0.02734375,-0.234375],"name":"hair-0008","children":[14]},{"translation":[0.109375,-0.15234375,-0.015625],"name":"hair-0009-extra"},{"translation":[0,0.19921875,0],"name":"hair-0009","children":[16]},{"translation":[0.125,0.01953125,0.21875],"name":"hair-0010-extra"},{"translation":[-0.015625,0.02734375,-0.234375],"name":"hair-0010","children":[18]},{"translation":[0.109375,0,0.005937500000000012],"name":"eye-right"},{"translation":[0.078125,0,0.005625000000000019],"name":"pupil-right"},{"translation":[-0.109375,0,0.005937500000000012],"name":"eye-left"},{"translation":[-0.078125,0,0.005625000000000019],"name":"pupil-left"},{"translation":[0,0.15234375,-0.209375],"name":"eyes","children":[20,21,22,23]},{"name":"closed-mouth"},{"translation":[0,0.015625,0.0625],"name":"closed-smile"},{"translation":[0.015625,0.015625,0.0625],"name":"closed-smile2"},{"translation":[0,0.015625,0.0625],"name":"closed-teeth-smile"},{"rotation":[0,0,-1,6.123233995736766e-17],"translation":[0,0.015625,0.0625],"name":"closed-frown"},{"translation":[-0.015625,0,0.0625],"name":"open-smile"},{"translation":[0,0,0.0625],"name":"open-frown"},{"translation":[0,0,0.0625],"name":"shocked"},{"translation":[0,0.04296875,-0.2046875],"name":"mouths","children":[25,26,27,28,29,30,31,32]},{"name":"brow"},{"translation":[0.225,0,0],"name":"brow2"},{"translation":[-0.1125,0.19921875,-0.21],"name":"brows","children":[34,35]},{"translation":[0,0.04296875,0],"name":"head","children":[2,4,5,7,9,11,13,15,17,19,24,33,36]},{"translation":[0,0.4375,0],"name":"neck","children":[37]},{"translation":[-0.0234375,-0.359375,0.01171875],"name":"hand-left"},{"translation":[-0.234375,0,0],"name":"arm-left","children":[39]},{"translation":[0.0234375,-0.359375,0.01171875],"name":"hand-right"},{"translation":[0.234375,0,0],"name":"arm-right","children":[41]},{"translation":[0,0.390625,-0.003125],"name":"arms","children":[40,42]},{"translation":[0,0.5546875,0],"name":"upper","children":[0,38,43]},{"translation":[0.0023443749999999958,-0.37119625,0.0234375],"name":"foot-right"},{"translation":[0.103124375,-0.027241249999999995,0],"name":"leg-right","children":[45]},{"translation":[-0.002345,-0.37119625,0.0234375],"name":"foot-left"},{"translation":[-0.10312375,-0.027241249999999995,0],"name":"leg-left","children":[47]},{"translation":[0,0.5234375,0],"name":"lower","children":[46,48]},{"translation":[0,-0.609375,0],"name":"third-person","children":[44,49]},{"translation":[0,0.609375,0],"name":"root","children":[50]},{"name":"cube","mesh":0},{"name":"beach_voleyball_ball","children":[52]},{"children":[51,53]}],"bufferViews":[{"buffer":0,"byteOffset":0,"byteLength":288,"target":34962,"byteStride":12},{"buffer":0,"byteOffset":288,"byteLength":288,"target":34962,"byteStride":12},{"buffer":0,"byteOffset":576,"byteLength":192,"target":34962,"byteStride":8},{"buffer":0,"byteOffset":768,"byteLength":72,"target":34963}],"buffers":[{"byteLength":840,"uri":"data:application/octet-stream;base64,"}],"accessors":[{"bufferView":0,"componentType":5126,"count":24,"max":[0.25,0.5,0.25],"min":[-0.25,0,-0.25],"type":"VEC3"},{"bufferView":1,"componentType":5126,"count":24,"max":[1,1,1],"min":[-1,-1,-1],"type":"VEC3"},{"bufferView":2,"componentType":5126,"count":24,"max":[0.75,0.75],"min":[0,0],"type":"VEC2"},{"bufferView":3,"componentType":5123,"count":36,"max":[23],"min":[0],"type":"SCALAR"}],"materials":[{"pbrMetallicRoughness":{"metallicFactor":0,"roughnessFactor":1,"baseColorTexture":{"index":0}},"alphaMode":"MASK","alphaCutoff":0.05,"doubleSided":true}],"textures":[{"sampler":0,"source":0,"name":"beach_voleyball"}],"samplers":[{"magFilter":9728,"minFilter":9728,"wrapS":33071,"wrapT":33071}],"images":[{"mimeType":"image/png","uri":"data:image/png;base64,"}],"meshes":[{"primitives":[{"mode":4,"attributes":{"POSITION":0,"NORMAL":1,"TEXCOORD_0":2},"indices":3,"material":0}]}]}