{"asset":{"version":"2.0","generator":"Blockbench 5.0.3 glTF exporter"},"scenes":[{"nodes":[24],"name":"blockbench_export"}],"scene":0,"nodes":[{"rotation":[0,0.17364817766693033,0,0.984807753012208],"translation":[-0.03125,0.5,0],"name":"cube","mesh":0},{"rotation":[-0.21959313108683282,0.37171651727674954,0.09095845310013906,0.8974030573676216],"translation":[-0.1875,0,-0.1875],"name":"bone","children":[0]},{"rotation":[0,-0.17364817766693033,0,0.984807753012208],"translation":[0.03125,0.5,0],"name":"cube","mesh":1},{"rotation":[-0.21959313108683282,-0.37171651727674954,-0.09095845310013906,0.8974030573676216],"translation":[0.1875,0,-0.1875],"name":"bone19","children":[2]},{"rotation":[0.2131514098652129,-0.16953202249987687,-0.0375843445352855,0.9614638770465722],"translation":[-0.03125,1.4531538206990293,0.21130916052365206],"name":"cube","mesh":2},{"rotation":[0.21959313108683282,-0.37171651727674954,0.09095845310013906,0.8974030573676216],"translation":[-0.1875,0,0.1875],"name":"bone15","children":[4]},{"rotation":[0.2131514098652129,0.16953202249987687,0.0375843445352855,0.9614638770465722],"translation":[0.03125,1.4531538206990293,0.21130916052365206],"name":"cube","mesh":3},{"rotation":[0.21959313108683282,0.37171651727674954,-0.09095845310013906,0.8974030573676216],"translation":[0.1875,0,0.1875],"name":"bone17","children":[6]},{"rotation":[0,0.17364817766693033,0,0.984807753012208],"translation":[-0.03125,0.5,0],"name":"cube","mesh":4},{"rotation":[-0.13052619222005157,0,0,0.9914448613738104],"translation":[0,0,-0.1875],"name":"bone4","children":[8]},{"rotation":[0,0.17364817766693033,0,0.984807753012208],"translation":[-0.03125,0.5,0],"name":"cube","mesh":5},{"rotation":[-0.09229595564125724,-0.7010573846499778,-0.09229595564125725,0.7010573846499779],"translation":[0.1875,0,0],"name":"bone9","children":[10]},{"rotation":[-0.2131514098652129,-0.16953202249987687,0.0375843445352855,0.9614638770465722],"translation":[0.03125,1.4531538206990293,-0.21130916052365206],"name":"cube","mesh":6},{"rotation":[-0.09229595564125724,0.7010573846499778,0.09229595564125725,0.7010573846499779],"translation":[-0.1875,0,0],"name":"bone12","children":[12]},{"rotation":[-0.08583165117743129,-0.17298739392508944,0.01513443590133862,0.9810602621904069],"translation":[-0.03125,0.6645155349437748,0.18294865965970616],"name":"cube","mesh":7},{"rotation":[-0.2272920256568435,0.6695807158758448,0.22729202565684353,0.6695807158758449],"translation":[-0.3125,0,0],"name":"bone21","children":[14]},{"rotation":[-0.08583165117743129,0.17298739392508944,-0.01513443590133862,0.9810602621904069],"translation":[0.03125,0.6645155349437748,0.18294865965970616],"name":"cube","mesh":8},{"rotation":[-0.2272920256568435,-0.6695807158758448,-0.22729202565684353,0.6695807158758449],"translation":[0.3125,0,0],"name":"bone22","children":[16]},{"rotation":[-0.08583165117743129,0.17298739392508944,-0.01513443590133862,0.9810602621904069],"translation":[0.03125,0.6645154264136639,0.18294866915486055],"name":"cube","mesh":9},{"rotation":[-0.3214394653031616,0,0,0.9469301294951057],"translation":[0,0,-0.3329075],"name":"bone25","children":[18]},{"rotation":[0.08583165117743129,-0.17298739392508944,-0.01513443590133862,0.9810602621904069],"translation":[0.03125,0.6645154264136639,-0.18294866915486055],"name":"cube","mesh":10},{"rotation":[0.3214394653031616,0,0,0.9469301294951057],"translation":[0,0,0.3329075],"name":"bone27","children":[20]},{"rotation":[0,-0.17364817766693033,0,0.984807753012208],"translation":[-0.03125,0.5,0],"name":"cube","mesh":11},{"rotation":[0.13052619222005157,0,0,0.9914448613738104],"translation":[0,0,0.1875],"name":"bone3","children":[22]},{"name":"root","children":[1,3,5,7,9,11,13,15,17,19,21,23]}],"bufferViews":[{"buffer":0,"byteOffset":0,"byteLength":1440,"target":34962,"byteStride":12},{"buffer":0,"byteOffset":1440,"byteLength":1440,"target":34962,"byteStride":12},{"buffer":0,"byteOffset":2880,"byteLength":960,"target":34962,"byteStride":8},{"buffer":0,"byteOffset":3840,"byteLength":360,"target":34963},{"buffer":0,"byteOffset":4200,"byteLength":1440,"target":34962,"byteStride":12},{"buffer":0,"byteOffset":5640,"byteLength":1440,"target":34962,"byteStride":12},{"buffer":0,"byteOffset":7080,"byteLength":960,"target":34962,"byteStride":8},{"buffer":0,"byteOffset":8040,"byteLength":360,"target":34963},{"buffer":0,"byteOffset":8400,"byteLength":1440,"target":34962,"byteStride":12},{"buffer":0,"byteOffset":9840,"byteLength":1440,"target":34962,"byteStride":12},{"buffer":0,"byteOffset":11280,"byteLength":960,"target":34962,"byteStride":8},{"buffer":0,"byteOffset":12240,"byteLength":360,"target":34963},{"buffer":0,"byteOffset":12600,"byteLength":1440,"target":34962,"byteStride":12},{"buffer":0,"byteOffset":14040,"byteLength":1440,"target":34962,"byteStride":12},{"buffer":0,"byteOffset":15480,"byteLength":960,"target":34962,"byteStride":8},{"buffer":0,"byteOffset":16440,"byteLength":360,"target":34963},{"buffer":0,"byteOffset":16800,"byteLength":2832,"target":34962,"byteStride":12},{"buffer":0,"byteOffset":19632,"byteLength":2832,"target":34962,"byteStride":12},{"buffer":0,"byteOffset":22464,"byteLength":1888,"target":34962,"byteStride":8},{"buffer":0,"byteOffset":24352,"byteLength":708,"target":34963},{"buffer":0,"byteOffset":25060,"byteLength":2832,"target":34962,"byteStride":12},{"buffer":0,"byteOffset":27892,"byteLength":2832,"target":34962,"byteStride":12},{"buffer":0,"byteOffset":30724,"byteLength":1888,"target":34962,"byteStride":8},{"buffer":0,"byteOffset":32612,"byteLength":708,"target":34963},{"buffer":0,"byteOffset":33320,"byteLength":2832,"target":34962,"byteStride":12},{"buffer":0,"byteOffset":36152,"byteLength":2832,"target":34962,"byteStride":12},{"buffer":0,"byteOffset":38984,"byteLength":1888,"target":34962,"byteStride":8},{"buffer":0,"byteOffset":40872,"byteLength":708,"target":34963},{"buffer":0,"byteOffset":41580,"byteLength":1872,"target":34962,"byteStride":12},{"buffer":0,"byteOffset":43452,"byteLength":1872,"target":34962,"byteStride":12},{"buffer":0,"byteOffset":45324,"byteLength":1248,"target":34962,"byteStride":8},{"buffer":0,"byteOffset":46572,"byteLength":468,"target":34963},{"buffer":0,"byteOffset":47040,"byteLength":1872,"target":34962,"byteStride":12},{"buffer":0,"byteOffset":48912,"byteLength":1872,"target":34962,"byteStride":12},{"buffer":0,"byteOffset":50784,"byteLength":1248,"target":34962,"byteStride":8},{"buffer":0,"byteOffset":52032,"byteLength":468,"target":34963},{"buffer":0,"byteOffset":52500,"byteLength":1872,"target":34962,"byteStride":12},{"buffer":0,"byteOffset":54372,"byteLength":1872,"target":34962,"byteStride":12},{"buffer":0,"byteOffset":56244,"byteLength":1248,"target":34962,"byteStride":8},{"buffer":0,"byteOffset":57492,"byteLength":468,"target":34963},{"buffer":0,"byteOffset":57960,"byteLength":1872,"target":34962,"byteStride":12},{"buffer":0,"byteOffset":59832,"byteLength":1872,"target":34962,"byteStride":12},{"buffer":0,"byteOffset":61704,"byteLength":1248,"target":34962,"byteStride":8},{"buffer":0,"byteOffset":62952,"byteLength":468,"target":34963},{"buffer":0,"byteOffset":63420,"byteLength":2832,"target":34962,"byteStride":12},{"buffer":0,"byteOffset":66252,"byteLength":2832,"target":34962,"byteStride":12},{"buffer":0,"byteOffset":69084,"byteLength":1888,"target":34962,"byteStride":8},{"buffer":0,"byteOffset":70972,"byteLength":708,"target":34963},{"buffer":0,"byteOffset":71680,"byteLength":784},{"buffer":0,"byteOffset":72464,"byteLength":3136},{"buffer":0,"byteOffset":75600,"byteLength":784},{"buffer":0,"byteOffset":76384,"byteLength":3136},{"buffer":0,"byteOffset":79520,"byteLength":784},{"buffer":0,"byteOffset":80304,"byteLength":3136},{"buffer":0,"byteOffset":83440,"byteLength":784},{"buffer":0,"byteOffset":84224,"byteLength":3136},{"buffer":0,"byteOffset":87360,"byteLength":784},{"buffer":0,"byteOffset":88144,"byteLength":3136},{"buffer":0,"byteOffset":91280,"byteLength":784},{"buffer":0,"byteOffset":92064,"byteLength":3136},{"buffer":0,"byteOffset":95200,"byteLength":784},{"buffer":0,"byteOffset":95984,"byteLength":3136},{"buffer":0,"byteOffset":99120,"byteLength":784},{"buffer":0,"byteOffset":99904,"byteLength":3136},{"buffer":0,"byteOffset":103040,"byteLength":784},{"buffer":0,"byteOffset":103824,"byteLength":3136},{"buffer":0,"byteOffset":106960,"byteLength":784},{"buffer":0,"byteOffset":107744,"byteLength":3136},{"buffer":0,"byteOffset":110880,"byteLength":784},{"buffer":0,"byteOffset":111664,"byteLength":3136},{"buffer":0,"byteOffset":114800,"byteLength":784},{"buffer":0,"byteOffset":115584,"byteLength":3136}],"buffers":[{"byteLength":118720,"uri":"data:application/octet-stream;base64,"}],"accessors":[{"bufferView":0,"componentType":5126,"count":120,"max":[0.48901018500328064,1.1296802759170532,0.3025958240032196],"min":[-0.4375,-0.5,-0.2613811194896698],"type":"VEC3"},{"bufferView":1,"componentType":5126,"count":120,"max":[1,0.4226182699203491,1],"min":[-0.6427876353263855,-4.5102810375396984e-17,0],"type":"VEC3"},{"bufferView":2,"componentType":5126,"count":120,"max":[0.515625,0.671875],"min":[0,0],"type":"VEC2"},{"bufferView":3,"componentType":5123,"count":180,"max":[119],"min":[0],"type":"SCALAR"},{"bufferView":4,"componentType":5126,"count":120,"max":[0.4375,1.1296802759170532,0.3025958240032196],"min":[-0.48901018500328064,-0.5,-0.2613811194896698],"type":"VEC3"},{"bufferView":5,"componentType":5126,"count":120,"max":[1,0.4226182699203491,1],"min":[-0.030112097039818764,-4.506764196447368e-17,0],"type":"VEC3"},{"bufferView":6,"componentType":5126,"count":120,"max":[0.515625,0.671875],"min":[0,0],"type":"VEC2"},{"bufferView":7,"componentType":5123,"count":180,"max":[119],"min":[0],"type":"SCALAR"},{"bufferView":8,"componentType":5126,"count":120,"max":[0.5432141423225403,0.125,0.4103052616119385],"min":[-0.4375,-1.4695457220077515,-0.3025958240032196],"type":"VEC3"},{"bufferView":9,"componentType":5126,"count":120,"max":[1,1.6692294326572265e-16,0],"min":[-0.6427876353263855,-0.4226182699203491,-1],"type":"VEC3"},{"bufferView":10,"componentType":5126,"count":120,"max":[0.515625,0.671875],"min":[0,0],"type":"VEC2"},{"bufferView":11,"componentType":5123,"count":180,"max":[119],"min":[0],"type":"SCALAR"},{"bufferView":12,"componentType":5126,"count":120,"max":[0.4375,0.125,0.4103052616119385],"min":[-0.5432141423225403,-1.4695457220077515,-0.3025958240032196],"type":"VEC3"},{"bufferView":13,"componentType":5126,"count":120,"max":[1,1.6653345369377348e-16,0],"min":[-0.030112097039818764,-0.4226182699203491,-1],"type":"VEC3"},{"bufferView":14,"componentType":5126,"count":120,"max":[0.515625,0.671875],"min":[0,0],"type":"VEC2"},{"bufferView":15,"componentType":5123,"count":180,"max":[119],"min":[0],"type":"SCALAR"},{"bufferView":16,"componentType":5126,"count":236,"max":[0.615037202835083,1.661900520324707,0.3025958240032196],"min":[-0.4375,-0.5,-0.6076382994651794],"type":"VEC3"},{"bufferView":17,"componentType":5126,"count":236,"max":[1,0.5735764503479004,1],"min":[-0.6427876353263855,-2.42861286636753e-17,0],"type":"VEC3"},{"bufferView":18,"componentType":5126,"count":236,"max":[0.609375,0.671875],"min":[0,0],"type":"VEC2"},{"bufferView":19,"componentType":5123,"count":354,"max":[235],"min":[0],"type":"SCALAR"},{"bufferView":20,"componentType":5126,"count":236,"max":[0.615037202835083,1.661900520324707,0.3025958240032196],"min":[-0.4375,-0.5,-0.6076382994651794],"type":"VEC3"},{"bufferView":21,"componentType":5126,"count":236,"max":[1,0.5735764503479004,1],"min":[-0.6427876353263855,0,0],"type":"VEC3"},{"bufferView":22,"componentType":5126,"count":236,"max":[0.609375,0.671875],"min":[0,0],"type":"VEC2"},{"bufferView":23,"componentType":5123,"count":354,"max":[235],"min":[0],"type":"SCALAR"},{"bufferView":24,"componentType":5126,"count":236,"max":[0.4375,0.763081431388855,0.3025958240032196],"min":[-0.5432141423225403,-1.4695457220077515,-0.4103052616119385],"type":"VEC3"},{"bufferView":25,"componentType":5126,"count":236,"max":[1,0.1736481785774231,1],"min":[-0.030112097039818764,-0.4226182699203491,0],"type":"VEC3"},{"bufferView":26,"componentType":5126,"count":236,"max":[0.609375,0.671875],"min":[0,0],"type":"VEC2"},{"bufferView":27,"componentType":5123,"count":354,"max":[235],"min":[0],"type":"SCALAR"},{"bufferView":28,"componentType":5126,"count":156,"max":[0.45453375577926636,0.987156867980957,0.16665871441364288],"min":[-0.4370098114013672,-0.6486349701881409,-0.30124908685684204],"type":"VEC3"},{"bufferView":29,"componentType":5126,"count":156,"max":[1,1.8211168661298055e-16,1],"min":[-0.004882694222033024,-0.1736481785774231,0],"type":"VEC3"},{"bufferView":30,"componentType":5126,"count":156,"max":[0.609375,0.671875],"min":[0,0],"type":"VEC2"},{"bufferView":31,"componentType":5123,"count":234,"max":[155],"min":[0],"type":"SCALAR"},{"bufferView":32,"componentType":5126,"count":156,"max":[0.4370098114013672,0.987156867980957,0.16665871441364288],"min":[-0.45453375577926636,-0.6486349701881409,-0.30124908685684204],"type":"VEC3"},{"bufferView":33,"componentType":5126,"count":156,"max":[1,1.77635686587003e-16,1],"min":[-0.6427876353263855,-0.1736481785774231,0],"type":"VEC3"},{"bufferView":34,"componentType":5126,"count":156,"max":[0.609375,0.671875],"min":[0,0],"type":"VEC2"},{"bufferView":35,"componentType":5123,"count":234,"max":[155],"min":[0],"type":"SCALAR"},{"bufferView":36,"componentType":5126,"count":156,"max":[0.4370098114013672,0.987156867980957,0.16665871441364288],"min":[-0.45453375577926636,-0.6486348509788513,-0.30124908685684204],"type":"VEC3"},{"bufferView":37,"componentType":5126,"count":156,"max":[1,1.942890293094024e-16,1],"min":[-0.6427876353263855,-0.1736481785774231,0],"type":"VEC3"},{"bufferView":38,"componentType":5126,"count":156,"max":[0.609375,0.671875],"min":[0,0],"type":"VEC2"},{"bufferView":39,"componentType":5123,"count":234,"max":[155],"min":[0],"type":"SCALAR"},{"bufferView":40,"componentType":5126,"count":156,"max":[0.4370098114013672,0.987156867980957,0.30124908685684204],"min":[-0.45453375577926636,-0.6486348509788513,-0.16665871441364288],"type":"VEC3"},{"bufferView":41,"componentType":5126,"count":156,"max":[1,1.9730042996023845e-16,0],"min":[-0.6427876353263855,-0.1736481785774231,-1],"type":"VEC3"},{"bufferView":42,"componentType":5126,"count":156,"max":[0.609375,0.671875],"min":[0,0],"type":"VEC2"},{"bufferView":43,"componentType":5123,"count":234,"max":[155],"min":[0],"type":"SCALAR"},{"bufferView":44,"componentType":5126,"count":236,"max":[0.615037202835083,1.661900520324707,0.6076382994651794],"min":[-0.4375,-0.5,-0.3025958240032196],"type":"VEC3"},{"bufferView":45,"componentType":5126,"count":236,"max":[1,0.5735764503479004,0],"min":[-0.6427876353263855,-2.6081709471678858e-17,-1],"type":"VEC3"},{"bufferView":46,"componentType":5126,"count":236,"max":[0.609375,0.671875],"min":[0,0],"type":"VEC2"},{"bufferView":47,"componentType":5123,"count":354,"max":[235],"min":[0],"type":"SCALAR"},{"bufferView":48,"componentType":5126,"count":196,"max":[5.983333110809326],"min":[0],"type":"SCALAR"},{"bufferView":49,"componentType":5126,"count":196,"max":[-0.21337419748306274,0.37305977940559387,0.09654682129621506,0.8988981246948242],"min":[-0.22579975426197052,0.37032175064086914,0.08535747975111008,0.8958576321601868],"type":"VEC4"},{"bufferView":50,"componentType":5126,"count":196,"max":[5.983333110809326],"min":[0],"type":"SCALAR"},{"bufferView":51,"componentType":5126,"count":196,"max":[-0.21337419748306274,-0.37032175064086914,-0.08535666018724442,0.8988981246948242],"min":[-0.22579975426197052,-0.3730601966381073,-0.09654682129621506,0.8958576321601868],"type":"VEC4"},{"bufferView":52,"componentType":5126,"count":196,"max":[5.983333110809326],"min":[0],"type":"SCALAR"},{"bufferView":53,"componentType":5126,"count":196,"max":[0.22579975426197052,-0.37032175064086914,0.09654774516820908,0.8988981246948242],"min":[0.21337419748306274,-0.37305977940559387,0.08535747975111008,0.8958576321601868],"type":"VEC4"},{"bufferView":54,"componentType":5126,"count":196,"max":[5.983333110809326],"min":[0],"type":"SCALAR"},{"bufferView":55,"componentType":5126,"count":196,"max":[0.22579975426197052,0.37305977940559387,-0.08535747975111008,0.8988981246948242],"min":[0.21337419748306274,0.37032175064086914,-0.09654682129621506,0.8958576321601868],"type":"VEC4"},{"bufferView":56,"componentType":5126,"count":196,"max":[5.983333110809326],"min":[0],"type":"SCALAR"},{"bufferView":57,"componentType":5126,"count":196,"max":[-0.12446832656860352,0.000588206690736115,0.004328400362282991,0.9922235608100891],"min":[-0.13657918572425842,-0.000588206690736115,-0.004328400362282991,0.9906291365623474],"type":"VEC4"},{"bufferView":58,"componentType":5126,"count":196,"max":[5.983333110809326],"min":[0],"type":"SCALAR"},{"bufferView":59,"componentType":5126,"count":196,"max":[-0.08590564876794815,-0.7001875638961792,-0.08590564876794815,0.7018690705299377],"min":[-0.09867814183235168,-0.7018690705299377,-0.09867814183235168,0.7001875638961792],"type":"VEC4"},{"bufferView":60,"componentType":5126,"count":196,"max":[5.983333110809326],"min":[0],"type":"SCALAR"},{"bufferView":61,"componentType":5126,"count":196,"max":[-0.08590611070394516,0.701869010925293,0.09867814183235168,0.701869010925293],"min":[-0.09867814183235168,0.7001875638961792,0.08590611070394516,0.7001875638961792],"type":"VEC4"},{"bufferView":62,"componentType":5126,"count":196,"max":[5.983333110809326],"min":[0],"type":"SCALAR"},{"bufferView":63,"componentType":5126,"count":196,"max":[-0.22118331491947174,0.6716233491897583,0.23338188230991364,0.6716233491897583],"min":[-0.23338188230991364,0.6674824953079224,0.22118331491947174,0.6674824953079224],"type":"VEC4"},{"bufferView":64,"componentType":5126,"count":196,"max":[5.983333110809326],"min":[0],"type":"SCALAR"},{"bufferView":65,"componentType":5126,"count":196,"max":[-0.22118286788463593,-0.6674824953079224,-0.22118286788463593,0.6716235280036926],"min":[-0.23338188230991364,-0.6716235280036926,-0.23338188230991364,0.6674824953079224],"type":"VEC4"},{"bufferView":66,"componentType":5126,"count":196,"max":[5.983333110809326],"min":[0],"type":"SCALAR"},{"bufferView":67,"componentType":5126,"count":196,"max":[-0.31564992666244507,0.00142037367913872,0.004137768875807524,0.9488757252693176],"min":[-0.3272170126438141,-0.00142037367913872,-0.004137768875807524,0.944949209690094],"type":"VEC4"},{"bufferView":68,"componentType":5126,"count":196,"max":[5.983333110809326],"min":[0],"type":"SCALAR"},{"bufferView":69,"componentType":5126,"count":196,"max":[0.3272170126438141,0.00142037367913872,0.004137768875807524,0.9488757252693176],"min":[0.31564992666244507,-0.00142037367913872,-0.004137768875807524,0.944949209690094],"type":"VEC4"},{"bufferView":70,"componentType":5126,"count":196,"max":[5.983333110809326],"min":[0],"type":"SCALAR"},{"bufferView":71,"componentType":5126,"count":196,"max":[0.13657918572425842,0.000588206690736115,0.004328400362282991,0.9922235608100891],"min":[0.12446832656860352,-0.000588206690736115,-0.004328400362282991,0.9906291365623474],"type":"VEC4"}],"materials":[{"pbrMetallicRoughness":{"metallicFactor":0,"roughnessFactor":1,"baseColorTexture":{"index":0}},"alphaMode":"MASK","alphaCutoff":0.05,"doubleSided":true}],"textures":[{"sampler":0,"source":0,"name":"jungle_fern"}],"samplers":[{"magFilter":9728,"minFilter":9728,"wrapS":33071,"wrapT":33071}],"images":[{"mimeType":"image/png","uri":"data:image/png;base64,"}],"meshes":[{"primitives":[{"mode":4,"attributes":{"POSITION":0,"NORMAL":1,"TEXCOORD_0":2},"indices":3,"material":0}]},{"primitives":[{"mode":4,"attributes":{"POSITION":4,"NORMAL":5,"TEXCOORD_0":6},"indices":7,"material":0}]},{"primitives":[{"mode":4,"attributes":{"POSITION":8,"NORMAL":9,"TEXCOORD_0":10},"indices":11,"material":0}]},{"primitives":[{"mode":4,"attributes":{"POSITION":12,"NORMAL":13,"TEXCOORD_0":14},"indices":15,"material":0}]},{"primitives":[{"mode":4,"attributes":{"POSITION":16,"NORMAL":17,"TEXCOORD_0":18},"indices":19,"material":0}]},{"primitives":[{"mode":4,"attributes":{"POSITION":20,"NORMAL":21,"TEXCOORD_0":22},"indices":23,"material":0}]},{"primitives":[{"mode":4,"attributes":{"POSITION":24,"NORMAL":25,"TEXCOORD_0":26},"indices":27,"material":0}]},{"primitives":[{"mode":4,"attributes":{"POSITION":28,"NORMAL":29,"TEXCOORD_0":30},"indices":31,"material":0}]},{"primitives":[{"mode":4,"attributes":{"POSITION":32,"NORMAL":33,"TEXCOORD_0":34},"indices":35,"material":0}]},{"primitives":[{"mode":4,"attributes":{"POSITION":36,"NORMAL":37,"TEXCOORD_0":38},"indices":39,"material":0}]},{"primitives":[{"mode":4,"attributes":{"POSITION":40,"NORMAL":41,"TEXCOORD_0":42},"indices":43,"material":0}]},{"primitives":[{"mode":4,"attributes":{"POSITION":44,"NORMAL":45,"TEXCOORD_0":46},"indices":47,"material":0}]}],"animations":[{"name":"idle","samplers":[{"input":48,"output":49,"interpolation":"LINEAR"},{"input":50,"output":51,"interpolation":"LINEAR"},{"input":52,"output":53,"interpolation":"LINEAR"},{"input":54,"output":55,"interpolation":"LINEAR"},{"input":56,"output":57,"interpolation":"LINEAR"},{"input":58,"output":59,"interpolation":"LINEAR"},{"input":60,"output":61,"interpolation":"LINEAR"},{"input":62,"output":63,"interpolation":"LINEAR"},{"input":64,"output":65,"interpolation":"LINEAR"},{"input":66,"output":67,"interpolation":"LINEAR"},{"input":68,"output":69,"interpolation":"LINEAR"},{"input":70,"output":71,"interpolation":"LINEAR"}],"channels":[{"sampler":0,"target":{"node":1,"path":"rotation"}},{"sampler":1,"target":{"node":3,"path":"rotation"}},{"sampler":2,"target":{"node":5,"path":"rotation"}},{"sampler":3,"target":{"node":7,"path":"rotation"}},{"sampler":4,"target":{"node":9,"path":"rotation"}},{"sampler":5,"target":{"node":11,"path":"rotation"}},{"sampler":6,"target":{"node":13,"path":"rotation"}},{"sampler":7,"target":{"node":15,"path":"rotation"}},{"sampler":8,"target":{"node":17,"path":"rotation"}},{"sampler":9,"target":{"node":19,"path":"rotation"}},{"sampler":10,"target":{"node":21,"path":"rotation"}},{"sampler":11,"target":{"node":23,"path":"rotation"}}]}]}