{"asset":{"version":"2.0","generator":"Blockbench 5.0.3 glTF exporter"},"scenes":[{"nodes":[5],"name":"blockbench_export"}],"scene":0,"nodes":[{"rotation":[0.5182794812221435,-0.022629023986659495,0.037291477391365395,0.8540981514623985],"name":"cube","mesh":0},{"rotation":[0.3127453320959721,0.6341847973991336,-0.10756747795195015,0.6988771263155324],"translation":[-0.5624142228030219,-0.297513737338825,0.009569375091182053],"name":"cube","mesh":1},{"rotation":[0.060424158322038214,0.3818640931869706,0.025029163874136118,0.921901446132572],"translation":[0.30577375000000007,8.889624574289384,6.074035801470264],"name":"leaf-2","children":[1]},{"rotation":[0.15304591873303094,0.6903455270798547,0.15304591873303092,0.6903455270798549],"translation":[0.004326875000000285,-0.35833527118952624,-0.03752378466610651],"name":"cube","mesh":2},{"translation":[-0.05360124999999988,8.889624574289384,6.074035801470264],"name":"leaf-1","children":[3]},{"translation":[-0.31250000000000006,-0.3631567473443974,-0.3320170861268109],"name":"palm-4","children":[0,2,4]}],"bufferViews":[{"buffer":0,"byteOffset":0,"byteLength":3984,"target":34962,"byteStride":12},{"buffer":0,"byteOffset":3984,"byteLength":3984,"target":34962,"byteStride":12},{"buffer":0,"byteOffset":7968,"byteLength":2656,"target":34962,"byteStride":8},{"buffer":0,"byteOffset":10624,"byteLength":996,"target":34963},{"buffer":0,"byteOffset":11620,"byteLength":2304,"target":34962,"byteStride":12},{"buffer":0,"byteOffset":13924,"byteLength":2304,"target":34962,"byteStride":12},{"buffer":0,"byteOffset":16228,"byteLength":1536,"target":34962,"byteStride":8},{"buffer":0,"byteOffset":17764,"byteLength":576,"target":34963},{"buffer":0,"byteOffset":18340,"byteLength":2304,"target":34962,"byteStride":12},{"buffer":0,"byteOffset":20644,"byteLength":2304,"target":34962,"byteStride":12},{"buffer":0,"byteOffset":22948,"byteLength":1536,"target":34962,"byteStride":8},{"buffer":0,"byteOffset":24484,"byteLength":576,"target":34963},{"buffer":0,"byteOffset":25060,"byteLength":784},{"buffer":0,"byteOffset":25844,"byteLength":3136},{"buffer":0,"byteOffset":28980,"byteLength":784},{"buffer":0,"byteOffset":29764,"byteLength":3136}],"buffers":[{"byteLength":32900,"uri":"data:application/octet-stream;base64,"}],"accessors":[{"bufferView":0,"componentType":5126,"count":332,"max":[1.9092289209365845,9.825181007385254,0.462393581867218],"min":[-0.06273692846298218,-0.06534727662801743,-5.420522689819336],"type":"VEC3"},{"bufferView":1,"componentType":5126,"count":332,"max":[1,0.9961945414543152,1],"min":[-1,-0.9961945414543152,-1],"type":"VEC3"},{"bufferView":2,"componentType":5126,"count":332,"max":[0.75,0.515625],"min":[0,0],"type":"VEC2"},{"bufferView":3,"componentType":5123,"count":498,"max":[331],"min":[0],"type":"SCALAR"},{"bufferView":4,"componentType":5126,"count":192,"max":[3.275068521499634,2.8934836387634277,2.464749336242676],"min":[-2.621964454650879,-0.872109591960907,-2.7526979446411133],"type":"VEC3"},{"bufferView":5,"componentType":5126,"count":192,"max":[0.7660142183303833,1,0.9174181818962097],"min":[-0.7660142183303833,-1,-0.9174181818962097],"type":"VEC3"},{"bufferView":6,"componentType":5126,"count":192,"max":[0.4140625,0.75],"min":[0.015625,0.375],"type":"VEC2"},{"bufferView":7,"componentType":5123,"count":288,"max":[191],"min":[0],"type":"SCALAR"},{"bufferView":8,"componentType":5126,"count":192,"max":[2.7175133228302,0.7283961772918701,3.431544065475464],"min":[-3.020397663116455,-1.5188909769058228,-2.7526979446411133],"type":"VEC3"},{"bufferView":9,"componentType":5126,"count":192,"max":[0.7643728852272034,1,0.5825638771057129],"min":[-0.7643728852272034,-1,-0.5825638771057129],"type":"VEC3"},{"bufferView":10,"componentType":5126,"count":192,"max":[0.4140625,0.75],"min":[0.015625,0.375],"type":"VEC2"},{"bufferView":11,"componentType":5123,"count":288,"max":[191],"min":[0],"type":"SCALAR"},{"bufferView":12,"componentType":5126,"count":196,"max":[5.983333110809326],"min":[0],"type":"SCALAR"},{"bufferView":13,"componentType":5126,"count":196,"max":[0.07028605043888092,0.3825809955596924,0.035512544214725494,0.9225180745124817],"min":[0.05055834725499153,0.38120704889297485,0.014549707062542439,0.9212245345115662],"type":"VEC4"},{"bufferView":14,"componentType":5126,"count":196,"max":[5.983333110809326],"min":[0],"type":"SCALAR"},{"bufferView":15,"componentType":5126,"count":196,"max":[0.00872520636767149,0.000058618745242711157,0.008726369589567184,1],"min":[-0.00872520636767149,-0.000058618745242711157,-0.008726369589567184,0.9999405145645142],"type":"VEC4"}],"materials":[{"pbrMetallicRoughness":{"metallicFactor":0,"roughnessFactor":1,"baseColorTexture":{"index":0}},"alphaMode":"MASK","alphaCutoff":0.05,"doubleSided":true}],"textures":[{"sampler":0,"source":0,"name":"Palm.png"}],"samplers":[{"magFilter":9728,"minFilter":9728,"wrapS":33071,"wrapT":33071}],"images":[{"mimeType":"image/png","uri":"data:image/png;base64,"}],"meshes":[{"primitives":[{"mode":4,"attributes":{"POSITION":0,"NORMAL":1,"TEXCOORD_0":2},"indices":3,"material":0}]},{"primitives":[{"mode":4,"attributes":{"POSITION":4,"NORMAL":5,"TEXCOORD_0":6},"indices":7,"material":0}]},{"primitives":[{"mode":4,"attributes":{"POSITION":8,"NORMAL":9,"TEXCOORD_0":10},"indices":11,"material":0}]}],"animations":[{"name":"idle","samplers":[{"input":12,"output":13,"interpolation":"LINEAR"},{"input":14,"output":15,"interpolation":"LINEAR"}],"channels":[{"sampler":0,"target":{"node":2,"path":"rotation"}},{"sampler":1,"target":{"node":4,"path":"rotation"}}]}]}