{"asset":{"version":"2.0","generator":"Blockbench 5.0.3 glTF exporter"},"scenes":[{"nodes":[5],"name":"blockbench_export"}],"scene":0,"nodes":[{"rotation":[-0.2129432520489632,-0.9160879339740725,0.06536472275921117,0.33341493915620907],"translation":[0.43738125,-0.5605975000000001,0.49988125],"name":"cube","mesh":0},{"rotation":[0,0,0.1521233861899167,0.9883615104677607],"name":"cube","mesh":1},{"translation":[-0.000789375,-0.29916562499999966,-0.251634375],"name":"leaf-1","children":[1]},{"rotation":[0.23491955600284103,-0.03615778779622963,0.1477646825990897,0.9600369863528703],"translation":[0.0686701226960984,-0.7949754784518275,-0.3042037336467259],"name":"cube","mesh":2},{"rotation":[0,0.3624380382837016,0,0.9320078692827986],"translation":[0.01102108972706567,0.4273723086612584,0.013452357451506053],"name":"leaf-2","children":[3]},{"translation":[0.00011875,7.8105975,0.00011875],"name":"palm-1","children":[0,2,4]}],"bufferViews":[{"buffer":0,"byteOffset":0,"byteLength":3072,"target":34962,"byteStride":12},{"buffer":0,"byteOffset":3072,"byteLength":3072,"target":34962,"byteStride":12},{"buffer":0,"byteOffset":6144,"byteLength":2048,"target":34962,"byteStride":8},{"buffer":0,"byteOffset":8192,"byteLength":768,"target":34963},{"buffer":0,"byteOffset":8960,"byteLength":2304,"target":34962,"byteStride":12},{"buffer":0,"byteOffset":11264,"byteLength":2304,"target":34962,"byteStride":12},{"buffer":0,"byteOffset":13568,"byteLength":1536,"target":34962,"byteStride":8},{"buffer":0,"byteOffset":15104,"byteLength":576,"target":34963},{"buffer":0,"byteOffset":15680,"byteLength":2304,"target":34962,"byteStride":12},{"buffer":0,"byteOffset":17984,"byteLength":2304,"target":34962,"byteStride":12},{"buffer":0,"byteOffset":20288,"byteLength":1536,"target":34962,"byteStride":8},{"buffer":0,"byteOffset":21824,"byteLength":576,"target":34963},{"buffer":0,"byteOffset":22400,"byteLength":784},{"buffer":0,"byteOffset":23184,"byteLength":3136},{"buffer":0,"byteOffset":26320,"byteLength":784},{"buffer":0,"byteOffset":27104,"byteLength":3136}],"buffers":[{"byteLength":30240,"uri":"data:application/octet-stream;base64,"}],"accessors":[{"bufferView":0,"componentType":5126,"count":256,"max":[0.8105935454368591,0.8829507827758789,1.3144034147262573],"min":[-3.6140356063842773,-6.784234523773193,-0.07010278850793839],"type":"VEC3"},{"bufferView":1,"componentType":5126,"count":256,"max":[1,1,1],"min":[-1,-1,-1],"type":"VEC3"},{"bufferView":2,"componentType":5126,"count":256,"max":[0.75,0.515625],"min":[0,0],"type":"VEC2"},{"bufferView":3,"componentType":5123,"count":384,"max":[255],"min":[0],"type":"SCALAR"},{"bufferView":4,"componentType":5126,"count":192,"max":[2.777120590209961,0.8240598440170288,3.2419052124023438],"min":[-3.1168160438537598,-1.5376850366592407,-2.750559091567993],"type":"VEC3"},{"bufferView":5,"componentType":5126,"count":192,"max":[0.7643728852272034,1,0.5825638771057129],"min":[-0.7643728852272034,-1,-0.5825638771057129],"type":"VEC3"},{"bufferView":6,"componentType":5126,"count":192,"max":[0.4140625,0.75],"min":[0.015625,0.375],"type":"VEC2"},{"bufferView":7,"componentType":5123,"count":288,"max":[191],"min":[0],"type":"SCALAR"},{"bufferView":8,"componentType":5126,"count":192,"max":[3.098306894302368,2.3722426891326904,2.6712610721588135],"min":[-2.8113465309143066,-0.8394780158996582,-2.750559091567993],"type":"VEC3"},{"bufferView":9,"componentType":5126,"count":192,"max":[0.6873915791511536,1,0.7997351884841919],"min":[-0.6873915791511536,-1,-0.7997351884841919],"type":"VEC3"},{"bufferView":10,"componentType":5126,"count":192,"max":[0.4140625,0.75],"min":[0.015625,0.375],"type":"VEC2"},{"bufferView":11,"componentType":5123,"count":288,"max":[191],"min":[0],"type":"SCALAR"},{"bufferView":12,"componentType":5126,"count":196,"max":[5.983333110809326],"min":[0],"type":"SCALAR"},{"bufferView":13,"componentType":5126,"count":196,"max":[0.00872520636767149,0.000058618745242711157,0.008726369589567184,1],"min":[-0.00872520636767149,-0.000058618745242711157,-0.008726369589567184,0.9999405145645142],"type":"VEC4"},{"bufferView":14,"componentType":5126,"count":196,"max":[5.983333110809326],"min":[0],"type":"SCALAR"},{"bufferView":15,"componentType":5126,"count":196,"max":[0.009805288165807724,0.36247122287750244,0.010440816171467304,0.9320078492164612],"min":[-0.009805288165807724,0.3623619079589844,-0.010440816171467304,0.9319312572479248],"type":"VEC4"}],"materials":[{"pbrMetallicRoughness":{"metallicFactor":0,"roughnessFactor":1,"baseColorTexture":{"index":0}},"alphaMode":"MASK","alphaCutoff":0.05,"doubleSided":true}],"textures":[{"sampler":0,"source":0,"name":"Palm.png"}],"samplers":[{"magFilter":9728,"minFilter":9728,"wrapS":33071,"wrapT":33071}],"images":[{"mimeType":"image/png","uri":"data:image/png;base64,"}],"meshes":[{"primitives":[{"mode":4,"attributes":{"POSITION":0,"NORMAL":1,"TEXCOORD_0":2},"indices":3,"material":0}]},{"primitives":[{"mode":4,"attributes":{"POSITION":4,"NORMAL":5,"TEXCOORD_0":6},"indices":7,"material":0}]},{"primitives":[{"mode":4,"attributes":{"POSITION":8,"NORMAL":9,"TEXCOORD_0":10},"indices":11,"material":0}]}],"animations":[{"name":"idle","samplers":[{"input":12,"output":13,"interpolation":"LINEAR"},{"input":14,"output":15,"interpolation":"LINEAR"}],"channels":[{"sampler":0,"target":{"node":2,"path":"rotation"}},{"sampler":1,"target":{"node":4,"path":"rotation"}}]}]}