{"asset":{"version":"2.0","generator":"Blockbench 5.0.3 glTF exporter"},"scenes":[{"nodes":[21],"name":"blockbench_export"}],"scene":0,"nodes":[{"translation":[0,0.15625,0],"name":"cube","mesh":0},{"translation":[0.0077106250000000005,-0.85464125,0.0625],"name":"cube","mesh":1},{"rotation":[-0.28478491549954854,-0.6472229537832499,0.2847849154995485,0.6472229537832501],"translation":[-0.003534375,0.125985625,-0.078125],"name":"bone13","children":[1]},{"translation":[0.0077106250000000005,-0.85464125,-0.0625],"name":"cube","mesh":2},{"rotation":[0.28478491549954854,0.6472229537832499,0.2847849154995485,0.6472229537832501],"translation":[-0.003534375,0.125985625,0.078125],"name":"bone15","children":[3]},{"translation":[0.007710625000000006,-0.85464125,-0.0625],"name":"cube","mesh":3},{"rotation":[0,0,0.40274668985873724,0.9153114791194471],"translation":[-0.066034375,0.282235625,0],"name":"bone17","children":[5]},{"translation":[0,-0.3125,-0.0625],"name":"cube","mesh":4},{"rotation":[0,0,0.25881904510252074,0.9659258262890683],"translation":[-0.09375,0.3125,0],"name":"bone","children":[7]},{"translation":[0,-0.3125,-0.0625],"name":"cube","mesh":5},{"rotation":[0,0,-0.25881904510252074,0.9659258262890683],"translation":[0.09375,0.3125,0],"name":"bone10","children":[9]},{"translation":[0,-0.3125,0.0625],"name":"cube","mesh":6},{"rotation":[-0.18301270189221935,0.6830127018922192,-0.18301270189221935,0.6830127018922193],"translation":[0,0.265625,-0.08119],"name":"bone7","children":[11]},{"translation":[0,-0.3125,-0.0625],"name":"cube","mesh":7},{"rotation":[0.18301270189221935,-0.6830127018922192,-0.18301270189221935,0.6830127018922193],"translation":[0,0.265625,0.08119],"name":"bone4","children":[13]},{"translation":[0,-0.3125,-0.0625],"name":"cube","mesh":8},{"rotation":[0.10057986718198292,0.9183882924052001,0.0416615711822417,0.3804089223156343],"translation":[0.015625,0.3125,0.015625],"name":"bone21","children":[15]},{"translation":[0,-0.3125,0.0625],"name":"cube","mesh":9},{"rotation":[-0.10057986718198292,0.9183882924052001,-0.0416615711822417,0.3804089223156343],"translation":[-0.015625,0.3125,-0.015625],"name":"bone24","children":[17]},{"translation":[-0.007710625000000006,-0.85464125,-0.0625],"name":"cube","mesh":10},{"rotation":[0,0,-0.40274668985873724,0.9153114791194471],"translation":[0.066034375,0.282235625,0],"name":"bone19","children":[19]},{"name":"root","children":[0,2,4,6,8,10,12,14,16,18,20]}],"bufferViews":[{"buffer":0,"byteOffset":0,"byteLength":288,"target":34962,"byteStride":12},{"buffer":0,"byteOffset":288,"byteLength":288,"target":34962,"byteStride":12},{"buffer":0,"byteOffset":576,"byteLength":192,"target":34962,"byteStride":8},{"buffer":0,"byteOffset":768,"byteLength":72,"target":34963},{"buffer":0,"byteOffset":840,"byteLength":480,"target":34962,"byteStride":12},{"buffer":0,"byteOffset":1320,"byteLength":480,"target":34962,"byteStride":12},{"buffer":0,"byteOffset":1800,"byteLength":320,"target":34962,"byteStride":8},{"buffer":0,"byteOffset":2120,"byteLength":120,"target":34963},{"buffer":0,"byteOffset":2240,"byteLength":480,"target":34962,"byteStride":12},{"buffer":0,"byteOffset":2720,"byteLength":480,"target":34962,"byteStride":12},{"buffer":0,"byteOffset":3200,"byteLength":320,"target":34962,"byteStride":8},{"buffer":0,"byteOffset":3520,"byteLength":120,"target":34963},{"buffer":0,"byteOffset":3640,"byteLength":480,"target":34962,"byteStride":12},{"buffer":0,"byteOffset":4120,"byteLength":480,"target":34962,"byteStride":12},{"buffer":0,"byteOffset":4600,"byteLength":320,"target":34962,"byteStride":8},{"buffer":0,"byteOffset":4920,"byteLength":120,"target":34963},{"buffer":0,"byteOffset":5040,"byteLength":1392,"target":34962,"byteStride":12},{"buffer":0,"byteOffset":6432,"byteLength":1392,"target":34962,"byteStride":12},{"buffer":0,"byteOffset":7824,"byteLength":928,"target":34962,"byteStride":8},{"buffer":0,"byteOffset":8752,"byteLength":288,"target":34963},{"buffer":0,"byteOffset":9040,"byteLength":1392,"target":34962,"byteStride":12},{"buffer":0,"byteOffset":10432,"byteLength":1392,"target":34962,"byteStride":12},{"buffer":0,"byteOffset":11824,"byteLength":928,"target":34962,"byteStride":8},{"buffer":0,"byteOffset":12752,"byteLength":288,"target":34963},{"buffer":0,"byteOffset":13040,"byteLength":1392,"target":34962,"byteStride":12},{"buffer":0,"byteOffset":14432,"byteLength":1392,"target":34962,"byteStride":12},{"buffer":0,"byteOffset":15824,"byteLength":928,"target":34962,"byteStride":8},{"buffer":0,"byteOffset":16752,"byteLength":288,"target":34963},{"buffer":0,"byteOffset":17040,"byteLength":1392,"target":34962,"byteStride":12},{"buffer":0,"byteOffset":18432,"byteLength":1392,"target":34962,"byteStride":12},{"buffer":0,"byteOffset":19824,"byteLength":928,"target":34962,"byteStride":8},{"buffer":0,"byteOffset":20752,"byteLength":288,"target":34963},{"buffer":0,"byteOffset":21040,"byteLength":720,"target":34962,"byteStride":12},{"buffer":0,"byteOffset":21760,"byteLength":720,"target":34962,"byteStride":12},{"buffer":0,"byteOffset":22480,"byteLength":480,"target":34962,"byteStride":8},{"buffer":0,"byteOffset":22960,"byteLength":180,"target":34963},{"buffer":0,"byteOffset":23140,"byteLength":720,"target":34962,"byteStride":12},{"buffer":0,"byteOffset":23860,"byteLength":720,"target":34962,"byteStride":12},{"buffer":0,"byteOffset":24580,"byteLength":480,"target":34962,"byteStride":8},{"buffer":0,"byteOffset":25060,"byteLength":180,"target":34963},{"buffer":0,"byteOffset":25240,"byteLength":480,"target":34962,"byteStride":12},{"buffer":0,"byteOffset":25720,"byteLength":480,"target":34962,"byteStride":12},{"buffer":0,"byteOffset":26200,"byteLength":320,"target":34962,"byteStride":8},{"buffer":0,"byteOffset":26520,"byteLength":120,"target":34963},{"buffer":0,"byteOffset":26640,"byteLength":784},{"buffer":0,"byteOffset":27424,"byteLength":3136},{"buffer":0,"byteOffset":30560,"byteLength":784},{"buffer":0,"byteOffset":31344,"byteLength":3136},{"buffer":0,"byteOffset":34480,"byteLength":784},{"buffer":0,"byteOffset":35264,"byteLength":3136},{"buffer":0,"byteOffset":38400,"byteLength":784},{"buffer":0,"byteOffset":39184,"byteLength":3136},{"buffer":0,"byteOffset":42320,"byteLength":784},{"buffer":0,"byteOffset":43104,"byteLength":3136},{"buffer":0,"byteOffset":46240,"byteLength":784},{"buffer":0,"byteOffset":47024,"byteLength":3136},{"buffer":0,"byteOffset":50160,"byteLength":784},{"buffer":0,"byteOffset":50944,"byteLength":3136},{"buffer":0,"byteOffset":54080,"byteLength":784},{"buffer":0,"byteOffset":54864,"byteLength":3136},{"buffer":0,"byteOffset":58000,"byteLength":784},{"buffer":0,"byteOffset":58784,"byteLength":3136},{"buffer":0,"byteOffset":61920,"byteLength":784},{"buffer":0,"byteOffset":62704,"byteLength":3136}],"buffers":[{"byteLength":65840,"uri":"data:application/octet-stream;base64,"}],"accessors":[{"bufferView":0,"componentType":5126,"count":24,"max":[0.09375,0.15625,0.09375],"min":[-0.09375,-0.15625,-0.09375],"type":"VEC3"},{"bufferView":1,"componentType":5126,"count":24,"max":[1,1,1],"min":[-1,-1,-1],"type":"VEC3"},{"bufferView":2,"componentType":5126,"count":24,"max":[0.5,0.59375],"min":[0,0.1875],"type":"VEC2"},{"bufferView":3,"componentType":5123,"count":36,"max":[23],"min":[0],"type":"SCALAR"},{"bufferView":4,"componentType":5126,"count":40,"max":[2.397012224264472e-7,1.4434846639633179,0.21875],"min":[-0.17924240231513977,0.875,-0.34375],"type":"VEC3"},{"bufferView":5,"componentType":5126,"count":40,"max":[1,0.5735764503479004,0],"min":[0.8191520571708679,0,-7.894919477393966e-17],"type":"VEC3"},{"bufferView":6,"componentType":5126,"count":40,"max":[0.59375,1],"min":[0,0],"type":"VEC2"},{"bufferView":7,"componentType":5123,"count":60,"max":[39],"min":[0],"type":"SCALAR"},{"bufferView":8,"componentType":5126,"count":40,"max":[2.397012224264472e-7,1.4434846639633179,0.34375],"min":[-0.17924240231513977,0.875,-0.21875],"type":"VEC3"},{"bufferView":9,"componentType":5126,"count":40,"max":[1,0.5735764503479004,8.083924291661922e-17],"min":[0.8191520571708679,0,0],"type":"VEC3"},{"bufferView":10,"componentType":5126,"count":40,"max":[0.59375,1],"min":[0,0],"type":"VEC2"},{"bufferView":11,"componentType":5123,"count":60,"max":[39],"min":[0],"type":"SCALAR"},{"bufferView":12,"componentType":5126,"count":40,"max":[2.397012224264472e-7,1.4434846639633179,0.34375],"min":[-0.17924240231513977,0.875,-0.21875],"type":"VEC3"},{"bufferView":13,"componentType":5126,"count":40,"max":[1,0.5735764503479004,0],"min":[0.8191520571708679,0,0],"type":"VEC3"},{"bufferView":14,"componentType":5126,"count":40,"max":[0.59375,1],"min":[0,0],"type":"VEC2"},{"bufferView":15,"componentType":5123,"count":60,"max":[39],"min":[0],"type":"SCALAR"},{"bufferView":16,"componentType":5126,"count":116,"max":[0.0625,1.4310979843139648,0.40625],"min":[-0.4027009904384613,0.3125,-0.28125],"type":"VEC3"},{"bufferView":17,"componentType":5126,"count":116,"max":[1,1,1],"min":[-0.8660253882408142,-0.9063078165054321,-1],"type":"VEC3"},{"bufferView":18,"componentType":5126,"count":116,"max":[1,1],"min":[0,0],"type":"VEC2"},{"bufferView":19,"componentType":5123,"count":144,"max":[115],"min":[0],"type":"SCALAR"},{"bufferView":20,"componentType":5126,"count":116,"max":[0.4027009904384613,1.4310979843139648,0.40625],"min":[-0.0625,0.3125,-0.28125],"type":"VEC3"},{"bufferView":21,"componentType":5126,"count":116,"max":[1,1,1],"min":[-0.9838699102401733,-0.9063078165054321,-1],"type":"VEC3"},{"bufferView":22,"componentType":5126,"count":116,"max":[1,1],"min":[0,0],"type":"VEC2"},{"bufferView":23,"componentType":5123,"count":144,"max":[115],"min":[0],"type":"SCALAR"},{"bufferView":24,"componentType":5126,"count":116,"max":[0.4027009904384613,1.4310979843139648,0.28125],"min":[-0.0625,0.3125,-0.40625],"type":"VEC3"},{"bufferView":25,"componentType":5126,"count":116,"max":[1,1,1],"min":[-0.9838699102401733,-0.9063078165054321,-1],"type":"VEC3"},{"bufferView":26,"componentType":5126,"count":116,"max":[1,1],"min":[0,0],"type":"VEC2"},{"bufferView":27,"componentType":5123,"count":144,"max":[115],"min":[0],"type":"SCALAR"},{"bufferView":28,"componentType":5126,"count":116,"max":[0.4027009904384613,1.4310979843139648,0.40625],"min":[-0.0625,0.3125,-0.28125],"type":"VEC3"},{"bufferView":29,"componentType":5126,"count":116,"max":[1,1,1],"min":[-0.9838699102401733,-0.9063078165054321,-1],"type":"VEC3"},{"bufferView":30,"componentType":5126,"count":116,"max":[1,1],"min":[0,0],"type":"VEC2"},{"bufferView":31,"componentType":5123,"count":144,"max":[115],"min":[0],"type":"SCALAR"},{"bufferView":32,"componentType":5126,"count":60,"max":[0,1.5061522722244263,0.40625],"min":[-0.23554344475269318,0.3125,-0.28125],"type":"VEC3"},{"bufferView":33,"componentType":5126,"count":60,"max":[1,0.537299633026123,2.40868059293186e-16],"min":[0.8433914184570312,0,0],"type":"VEC3"},{"bufferView":34,"componentType":5126,"count":60,"max":[1,1],"min":[0,0],"type":"VEC2"},{"bufferView":35,"componentType":5123,"count":90,"max":[59],"min":[0],"type":"SCALAR"},{"bufferView":36,"componentType":5126,"count":60,"max":[0.23554344475269318,1.5061522722244263,0.28125],"min":[0,0.3125,-0.40625],"type":"VEC3"},{"bufferView":37,"componentType":5126,"count":60,"max":[1,0.537299633026123,0],"min":[-1,0,-2.40868059293186e-16],"type":"VEC3"},{"bufferView":38,"componentType":5126,"count":60,"max":[1,1],"min":[0,0],"type":"VEC2"},{"bufferView":39,"componentType":5123,"count":90,"max":[59],"min":[0],"type":"SCALAR"},{"bufferView":40,"componentType":5126,"count":40,"max":[0.17924240231513977,1.4434846639633179,0.34375],"min":[-2.397012224264472e-7,0.875,-0.21875],"type":"VEC3"},{"bufferView":41,"componentType":5126,"count":40,"max":[1,0.5735764503479004,0],"min":[-1,0,0],"type":"VEC3"},{"bufferView":42,"componentType":5126,"count":40,"max":[0.59375,1],"min":[0,0],"type":"VEC2"},{"bufferView":43,"componentType":5123,"count":60,"max":[39],"min":[0],"type":"SCALAR"},{"bufferView":44,"componentType":5126,"count":196,"max":[5.983333110809326],"min":[0],"type":"SCALAR"},{"bufferView":45,"componentType":5126,"count":196,"max":[-0.2748449742794037,-0.6428487300872803,0.2947242856025696,0.6515958309173584],"min":[-0.2947242856025696,-0.6515964269638062,0.2748449742794037,0.6428484916687012],"type":"VEC4"},{"bufferView":46,"componentType":5126,"count":196,"max":[5.983333110809326],"min":[0],"type":"SCALAR"},{"bufferView":47,"componentType":5126,"count":196,"max":[0.2947242856025696,0.6515958309173584,0.29472535848617554,0.6515958309173584],"min":[0.27484405040740967,0.6428487300872803,0.2748449742794037,0.6428487300872803],"type":"VEC4"},{"bufferView":48,"componentType":5126,"count":196,"max":[5.983333110809326],"min":[0],"type":"SCALAR"},{"bufferView":49,"componentType":5126,"count":196,"max":[0.007987351156771183,0.0035170414485037327,0.41071102023124695,0.9187737107276917],"min":[-0.007987351156771183,-0.0035170414485037327,0.3947363495826721,0.9117447137832642],"type":"VEC4"},{"bufferView":50,"componentType":5126,"count":196,"max":[5.983333110809326],"min":[0],"type":"SCALAR"},{"bufferView":51,"componentType":5126,"count":196,"max":[0.008428589440882206,0.0022631757892668247,0.267233282327652,0.9681292176246643],"min":[-0.008428589440882206,-0.0022631757892668247,0.25037524104118347,0.9636120796203613],"type":"VEC4"},{"bufferView":52,"componentType":5126,"count":196,"max":[5.983333110809326],"min":[0],"type":"SCALAR"},{"bufferView":53,"componentType":5126,"count":196,"max":[0.008428589440882206,0.0022631757892668247,-0.25037524104118347,0.9681292176246643],"min":[-0.008428589440882206,-0.0022631757892668247,-0.267233282327652,0.9636120796203613],"type":"VEC4"},{"bufferView":54,"componentType":5126,"count":196,"max":[5.983333110809326],"min":[0],"type":"SCALAR"},{"bufferView":55,"componentType":5126,"count":196,"max":[-0.17252321541309357,0.685822606086731,-0.17252221703529358,0.685822606086731],"min":[-0.19350290298461914,0.6802014112472534,-0.193501815199852,0.6802014112472534],"type":"VEC4"},{"bufferView":56,"componentType":5126,"count":196,"max":[5.983333110809326],"min":[0],"type":"SCALAR"},{"bufferView":57,"componentType":5126,"count":196,"max":[0.193501815199852,-0.6802012920379639,-0.17252321541309357,0.6858230829238892],"min":[0.17252321541309357,-0.685822606086731,-0.193501815199852,0.6802014112472534],"type":"VEC4"},{"bufferView":58,"componentType":5126,"count":196,"max":[5.983333110809326],"min":[0],"type":"SCALAR"},{"bufferView":59,"componentType":5126,"count":196,"max":[0.11101777851581573,0.9194992780685425,0.05149105563759804,0.3815152645111084],"min":[0.09013482183218002,0.917212188243866,0.03183853253722191,0.37936219573020935],"type":"VEC4"},{"bufferView":60,"componentType":5126,"count":196,"max":[5.983333110809326],"min":[0],"type":"SCALAR"},{"bufferView":61,"componentType":5126,"count":196,"max":[-0.09013482183218002,0.9194992780685425,-0.03183853253722191,0.3815152645111084],"min":[-0.11101777851581573,0.917212188243866,-0.05149105563759804,0.37936219573020935],"type":"VEC4"},{"bufferView":62,"componentType":5126,"count":196,"max":[5.983333110809326],"min":[0],"type":"SCALAR"},{"bufferView":63,"componentType":5126,"count":196,"max":[0.007987351156771183,0.0035170414485037327,-0.3947363495826721,0.9187737107276917],"min":[-0.007987351156771183,-0.0035170414485037327,-0.41071102023124695,0.9117447137832642],"type":"VEC4"}],"materials":[{"pbrMetallicRoughness":{"metallicFactor":0,"roughnessFactor":1,"baseColorTexture":{"index":0}},"alphaMode":"MASK","alphaCutoff":0.05,"doubleSided":true}],"textures":[{"sampler":0,"source":0,"name":"palm_bush"}],"samplers":[{"magFilter":9728,"minFilter":9728,"wrapS":33071,"wrapT":33071}],"images":[{"mimeType":"image/png","uri":"data:image/png;base64,"}],"meshes":[{"primitives":[{"mode":4,"attributes":{"POSITION":0,"NORMAL":1,"TEXCOORD_0":2},"indices":3,"material":0}]},{"primitives":[{"mode":4,"attributes":{"POSITION":4,"NORMAL":5,"TEXCOORD_0":6},"indices":7,"material":0}]},{"primitives":[{"mode":4,"attributes":{"POSITION":8,"NORMAL":9,"TEXCOORD_0":10},"indices":11,"material":0}]},{"primitives":[{"mode":4,"attributes":{"POSITION":12,"NORMAL":13,"TEXCOORD_0":14},"indices":15,"material":0}]},{"primitives":[{"mode":4,"attributes":{"POSITION":16,"NORMAL":17,"TEXCOORD_0":18},"indices":19,"material":0}]},{"primitives":[{"mode":4,"attributes":{"POSITION":20,"NORMAL":21,"TEXCOORD_0":22},"indices":23,"material":0}]},{"primitives":[{"mode":4,"attributes":{"POSITION":24,"NORMAL":25,"TEXCOORD_0":26},"indices":27,"material":0}]},{"primitives":[{"mode":4,"attributes":{"POSITION":28,"NORMAL":29,"TEXCOORD_0":30},"indices":31,"material":0}]},{"primitives":[{"mode":4,"attributes":{"POSITION":32,"NORMAL":33,"TEXCOORD_0":34},"indices":35,"material":0}]},{"primitives":[{"mode":4,"attributes":{"POSITION":36,"NORMAL":37,"TEXCOORD_0":38},"indices":39,"material":0}]},{"primitives":[{"mode":4,"attributes":{"POSITION":40,"NORMAL":41,"TEXCOORD_0":42},"indices":43,"material":0}]}],"animations":[{"name":"idle","samplers":[{"input":44,"output":45,"interpolation":"LINEAR"},{"input":46,"output":47,"interpolation":"LINEAR"},{"input":48,"output":49,"interpolation":"LINEAR"},{"input":50,"output":51,"interpolation":"LINEAR"},{"input":52,"output":53,"interpolation":"LINEAR"},{"input":54,"output":55,"interpolation":"LINEAR"},{"input":56,"output":57,"interpolation":"LINEAR"},{"input":58,"output":59,"interpolation":"LINEAR"},{"input":60,"output":61,"interpolation":"LINEAR"},{"input":62,"output":63,"interpolation":"LINEAR"}],"channels":[{"sampler":0,"target":{"node":2,"path":"rotation"}},{"sampler":1,"target":{"node":4,"path":"rotation"}},{"sampler":2,"target":{"node":6,"path":"rotation"}},{"sampler":3,"target":{"node":8,"path":"rotation"}},{"sampler":4,"target":{"node":10,"path":"rotation"}},{"sampler":5,"target":{"node":12,"path":"rotation"}},{"sampler":6,"target":{"node":14,"path":"rotation"}},{"sampler":7,"target":{"node":16,"path":"rotation"}},{"sampler":8,"target":{"node":18,"path":"rotation"}},{"sampler":9,"target":{"node":20,"path":"rotation"}}]}]}