{"asset":{"version":"2.0","generator":"Blockbench 5.0.3 glTF exporter"},"scenes":[{"nodes":[5],"name":"blockbench_export"}],"scene":0,"nodes":[{"rotation":[0,0,0.043619387365336,0.9990482215818578],"name":"cube","mesh":0},{"rotation":[0.3127453320959721,0.6341847973991336,-0.10756747795195015,0.6988771263155324],"translation":[-0.5624142228030218,-0.29751373733882414,0.009569375091181942],"name":"cube","mesh":1},{"rotation":[-0.12059079839851647,0.3794093809983454,-0.04994999739587966,0.9159756430780307],"translation":[-0.31922625000000004,6.401467826944986,-0.6329812846565472],"name":"leaf-2","children":[1]},{"rotation":[-0.12900706449821545,0.019856086346990206,0.15082194953277658,0.9799059407329188],"name":"cube","mesh":2},{"translation":[-0.3131706249999999,5.989987853285166,-0.7770650924922278],"name":"leaf-1","children":[3]},{"translation":[-0.3125,0,0],"name":"palm-5","children":[0,2,4]}],"bufferViews":[{"buffer":0,"byteOffset":0,"byteLength":2832,"target":34962,"byteStride":12},{"buffer":0,"byteOffset":2832,"byteLength":2832,"target":34962,"byteStride":12},{"buffer":0,"byteOffset":5664,"byteLength":1888,"target":34962,"byteStride":8},{"buffer":0,"byteOffset":7552,"byteLength":708,"target":34963},{"buffer":0,"byteOffset":8260,"byteLength":2304,"target":34962,"byteStride":12},{"buffer":0,"byteOffset":10564,"byteLength":2304,"target":34962,"byteStride":12},{"buffer":0,"byteOffset":12868,"byteLength":1536,"target":34962,"byteStride":8},{"buffer":0,"byteOffset":14404,"byteLength":576,"target":34963},{"buffer":0,"byteOffset":14980,"byteLength":2304,"target":34962,"byteStride":12},{"buffer":0,"byteOffset":17284,"byteLength":2304,"target":34962,"byteStride":12},{"buffer":0,"byteOffset":19588,"byteLength":1536,"target":34962,"byteStride":8},{"buffer":0,"byteOffset":21124,"byteLength":576,"target":34963},{"buffer":0,"byteOffset":21700,"byteLength":784},{"buffer":0,"byteOffset":22484,"byteLength":3136},{"buffer":0,"byteOffset":25620,"byteLength":784},{"buffer":0,"byteOffset":26404,"byteLength":3136}],"buffers":[{"byteLength":29540,"uri":"data:application/octet-stream;base64,"}],"accessors":[{"bufferView":0,"componentType":5126,"count":236,"max":[0.9404169321060181,6.64423131942749,0.462393581867218],"min":[-0.5209987163543701,-0.06534607708454132,-1.2741764783859253],"type":"VEC3"},{"bufferView":1,"componentType":5126,"count":236,"max":[1,0.9990482330322266,1],"min":[-1,-0.9961947202682495,-1],"type":"VEC3"},{"bufferView":2,"componentType":5126,"count":236,"max":[0.75,0.515625],"min":[0,0],"type":"VEC2"},{"bufferView":3,"componentType":5123,"count":354,"max":[235],"min":[0],"type":"SCALAR"},{"bufferView":4,"componentType":5126,"count":192,"max":[3.275068521499634,2.8934836387634277,2.464749336242676],"min":[-2.621964454650879,-0.872109591960907,-2.7526979446411133],"type":"VEC3"},{"bufferView":5,"componentType":5126,"count":192,"max":[0.7660142183303833,1,0.9174181818962097],"min":[-0.7660142183303833,-1,-0.9174181818962097],"type":"VEC3"},{"bufferView":6,"componentType":5126,"count":192,"max":[0.4140625,0.75],"min":[0.015625,0.375],"type":"VEC2"},{"bufferView":7,"componentType":5123,"count":288,"max":[191],"min":[0],"type":"SCALAR"},{"bufferView":8,"componentType":5126,"count":192,"max":[2.7698020935058594,0.7950221300125122,3.2525627613067627],"min":[-3.1282143592834473,-1.5680090188980103,-2.7441792488098145],"type":"VEC3"},{"bufferView":9,"componentType":5126,"count":192,"max":[0.7643728852272034,1,0.5825638771057129],"min":[-0.7643728852272034,-1,-0.5825638771057129],"type":"VEC3"},{"bufferView":10,"componentType":5126,"count":192,"max":[0.4140625,0.75],"min":[0.015625,0.375],"type":"VEC2"},{"bufferView":11,"componentType":5123,"count":288,"max":[191],"min":[0],"type":"SCALAR"},{"bufferView":12,"componentType":5126,"count":196,"max":[5.983333110809326],"min":[0],"type":"SCALAR"},{"bufferView":13,"componentType":5126,"count":196,"max":[-0.11078644543886185,0.3808101415634155,-0.03953986614942551,0.9172362089157104],"min":[-0.1303873360157013,0.37806808948516846,-0.06036795675754547,0.9146552681922913],"type":"VEC4"},{"bufferView":14,"componentType":5126,"count":196,"max":[5.983333110809326],"min":[0],"type":"SCALAR"},{"bufferView":15,"componentType":5126,"count":196,"max":[0.00872520636767149,0.000058618745242711157,0.008726369589567184,1],"min":[-0.00872520636767149,-0.000058618745242711157,-0.008726369589567184,0.9999405145645142],"type":"VEC4"}],"materials":[{"pbrMetallicRoughness":{"metallicFactor":0,"roughnessFactor":1,"baseColorTexture":{"index":0}},"alphaMode":"MASK","alphaCutoff":0.05,"doubleSided":true}],"textures":[{"sampler":0,"source":0,"name":"Palm.png"}],"samplers":[{"magFilter":9728,"minFilter":9728,"wrapS":33071,"wrapT":33071}],"images":[{"mimeType":"image/png","uri":"data:image/png;base64,"}],"meshes":[{"primitives":[{"mode":4,"attributes":{"POSITION":0,"NORMAL":1,"TEXCOORD_0":2},"indices":3,"material":0}]},{"primitives":[{"mode":4,"attributes":{"POSITION":4,"NORMAL":5,"TEXCOORD_0":6},"indices":7,"material":0}]},{"primitives":[{"mode":4,"attributes":{"POSITION":8,"NORMAL":9,"TEXCOORD_0":10},"indices":11,"material":0}]}],"animations":[{"name":"idle","samplers":[{"input":12,"output":13,"interpolation":"LINEAR"},{"input":14,"output":15,"interpolation":"LINEAR"}],"channels":[{"sampler":0,"target":{"node":2,"path":"rotation"}},{"sampler":1,"target":{"node":4,"path":"rotation"}}]}]}