{"asset":{"version":"2.0","generator":"Blockbench 5.0.3 glTF exporter"},"scenes":[{"nodes":[5],"name":"blockbench_export"}],"scene":0,"nodes":[{"rotation":[0.033138717533691894,-0.9387925893566477,-0.1249668670847241,0.3193017095167073],"translation":[-0.016528750000000002,5.564551875,0.186340625],"name":"cube","mesh":0},{"rotation":[0.2233516790838188,-0.08129336295988718,0.33221855393578337,0.9127629752624324],"name":"cube","mesh":1},{"translation":[-0.4872310143061042,5.823101453943873,-0.40746158478632194],"name":"leaf-1","children":[1]},{"rotation":[0.5296873222254544,-0.4351174893816077,0.3115552866583516,0.6580557837015844],"translation":[0.3924391254273153,0.028215024764222107,-0.37801969624664744],"name":"cube","mesh":2},{"translation":[-0.6563815965288599,6.075321459376463,0.008220628730022772],"name":"leaf-2","children":[3]},{"translation":[0.00011875,0.4980975,0.00011875],"name":"palm-2","children":[0,2,4]}],"bufferViews":[{"buffer":0,"byteOffset":0,"byteLength":3120,"target":34962,"byteStride":12},{"buffer":0,"byteOffset":3120,"byteLength":3120,"target":34962,"byteStride":12},{"buffer":0,"byteOffset":6240,"byteLength":2080,"target":34962,"byteStride":8},{"buffer":0,"byteOffset":8320,"byteLength":780,"target":34963},{"buffer":0,"byteOffset":9100,"byteLength":2304,"target":34962,"byteStride":12},{"buffer":0,"byteOffset":11404,"byteLength":2304,"target":34962,"byteStride":12},{"buffer":0,"byteOffset":13708,"byteLength":1536,"target":34962,"byteStride":8},{"buffer":0,"byteOffset":15244,"byteLength":576,"target":34963},{"buffer":0,"byteOffset":15820,"byteLength":2304,"target":34962,"byteStride":12},{"buffer":0,"byteOffset":18124,"byteLength":2304,"target":34962,"byteStride":12},{"buffer":0,"byteOffset":20428,"byteLength":1536,"target":34962,"byteStride":8},{"buffer":0,"byteOffset":21964,"byteLength":576,"target":34963},{"buffer":0,"byteOffset":22540,"byteLength":784},{"buffer":0,"byteOffset":23324,"byteLength":3136},{"buffer":0,"byteOffset":26460,"byteLength":784},{"buffer":0,"byteOffset":27244,"byteLength":3136}],"buffers":[{"byteLength":30380,"uri":"data:application/octet-stream;base64,"}],"accessors":[{"bufferView":0,"componentType":5126,"count":260,"max":[1.2577881813049316,0.8829506039619446,1.3144031763076782],"min":[-0.8800456523895264,-6.015162944793701,-1.6763206720352173],"type":"VEC3"},{"bufferView":1,"componentType":5126,"count":260,"max":[1,1,1],"min":[-1,-1,-1],"type":"VEC3"},{"bufferView":2,"componentType":5126,"count":260,"max":[0.75,0.515625],"min":[0,0],"type":"VEC2"},{"bufferView":3,"componentType":5123,"count":390,"max":[259],"min":[0],"type":"SCALAR"},{"bufferView":4,"componentType":5126,"count":192,"max":[2.8056602478027344,1.0271341800689697,3.1854114532470703],"min":[-2.9536893367767334,-1.5368688106536865,-2.7505593299865723],"type":"VEC3"},{"bufferView":5,"componentType":5126,"count":192,"max":[0.7643725872039795,1,0.5825636386871338],"min":[-0.7643725872039795,-1,-0.5825636386871338],"type":"VEC3"},{"bufferView":6,"componentType":5126,"count":192,"max":[0.4140625,0.75],"min":[0.015625,0.375],"type":"VEC2"},{"bufferView":7,"componentType":5123,"count":288,"max":[191],"min":[0],"type":"SCALAR"},{"bufferView":8,"componentType":5126,"count":192,"max":[3.121196985244751,3.1864750385284424,1.6276576519012451],"min":[-2.3737874031066895,-0.8394781351089478,-2.7505593299865723],"type":"VEC3"},{"bufferView":9,"componentType":5126,"count":192,"max":[0.8314813375473022,1,0.972581148147583],"min":[-0.8314813375473022,-1,-0.972581148147583],"type":"VEC3"},{"bufferView":10,"componentType":5126,"count":192,"max":[0.4140625,0.75],"min":[0.015625,0.375],"type":"VEC2"},{"bufferView":11,"componentType":5123,"count":288,"max":[191],"min":[0],"type":"SCALAR"},{"bufferView":12,"componentType":5126,"count":196,"max":[5.983333110809326],"min":[0],"type":"SCALAR"},{"bufferView":13,"componentType":5126,"count":196,"max":[0.00872520636767149,0.000058618745242711157,0.008726369589567184,1],"min":[-0.00872520636767149,-0.000058618745242711157,-0.008726369589567184,0.9999405145645142],"type":"VEC4"},{"bufferView":14,"componentType":5126,"count":196,"max":[5.983333110809326],"min":[0],"type":"SCALAR"},{"bufferView":15,"componentType":5126,"count":196,"max":[0.00872520636767149,0.000058618745242711157,0.008726369589567184,1],"min":[-0.00872520636767149,-0.000058618745242711157,-0.008726369589567184,0.9999405145645142],"type":"VEC4"}],"materials":[{"pbrMetallicRoughness":{"metallicFactor":0,"roughnessFactor":1,"baseColorTexture":{"index":0}},"alphaMode":"MASK","alphaCutoff":0.05,"doubleSided":true}],"textures":[{"sampler":0,"source":0,"name":"Palm.png"}],"samplers":[{"magFilter":9728,"minFilter":9728,"wrapS":33071,"wrapT":33071}],"images":[{"mimeType":"image/png","uri":"data:image/png;base64,"}],"meshes":[{"primitives":[{"mode":4,"attributes":{"POSITION":0,"NORMAL":1,"TEXCOORD_0":2},"indices":3,"material":0}]},{"primitives":[{"mode":4,"attributes":{"POSITION":4,"NORMAL":5,"TEXCOORD_0":6},"indices":7,"material":0}]},{"primitives":[{"mode":4,"attributes":{"POSITION":8,"NORMAL":9,"TEXCOORD_0":10},"indices":11,"material":0}]}],"animations":[{"name":"idle","samplers":[{"input":12,"output":13,"interpolation":"LINEAR"},{"input":14,"output":15,"interpolation":"LINEAR"}],"channels":[{"sampler":0,"target":{"node":2,"path":"rotation"}},{"sampler":1,"target":{"node":4,"path":"rotation"}}]}]}