{"asset":{"version":"2.0","generator":"Blockbench 5.0.3 glTF exporter"},"scenes":[{"nodes":[7],"name":"blockbench_export"}],"scene":0,"nodes":[{"rotation":[0,0,0.043619387365336,0.9990482215818578],"name":"cube","mesh":0},{"rotation":[0.3401104201774683,0.6199394342084603,-0.13794968964147145,0.6935199226610738],"translation":[-0.5875716280511547,-0.27868557344696043,0.00956937511167476],"name":"cube","mesh":1},{"rotation":[0,0.3826834323650898,0,0.9238795325112867],"translation":[0.30577375,11.746599374999999,-0.005842499999999987],"name":"leaf-2","children":[1]},{"rotation":[0.48897357102267397,0.510788456057235,-0.312745332095972,0.6341847973991337],"translation":[-0.6963418636582273,-0.12725047229031183,0.00956937509118204],"name":"cube","mesh":2},{"rotation":[0,0.06540312923014306,0,0.9978589232386035],"translation":[0.30577375,11.746599374999999,-0.005842499999999987],"name":"leaf-3","children":[3]},{"rotation":[0,0,0.1521233861899167,0.9883615104677607],"name":"cube","mesh":3},{"translation":[0.311829375,11.386431875,-0.251515625],"name":"leaf-1","children":[5]},{"translation":[-0.3125,0,0],"name":"palm-3","children":[0,2,4,6]}],"bufferViews":[{"buffer":0,"byteOffset":0,"byteLength":3840,"target":34962,"byteStride":12},{"buffer":0,"byteOffset":3840,"byteLength":3840,"target":34962,"byteStride":12},{"buffer":0,"byteOffset":7680,"byteLength":2560,"target":34962,"byteStride":8},{"buffer":0,"byteOffset":10240,"byteLength":960,"target":34963},{"buffer":0,"byteOffset":11200,"byteLength":2304,"target":34962,"byteStride":12},{"buffer":0,"byteOffset":13504,"byteLength":2304,"target":34962,"byteStride":12},{"buffer":0,"byteOffset":15808,"byteLength":1536,"target":34962,"byteStride":8},{"buffer":0,"byteOffset":17344,"byteLength":576,"target":34963},{"buffer":0,"byteOffset":17920,"byteLength":2304,"target":34962,"byteStride":12},{"buffer":0,"byteOffset":20224,"byteLength":2304,"target":34962,"byteStride":12},{"buffer":0,"byteOffset":22528,"byteLength":1536,"target":34962,"byteStride":8},{"buffer":0,"byteOffset":24064,"byteLength":576,"target":34963},{"buffer":0,"byteOffset":24640,"byteLength":2304,"target":34962,"byteStride":12},{"buffer":0,"byteOffset":26944,"byteLength":2304,"target":34962,"byteStride":12},{"buffer":0,"byteOffset":29248,"byteLength":1536,"target":34962,"byteStride":8},{"buffer":0,"byteOffset":30784,"byteLength":576,"target":34963},{"buffer":0,"byteOffset":31360,"byteLength":784},{"buffer":0,"byteOffset":32144,"byteLength":3136},{"buffer":0,"byteOffset":35280,"byteLength":784},{"buffer":0,"byteOffset":36064,"byteLength":3136},{"buffer":0,"byteOffset":39200,"byteLength":784},{"buffer":0,"byteOffset":39984,"byteLength":3136}],"buffers":[{"byteLength":43120,"uri":"data:application/octet-stream;base64,"}],"accessors":[{"bufferView":0,"componentType":5126,"count":320,"max":[2.085186243057251,11.96496295928955,0.7122355699539185],"min":[-0.06273692846298218,-0.06534607708454132,-0.8069534301757812],"type":"VEC3"},{"bufferView":1,"componentType":5126,"count":320,"max":[1,0.9961947202682495,1],"min":[-1,-0.9961947202682495,-1],"type":"VEC3"},{"bufferView":2,"componentType":5126,"count":320,"max":[0.75,0.515625],"min":[0,0],"type":"VEC2"},{"bufferView":3,"componentType":5123,"count":480,"max":[319],"min":[0],"type":"SCALAR"},{"bufferView":4,"componentType":5126,"count":192,"max":[3.2639172077178955,3.1998040676116943,2.0122179985046387],"min":[-2.4947001934051514,-0.8394780158996582,-2.750559091567993],"type":"VEC3"},{"bufferView":5,"componentType":5126,"count":192,"max":[0.8110818266868591,1,0.9614638686180115],"min":[-0.8110818266868591,-1,-0.9614638686180115],"type":"VEC3"},{"bufferView":6,"componentType":5126,"count":192,"max":[0.4140625,0.75],"min":[0.015625,0.375],"type":"VEC2"},{"bufferView":7,"componentType":5123,"count":288,"max":[191],"min":[0],"type":"SCALAR"},{"bufferView":8,"componentType":5126,"count":192,"max":[2.622931480407715,3.480119466781616,0.3869200050830841],"min":[-1.7526123523712158,-0.8394780158996582,-2.750559091567993],"type":"VEC3"},{"bufferView":9,"componentType":5126,"count":192,"max":[0.9732404947280884,1,0.8925396800041199],"min":[-0.9732404947280884,-1,-0.8925396800041199],"type":"VEC3"},{"bufferView":10,"componentType":5126,"count":192,"max":[0.4140625,0.75],"min":[0.015625,0.375],"type":"VEC2"},{"bufferView":11,"componentType":5123,"count":288,"max":[191],"min":[0],"type":"SCALAR"},{"bufferView":12,"componentType":5126,"count":192,"max":[2.777120590209961,0.8240598440170288,3.2419052124023438],"min":[-3.1168160438537598,-1.5376850366592407,-2.750559091567993],"type":"VEC3"},{"bufferView":13,"componentType":5126,"count":192,"max":[0.7643728852272034,1,0.5825638771057129],"min":[-0.7643728852272034,-1,-0.5825638771057129],"type":"VEC3"},{"bufferView":14,"componentType":5126,"count":192,"max":[0.4140625,0.75],"min":[0.015625,0.375],"type":"VEC2"},{"bufferView":15,"componentType":5123,"count":288,"max":[191],"min":[0],"type":"SCALAR"},{"bufferView":16,"componentType":5126,"count":196,"max":[5.983333110809326],"min":[0],"type":"SCALAR"},{"bufferView":17,"componentType":5126,"count":196,"max":[0.009885015897452831,0.3827149569988251,0.010503907687962055,0.9238795042037964],"min":[-0.009885015897452831,0.3826065957546234,-0.010503907687962055,0.9238021969795227],"type":"VEC4"},{"bufferView":18,"componentType":5126,"count":196,"max":[5.983333110809326],"min":[0],"type":"SCALAR"},{"bufferView":19,"componentType":5126,"count":196,"max":[0.008780998177826405,0.06545775383710861,0.009111248888075352,0.9978589415550232],"min":[-0.008780998177826405,0.06534076482057571,-0.009112920612096786,0.9977957606315613],"type":"VEC4"},{"bufferView":20,"componentType":5126,"count":196,"max":[5.983333110809326],"min":[0],"type":"SCALAR"},{"bufferView":21,"componentType":5126,"count":196,"max":[0.00872520636767149,0.000058618745242711157,0.008726369589567184,1],"min":[-0.00872520636767149,-0.000058618745242711157,-0.008726369589567184,0.9999405145645142],"type":"VEC4"}],"materials":[{"pbrMetallicRoughness":{"metallicFactor":0,"roughnessFactor":1,"baseColorTexture":{"index":0}},"alphaMode":"MASK","alphaCutoff":0.05,"doubleSided":true}],"textures":[{"sampler":0,"source":0,"name":"Palm.png"}],"samplers":[{"magFilter":9728,"minFilter":9728,"wrapS":33071,"wrapT":33071}],"images":[{"mimeType":"image/png","uri":"data:image/png;base64,"}],"meshes":[{"primitives":[{"mode":4,"attributes":{"POSITION":0,"NORMAL":1,"TEXCOORD_0":2},"indices":3,"material":0}]},{"primitives":[{"mode":4,"attributes":{"POSITION":4,"NORMAL":5,"TEXCOORD_0":6},"indices":7,"material":0}]},{"primitives":[{"mode":4,"attributes":{"POSITION":8,"NORMAL":9,"TEXCOORD_0":10},"indices":11,"material":0}]},{"primitives":[{"mode":4,"attributes":{"POSITION":12,"NORMAL":13,"TEXCOORD_0":14},"indices":15,"material":0}]}],"animations":[{"name":"idle","samplers":[{"input":16,"output":17,"interpolation":"LINEAR"},{"input":18,"output":19,"interpolation":"LINEAR"},{"input":20,"output":21,"interpolation":"LINEAR"}],"channels":[{"sampler":0,"target":{"node":2,"path":"rotation"}},{"sampler":1,"target":{"node":4,"path":"rotation"}},{"sampler":2,"target":{"node":6,"path":"rotation"}}]}]}