{"asset":{"version":"2.0","generator":"Blockbench 5.0.3 glTF exporter"},"scenes":[{"nodes":[16],"name":"blockbench_export"}],"scene":0,"nodes":[{"translation":[0,-0.125,-0.125],"name":"cube","mesh":0},{"translation":[0,-0.125,-0.125],"name":"cube","mesh":1},{"translation":[0,-0.125,-0.125],"name":"cube","mesh":2},{"translation":[0,-0.125,-0.125],"name":"cube","mesh":3},{"name":"cube","mesh":4},{"translation":[0,0.28125,0.03125],"name":"top_fin","children":[4]},{"translation":[0,0.0625,0.1875],"name":"cube","mesh":5},{"translation":[0,0,0.0625],"name":"cube","mesh":6},{"translation":[0,-0.0625,0.1875],"name":"tail","children":[6,7]},{"translation":[0,-0.06318750000000001,-0.6196582500000001],"name":"cube","mesh":7},{"translation":[0,-0.06318750000000001,-0.6196582500000001],"name":"cube","mesh":8},{"rotation":[0.043619387365336,0,0,0.9990482215818578],"translation":[0,-0.2275,0.138085],"name":"head","children":[9,10]},{"translation":[0.03125,-0.10624999999999998,-0.06249999999999999],"name":"cube","mesh":9},{"rotation":[-0.1379496896414715,0.13794968964147147,-0.6935199226610737,0.6935199226610738],"translation":[0.193756875,-0.0001787500000000053,0.11902062499999999],"name":"fin2","children":[12]},{"translation":[-0.03125,-0.10624999999999998,-0.06249999999999999],"name":"cube","mesh":10},{"rotation":[-0.1379496896414715,-0.13794968964147147,0.6935199226610737,0.6935199226610738],"translation":[-0.193756875,-0.0001787500000000053,0.11902062499999999],"name":"fin","children":[14]},{"translation":[0,0.25,-0.0625],"name":"anglerfish","children":[0,1,2,3,5,8,11,13,15]}],"bufferViews":[{"buffer":0,"byteOffset":0,"byteLength":288,"target":34962,"byteStride":12},{"buffer":0,"byteOffset":288,"byteLength":288,"target":34962,"byteStride":12},{"buffer":0,"byteOffset":576,"byteLength":192,"target":34962,"byteStride":8},{"buffer":0,"byteOffset":768,"byteLength":72,"target":34963},{"buffer":0,"byteOffset":840,"byteLength":288,"target":34962,"byteStride":12},{"buffer":0,"byteOffset":1128,"byteLength":288,"target":34962,"byteStride":12},{"buffer":0,"byteOffset":1416,"byteLength":192,"target":34962,"byteStride":8},{"buffer":0,"byteOffset":1608,"byteLength":72,"target":34963},{"buffer":0,"byteOffset":1680,"byteLength":288,"target":34962,"byteStride":12},{"buffer":0,"byteOffset":1968,"byteLength":288,"target":34962,"byteStride":12},{"buffer":0,"byteOffset":2256,"byteLength":192,"target":34962,"byteStride":8},{"buffer":0,"byteOffset":2448,"byteLength":72,"target":34963},{"buffer":0,"byteOffset":2520,"byteLength":240,"target":34962,"byteStride":12},{"buffer":0,"byteOffset":2760,"byteLength":240,"target":34962,"byteStride":12},{"buffer":0,"byteOffset":3000,"byteLength":160,"target":34962,"byteStride":8},{"buffer":0,"byteOffset":3160,"byteLength":60,"target":34963},{"buffer":0,"byteOffset":3220,"byteLength":240,"target":34962,"byteStride":12},{"buffer":0,"byteOffset":3460,"byteLength":240,"target":34962,"byteStride":12},{"buffer":0,"byteOffset":3700,"byteLength":160,"target":34962,"byteStride":8},{"buffer":0,"byteOffset":3860,"byteLength":60,"target":34963},{"buffer":0,"byteOffset":3920,"byteLength":240,"target":34962,"byteStride":12},{"buffer":0,"byteOffset":4160,"byteLength":240,"target":34962,"byteStride":12},{"buffer":0,"byteOffset":4400,"byteLength":160,"target":34962,"byteStride":8},{"buffer":0,"byteOffset":4560,"byteLength":60,"target":34963},{"buffer":0,"byteOffset":4620,"byteLength":288,"target":34962,"byteStride":12},{"buffer":0,"byteOffset":4908,"byteLength":288,"target":34962,"byteStride":12},{"buffer":0,"byteOffset":5196,"byteLength":192,"target":34962,"byteStride":8},{"buffer":0,"byteOffset":5388,"byteLength":72,"target":34963},{"buffer":0,"byteOffset":5460,"byteLength":288,"target":34962,"byteStride":12},{"buffer":0,"byteOffset":5748,"byteLength":288,"target":34962,"byteStride":12},{"buffer":0,"byteOffset":6036,"byteLength":192,"target":34962,"byteStride":8},{"buffer":0,"byteOffset":6228,"byteLength":72,"target":34963},{"buffer":0,"byteOffset":6300,"byteLength":288,"target":34962,"byteStride":12},{"buffer":0,"byteOffset":6588,"byteLength":288,"target":34962,"byteStride":12},{"buffer":0,"byteOffset":6876,"byteLength":192,"target":34962,"byteStride":8},{"buffer":0,"byteOffset":7068,"byteLength":72,"target":34963},{"buffer":0,"byteOffset":7140,"byteLength":240,"target":34962,"byteStride":12},{"buffer":0,"byteOffset":7380,"byteLength":240,"target":34962,"byteStride":12},{"buffer":0,"byteOffset":7620,"byteLength":160,"target":34962,"byteStride":8},{"buffer":0,"byteOffset":7780,"byteLength":60,"target":34963},{"buffer":0,"byteOffset":7840,"byteLength":240,"target":34962,"byteStride":12},{"buffer":0,"byteOffset":8080,"byteLength":240,"target":34962,"byteStride":12},{"buffer":0,"byteOffset":8320,"byteLength":160,"target":34962,"byteStride":8},{"buffer":0,"byteOffset":8480,"byteLength":60,"target":34963},{"buffer":0,"byteOffset":8540,"byteLength":308},{"buffer":0,"byteOffset":8848,"byteLength":1232},{"buffer":0,"byteOffset":10080,"byteLength":308},{"buffer":0,"byteOffset":10388,"byteLength":924},{"buffer":0,"byteOffset":11312,"byteLength":308},{"buffer":0,"byteOffset":11620,"byteLength":1232},{"buffer":0,"byteOffset":12852,"byteLength":184},{"buffer":0,"byteOffset":13036,"byteLength":736},{"buffer":0,"byteOffset":13772,"byteLength":184},{"buffer":0,"byteOffset":13956,"byteLength":552},{"buffer":0,"byteOffset":14508,"byteLength":184},{"buffer":0,"byteOffset":14692,"byteLength":736},{"buffer":0,"byteOffset":15428,"byteLength":184},{"buffer":0,"byteOffset":15612,"byteLength":736},{"buffer":0,"byteOffset":16348,"byteLength":184},{"buffer":0,"byteOffset":16532,"byteLength":736},{"buffer":0,"byteOffset":17268,"byteLength":184},{"buffer":0,"byteOffset":17452,"byteLength":736},{"buffer":0,"byteOffset":18188,"byteLength":184},{"buffer":0,"byteOffset":18372,"byteLength":736}],"buffers":[{"byteLength":19108,"uri":"data:application/octet-stream;base64,"}],"accessors":[{"bufferView":0,"componentType":5126,"count":24,"max":[0.1875,0.3125,0.3125],"min":[-0.1875,0.0625,-0.125],"type":"VEC3"},{"bufferView":1,"componentType":5126,"count":24,"max":[1,1,1],"min":[-1,-1,-1],"type":"VEC3"},{"bufferView":2,"componentType":5126,"count":24,"max":[0.453125,0.40625],"min":[0,0],"type":"VEC2"},{"bufferView":3,"componentType":5123,"count":36,"max":[23],"min":[0],"type":"SCALAR"},{"bufferView":4,"componentType":5126,"count":24,"max":[0.0625,0.375,-0.3125],"min":[-0.0625,0.25,-0.4375],"type":"VEC3"},{"bufferView":5,"componentType":5126,"count":24,"max":[1,1,1],"min":[-1,-1,-1],"type":"VEC3"},{"bufferView":6,"componentType":5126,"count":24,"max":[0.5,0.515625],"min":[0.078125,0.375],"type":"VEC2"},{"bufferView":7,"componentType":5123,"count":36,"max":[23],"min":[0],"type":"SCALAR"},{"bufferView":8,"componentType":5126,"count":24,"max":[0.1875,0.0625,0.3125],"min":[-0.1875,-0.0625,-0.125],"type":"VEC3"},{"bufferView":9,"componentType":5126,"count":24,"max":[1,1,1],"min":[-1,-1,-1],"type":"VEC3"},{"bufferView":10,"componentType":5126,"count":24,"max":[0.5625,0.515625],"min":[0.078125,0],"type":"VEC2"},{"bufferView":11,"componentType":5123,"count":36,"max":[23],"min":[0],"type":"SCALAR"},{"bufferView":12,"componentType":5126,"count":20,"max":[0,0.625,0],"min":[0,0.3125,-0.375],"type":"VEC3"},{"bufferView":13,"componentType":5126,"count":20,"max":[1,0,0],"min":[-1,0,0],"type":"VEC3"},{"bufferView":14,"componentType":5126,"count":20,"max":[0.5156750082969666,0.625],"min":[0,0.25],"type":"VEC2"},{"bufferView":15,"componentType":5123,"count":30,"max":[19],"min":[0],"type":"SCALAR"},{"bufferView":16,"componentType":5126,"count":20,"max":[0,0.09375,0.21875],"min":[0,-0.09375,-0.09375],"type":"VEC3"},{"bufferView":17,"componentType":5126,"count":20,"max":[1,0,0],"min":[-1,0,0],"type":"VEC3"},{"bufferView":18,"componentType":5126,"count":20,"max":[0.515625,0.296875],"min":[0,0],"type":"VEC2"},{"bufferView":19,"componentType":5123,"count":30,"max":[19],"min":[0],"type":"SCALAR"},{"bufferView":20,"componentType":5126,"count":20,"max":[0,0.15625,0.1875],"min":[0,-0.15625,-0.125],"type":"VEC3"},{"bufferView":21,"componentType":5126,"count":20,"max":[1,0,0],"min":[-1,0,0],"type":"VEC3"},{"bufferView":22,"componentType":5126,"count":20,"max":[0.4375,0.078125],"min":[0,0],"type":"VEC2"},{"bufferView":23,"componentType":5123,"count":30,"max":[19],"min":[0],"type":"SCALAR"},{"bufferView":24,"componentType":5126,"count":24,"max":[0.046875,0.1875,0.0625],"min":[-0.046875,-0.0625,-0.0625],"type":"VEC3"},{"bufferView":25,"componentType":5126,"count":24,"max":[1,1,1],"min":[-1,-1,-1],"type":"VEC3"},{"bufferView":26,"componentType":5126,"count":24,"max":[0.546875,0.546875],"min":[0.1875,0.40625],"type":"VEC2"},{"bufferView":27,"componentType":5123,"count":36,"max":[23],"min":[0],"type":"SCALAR"},{"bufferView":28,"componentType":5126,"count":24,"max":[0.22968749701976776,0.14634375274181366,0.590624988079071],"min":[-0.22968749701976776,-0.01771874912083149,0.13124999403953552],"type":"VEC3"},{"bufferView":29,"componentType":5126,"count":24,"max":[1,1,1],"min":[-1,-1,-1],"type":"VEC3"},{"bufferView":30,"componentType":5126,"count":24,"max":[0.484375,0.46875],"min":[0,0],"type":"VEC2"},{"bufferView":31,"componentType":5123,"count":36,"max":[23],"min":[0],"type":"SCALAR"},{"bufferView":32,"componentType":5126,"count":24,"max":[0.22968749701976776,0.2775937616825104,0.590624988079071],"min":[-0.22968749701976776,0.14634375274181366,0.13124999403953552],"type":"VEC3"},{"bufferView":33,"componentType":5126,"count":24,"max":[1,1,1],"min":[-1,-1,-1],"type":"VEC3"},{"bufferView":34,"componentType":5126,"count":24,"max":[0.578125,0.34375],"min":[0.125,0],"type":"VEC2"},{"bufferView":35,"componentType":5123,"count":36,"max":[23],"min":[0],"type":"SCALAR"},{"bufferView":36,"componentType":5126,"count":20,"max":[0.15625,0.125,0.375],"min":[-0.09375,0.125,0.0625],"type":"VEC3"},{"bufferView":37,"componentType":5126,"count":20,"max":[1,1,0],"min":[0,0,0],"type":"VEC3"},{"bufferView":38,"componentType":5126,"count":20,"max":[0.0625,0.515625],"min":[0,0],"type":"VEC2"},{"bufferView":39,"componentType":5123,"count":30,"max":[19],"min":[0],"type":"SCALAR"},{"bufferView":40,"componentType":5126,"count":20,"max":[0.09375,0.125,0.375],"min":[-0.15625,0.125,0.0625],"type":"VEC3"},{"bufferView":41,"componentType":5126,"count":20,"max":[1,1,0],"min":[0,0,0],"type":"VEC3"},{"bufferView":42,"componentType":5126,"count":20,"max":[0.0625,0.515625],"min":[0,0],"type":"VEC2"},{"bufferView":43,"componentType":5123,"count":30,"max":[19],"min":[0],"type":"SCALAR"},{"bufferView":44,"componentType":5126,"count":77,"max":[2],"min":[0],"type":"SCALAR"},{"bufferView":45,"componentType":5126,"count":77,"max":[0.017809173092246056,0,0,1],"min":[-0.017809173092246056,0,0,0.9998413920402527],"type":"VEC4"},{"bufferView":46,"componentType":5126,"count":77,"max":[2],"min":[0],"type":"SCALAR"},{"bufferView":47,"componentType":5126,"count":77,"max":[0,0.3125,-0.0625],"min":[0,0.25,-0.0625],"type":"VEC3"},{"bufferView":48,"componentType":5126,"count":77,"max":[2],"min":[0],"type":"SCALAR"},{"bufferView":49,"componentType":5126,"count":77,"max":[0,0.19509032368659973,0,1],"min":[0,-0.19509032368659973,0,0.9807852506637573],"type":"VEC4"},{"bufferView":50,"componentType":5126,"count":46,"max":[1],"min":[0],"type":"SCALAR"},{"bufferView":51,"componentType":5126,"count":46,"max":[0.005899077281355858,0.1736481785774231,0.08715574443340302,0.9961947202682495],"min":[-0.005899077281355858,-0.1736481785774231,-0.08715574443340302,0.9848077297210693],"type":"VEC4"},{"bufferView":52,"componentType":5126,"count":46,"max":[1],"min":[0],"type":"SCALAR"},{"bufferView":53,"componentType":5126,"count":46,"max":[0.06377777457237244,0.25,-0.0625],"min":[-0.06377777457237244,0.25,-0.0625],"type":"VEC3"},{"bufferView":54,"componentType":5126,"count":46,"max":[1],"min":[0],"type":"SCALAR"},{"bufferView":55,"componentType":5126,"count":46,"max":[0,0,0.13317899405956268,1],"min":[0,0,-0.13317899405956268,0.9910920262336731],"type":"VEC4"},{"bufferView":56,"componentType":5126,"count":46,"max":[1],"min":[0],"type":"SCALAR"},{"bufferView":57,"componentType":5126,"count":46,"max":[0,0.2853910028934479,0,1],"min":[0,-0.2853910028934479,0,0.9584111571311951],"type":"VEC4"},{"bufferView":58,"componentType":5126,"count":46,"max":[1],"min":[0],"type":"SCALAR"},{"bufferView":59,"componentType":5126,"count":46,"max":[0.04361938685178757,0.04446821287274361,0.0019415240967646241,0.9990482330322266],"min":[0.043576158583164215,-0.04446821287274361,-0.0019415240967646241,0.9980580806732178],"type":"VEC4"},{"bufferView":60,"componentType":5126,"count":46,"max":[1],"min":[0],"type":"SCALAR"},{"bufferView":61,"componentType":5126,"count":46,"max":[0.13794969022274017,0.39623504877090454,-0.5428699851036072,0.8199687600135803],"min":[-0.3962581157684326,-0.13794969022274017,-0.8189760446548462,0.5428699851036072],"type":"VEC4"},{"bufferView":62,"componentType":5126,"count":46,"max":[1],"min":[0],"type":"SCALAR"},{"bufferView":63,"componentType":5126,"count":46,"max":[0.13794969022274017,0.13794969022274017,0.8189760446548462,0.8199687600135803],"min":[-0.3962581157684326,-0.39623504877090454,0.5428699851036072,0.5428699851036072],"type":"VEC4"}],"materials":[{"pbrMetallicRoughness":{"metallicFactor":0,"roughnessFactor":1,"baseColorTexture":{"index":0}},"alphaMode":"MASK","alphaCutoff":0.05,"doubleSided":true}],"textures":[{"sampler":0,"source":0,"name":"anglerfish"}],"samplers":[{"magFilter":9728,"minFilter":9728,"wrapS":33071,"wrapT":33071}],"images":[{"mimeType":"image/png","uri":"data:image/png;base64,"}],"meshes":[{"primitives":[{"mode":4,"attributes":{"POSITION":0,"NORMAL":1,"TEXCOORD_0":2},"indices":3,"material":0}]},{"primitives":[{"mode":4,"attributes":{"POSITION":4,"NORMAL":5,"TEXCOORD_0":6},"indices":7,"material":0}]},{"primitives":[{"mode":4,"attributes":{"POSITION":8,"NORMAL":9,"TEXCOORD_0":10},"indices":11,"material":0}]},{"primitives":[{"mode":4,"attributes":{"POSITION":12,"NORMAL":13,"TEXCOORD_0":14},"indices":15,"material":0}]},{"primitives":[{"mode":4,"attributes":{"POSITION":16,"NORMAL":17,"TEXCOORD_0":18},"indices":19,"material":0}]},{"primitives":[{"mode":4,"attributes":{"POSITION":20,"NORMAL":21,"TEXCOORD_0":22},"indices":23,"material":0}]},{"primitives":[{"mode":4,"attributes":{"POSITION":24,"NORMAL":25,"TEXCOORD_0":26},"indices":27,"material":0}]},{"primitives":[{"mode":4,"attributes":{"POSITION":28,"NORMAL":29,"TEXCOORD_0":30},"indices":31,"material":0}]},{"primitives":[{"mode":4,"attributes":{"POSITION":32,"NORMAL":33,"TEXCOORD_0":34},"indices":35,"material":0}]},{"primitives":[{"mode":4,"attributes":{"POSITION":36,"NORMAL":37,"TEXCOORD_0":38},"indices":39,"material":0}]},{"primitives":[{"mode":4,"attributes":{"POSITION":40,"NORMAL":41,"TEXCOORD_0":42},"indices":43,"material":0}]}],"animations":[{"name":"idle","samplers":[{"input":44,"output":45,"interpolation":"LINEAR"},{"input":46,"output":47,"interpolation":"LINEAR"},{"input":48,"output":49,"interpolation":"LINEAR"}],"channels":[{"sampler":0,"target":{"node":16,"path":"rotation"}},{"sampler":1,"target":{"node":16,"path":"translation"}},{"sampler":2,"target":{"node":8,"path":"rotation"}}]},{"name":"walk","samplers":[{"input":50,"output":51,"interpolation":"LINEAR"},{"input":52,"output":53,"interpolation":"LINEAR"},{"input":54,"output":55,"interpolation":"LINEAR"},{"input":56,"output":57,"interpolation":"LINEAR"},{"input":58,"output":59,"interpolation":"LINEAR"},{"input":60,"output":61,"interpolation":"LINEAR"},{"input":62,"output":63,"interpolation":"LINEAR"}],"channels":[{"sampler":0,"target":{"node":16,"path":"rotation"}},{"sampler":1,"target":{"node":16,"path":"translation"}},{"sampler":2,"target":{"node":5,"path":"rotation"}},{"sampler":3,"target":{"node":8,"path":"rotation"}},{"sampler":4,"target":{"node":11,"path":"rotation"}},{"sampler":5,"target":{"node":13,"path":"rotation"}},{"sampler":6,"target":{"node":15,"path":"rotation"}}]}]}