{"asset":{"version":"2.0","generator":"Blockbench 5.0.3 glTF exporter"},"scenes":[{"nodes":[14],"name":"blockbench_export"}],"scene":0,"nodes":[{"name":"cube","mesh":0},{"translation":[0,0,-0.375],"name":"cube","mesh":1},{"translation":[0,-0.09375,0.625],"name":"cube","mesh":2},{"translation":[0,-0.09375,0.625],"name":"cube","mesh":3},{"translation":[0,0.09375,0.4375],"name":"tail","children":[2,3]},{"name":"cube","mesh":4},{"translation":[0,0.0625,-0.6875],"name":"head","children":[5]},{"translation":[-0.0625,0,-0.0625],"name":"cube","mesh":5},{"translation":[-0.21875,-0.125,-0.5],"name":"left_fin","children":[7]},{"translation":[0.0625,0,-0.0625],"name":"cube","mesh":6},{"translation":[0.21875,-0.125,-0.5],"name":"right_fin","children":[9]},{"translation":[0,-0.375,0.125],"name":"cube","mesh":7},{"translation":[0,0.375,-0.125],"name":"top_fin","children":[11]},{"name":"body","children":[0,1,4,6,8,10,12]},{"translation":[0,0.3125,0],"name":"snapper","children":[13]}],"bufferViews":[{"buffer":0,"byteOffset":0,"byteLength":288,"target":34962,"byteStride":12},{"buffer":0,"byteOffset":288,"byteLength":288,"target":34962,"byteStride":12},{"buffer":0,"byteOffset":576,"byteLength":192,"target":34962,"byteStride":8},{"buffer":0,"byteOffset":768,"byteLength":72,"target":34963},{"buffer":0,"byteOffset":840,"byteLength":288,"target":34962,"byteStride":12},{"buffer":0,"byteOffset":1128,"byteLength":288,"target":34962,"byteStride":12},{"buffer":0,"byteOffset":1416,"byteLength":192,"target":34962,"byteStride":8},{"buffer":0,"byteOffset":1608,"byteLength":72,"target":34963},{"buffer":0,"byteOffset":1680,"byteLength":288,"target":34962,"byteStride":12},{"buffer":0,"byteOffset":1968,"byteLength":288,"target":34962,"byteStride":12},{"buffer":0,"byteOffset":2256,"byteLength":192,"target":34962,"byteStride":8},{"buffer":0,"byteOffset":2448,"byteLength":72,"target":34963},{"buffer":0,"byteOffset":2520,"byteLength":240,"target":34962,"byteStride":12},{"buffer":0,"byteOffset":2760,"byteLength":240,"target":34962,"byteStride":12},{"buffer":0,"byteOffset":3000,"byteLength":160,"target":34962,"byteStride":8},{"buffer":0,"byteOffset":3160,"byteLength":60,"target":34963},{"buffer":0,"byteOffset":3220,"byteLength":288,"target":34962,"byteStride":12},{"buffer":0,"byteOffset":3508,"byteLength":288,"target":34962,"byteStride":12},{"buffer":0,"byteOffset":3796,"byteLength":192,"target":34962,"byteStride":8},{"buffer":0,"byteOffset":3988,"byteLength":72,"target":34963},{"buffer":0,"byteOffset":4060,"byteLength":96,"target":34962,"byteStride":12},{"buffer":0,"byteOffset":4156,"byteLength":96,"target":34962,"byteStride":12},{"buffer":0,"byteOffset":4252,"byteLength":64,"target":34962,"byteStride":8},{"buffer":0,"byteOffset":4316,"byteLength":24,"target":34963},{"buffer":0,"byteOffset":4340,"byteLength":96,"target":34962,"byteStride":12},{"buffer":0,"byteOffset":4436,"byteLength":96,"target":34962,"byteStride":12},{"buffer":0,"byteOffset":4532,"byteLength":64,"target":34962,"byteStride":8},{"buffer":0,"byteOffset":4596,"byteLength":24,"target":34963},{"buffer":0,"byteOffset":4620,"byteLength":240,"target":34962,"byteStride":12},{"buffer":0,"byteOffset":4860,"byteLength":240,"target":34962,"byteStride":12},{"buffer":0,"byteOffset":5100,"byteLength":160,"target":34962,"byteStride":8},{"buffer":0,"byteOffset":5260,"byteLength":60,"target":34963},{"buffer":0,"byteOffset":5320,"byteLength":308},{"buffer":0,"byteOffset":5628,"byteLength":1232},{"buffer":0,"byteOffset":6860,"byteLength":308},{"buffer":0,"byteOffset":7168,"byteLength":1232},{"buffer":0,"byteOffset":8400,"byteLength":308},{"buffer":0,"byteOffset":8708,"byteLength":1232},{"buffer":0,"byteOffset":9940,"byteLength":308},{"buffer":0,"byteOffset":10248,"byteLength":924},{"buffer":0,"byteOffset":11172,"byteLength":308},{"buffer":0,"byteOffset":11480,"byteLength":1232},{"buffer":0,"byteOffset":12712,"byteLength":184},{"buffer":0,"byteOffset":12896,"byteLength":736},{"buffer":0,"byteOffset":13632,"byteLength":184},{"buffer":0,"byteOffset":13816,"byteLength":736},{"buffer":0,"byteOffset":14552,"byteLength":184},{"buffer":0,"byteOffset":14736,"byteLength":736},{"buffer":0,"byteOffset":15472,"byteLength":184},{"buffer":0,"byteOffset":15656,"byteLength":736},{"buffer":0,"byteOffset":16392,"byteLength":184},{"buffer":0,"byteOffset":16576,"byteLength":552},{"buffer":0,"byteOffset":17128,"byteLength":184},{"buffer":0,"byteOffset":17312,"byteLength":736},{"buffer":0,"byteOffset":18048,"byteLength":184},{"buffer":0,"byteOffset":18232,"byteLength":736}],"buffers":[{"byteLength":18968,"uri":"data:application/octet-stream;base64,"}],"accessors":[{"bufferView":0,"componentType":5126,"count":24,"max":[0.21875,0.375,0.4375],"min":[-0.21875,-0.125,-0.1875],"type":"VEC3"},{"bufferView":1,"componentType":5126,"count":24,"max":[1,1,1],"min":[-1,-1,-1],"type":"VEC3"},{"bufferView":2,"componentType":5126,"count":24,"max":[0.5625,0.5625],"min":[0.125,0],"type":"VEC2"},{"bufferView":3,"componentType":5123,"count":36,"max":[23],"min":[0],"type":"SCALAR"},{"bufferView":4,"componentType":5126,"count":24,"max":[0.21875,0.4375,0.1875],"min":[-0.21875,-0.125,-0.3125],"type":"VEC3"},{"bufferView":5,"componentType":5126,"count":24,"max":[1,1,1],"min":[-1,-1,-1],"type":"VEC3"},{"bufferView":6,"componentType":5126,"count":24,"max":[0.515625,0.625],"min":[0,0.171875],"type":"VEC2"},{"bufferView":7,"componentType":5123,"count":36,"max":[23],"min":[0],"type":"SCALAR"},{"bufferView":8,"componentType":5126,"count":24,"max":[0.09375,0.28125,-0.1875],"min":[-0.09375,-0.03125,-0.625],"type":"VEC3"},{"bufferView":9,"componentType":5126,"count":24,"max":[1,1,1],"min":[-1,-1,-1],"type":"VEC3"},{"bufferView":10,"componentType":5126,"count":24,"max":[0.6875,0.71875],"min":[0,0],"type":"VEC2"},{"bufferView":11,"componentType":5123,"count":36,"max":[23],"min":[0],"type":"SCALAR"},{"bufferView":12,"componentType":5126,"count":20,"max":[0,0.46875,0.125],"min":[0,-0.21875,-0.4375],"type":"VEC3"},{"bufferView":13,"componentType":5126,"count":20,"max":[1,0,0],"min":[-1,0,0],"type":"VEC3"},{"bufferView":14,"componentType":5126,"count":20,"max":[0.140625,0.171875],"min":[0,0],"type":"VEC2"},{"bufferView":15,"componentType":5123,"count":30,"max":[19],"min":[0],"type":"SCALAR"},{"bufferView":16,"componentType":5126,"count":24,"max":[0.125,0.25,0],"min":[-0.125,-0.1875,-0.3125],"type":"VEC3"},{"bufferView":17,"componentType":5126,"count":24,"max":[1,1,1],"min":[-1,-1,-1],"type":"VEC3"},{"bufferView":18,"componentType":5126,"count":24,"max":[0.6875,0.703125],"min":[0.25,0.09375],"type":"VEC2"},{"bufferView":19,"componentType":5123,"count":36,"max":[23],"min":[0],"type":"SCALAR"},{"bufferView":20,"componentType":5126,"count":8,"max":[0.0625,0,0.4375],"min":[-0.3125,0,-0.0625],"type":"VEC3"},{"bufferView":21,"componentType":5126,"count":8,"max":[1,1,0],"min":[0,0,0],"type":"VEC3"},{"bufferView":22,"componentType":5126,"count":8,"max":[0.46875,0.640625],"min":[0,0],"type":"VEC2"},{"bufferView":23,"componentType":5123,"count":12,"max":[7],"min":[0],"type":"SCALAR"},{"bufferView":24,"componentType":5126,"count":8,"max":[0.3125,0,0.4375],"min":[-0.0625,0,-0.0625],"type":"VEC3"},{"bufferView":25,"componentType":5126,"count":8,"max":[1,1,0],"min":[0,0,0],"type":"VEC3"},{"bufferView":26,"componentType":5126,"count":8,"max":[0.46875,0.640625],"min":[0,0],"type":"VEC2"},{"bufferView":27,"componentType":5123,"count":12,"max":[7],"min":[0],"type":"SCALAR"},{"bufferView":28,"componentType":5126,"count":20,"max":[0,0.6875,0.4375],"min":[0,0.375,-0.3125],"type":"VEC3"},{"bufferView":29,"componentType":5126,"count":20,"max":[1,0,0],"min":[-1,0,0],"type":"VEC3"},{"bufferView":30,"componentType":5126,"count":20,"max":[0.59375,0.5],"min":[0,0],"type":"VEC2"},{"bufferView":31,"componentType":5123,"count":30,"max":[19],"min":[0],"type":"SCALAR"},{"bufferView":32,"componentType":5126,"count":77,"max":[2],"min":[0],"type":"SCALAR"},{"bufferView":33,"componentType":5126,"count":77,"max":[0,0.19509032368659973,0,1],"min":[0,-0.19509032368659973,0,0.9807852506637573],"type":"VEC4"},{"bufferView":34,"componentType":5126,"count":77,"max":[2],"min":[0],"type":"SCALAR"},{"bufferView":35,"componentType":5126,"count":77,"max":[0.194150909781456,0.02211712673306465,0.19509032368659973,1],"min":[-0.19426409900188446,-0.02126799337565899,0,0.9756917357444763],"type":"VEC4"},{"bufferView":36,"componentType":5126,"count":77,"max":[2],"min":[0],"type":"SCALAR"},{"bufferView":37,"componentType":5126,"count":77,"max":[0.017809173092246056,0,0,1],"min":[-0.017809173092246056,0,0,0.9998413920402527],"type":"VEC4"},{"bufferView":38,"componentType":5126,"count":77,"max":[2],"min":[0],"type":"SCALAR"},{"bufferView":39,"componentType":5126,"count":77,"max":[0,0.375,0],"min":[0,0.3125,0],"type":"VEC3"},{"bufferView":40,"componentType":5126,"count":77,"max":[2],"min":[0],"type":"SCALAR"},{"bufferView":41,"componentType":5126,"count":77,"max":[0.194150909781456,0.02126799337565899,0,1],"min":[-0.19426409900188446,-0.02211712673306465,-0.19509032368659973,0.9756917357444763],"type":"VEC4"},{"bufferView":42,"componentType":5126,"count":46,"max":[1],"min":[0],"type":"SCALAR"},{"bufferView":43,"componentType":5126,"count":46,"max":[0,0.2853910028934479,0,1],"min":[0,-0.2853910028934479,0,0.9584111571311951],"type":"VEC4"},{"bufferView":44,"componentType":5126,"count":46,"max":[1],"min":[0],"type":"SCALAR"},{"bufferView":45,"componentType":5126,"count":46,"max":[0,0.08893293142318726,0,1],"min":[0,-0.08893293142318726,0,0.9960376024246216],"type":"VEC4"},{"bufferView":46,"componentType":5126,"count":46,"max":[1],"min":[0],"type":"SCALAR"},{"bufferView":47,"componentType":5126,"count":46,"max":[0.3826834261417389,0.029587343335151672,0.19509032368659973,0.9807852506637573],"min":[-0.3826834261417389,-0.029587343335151672,-0.19509032368659973,0.9238795042037964],"type":"VEC4"},{"bufferView":48,"componentType":5126,"count":46,"max":[1],"min":[0],"type":"SCALAR"},{"bufferView":49,"componentType":5126,"count":46,"max":[0.005899077281355858,0.1736481785774231,0.08715574443340302,0.9961947202682495],"min":[-0.005899077281355858,-0.1736481785774231,-0.08715574443340302,0.9848077297210693],"type":"VEC4"},{"bufferView":50,"componentType":5126,"count":46,"max":[1],"min":[0],"type":"SCALAR"},{"bufferView":51,"componentType":5126,"count":46,"max":[0.06377777457237244,0.3125,0],"min":[-0.06377777457237244,0.3125,0],"type":"VEC3"},{"bufferView":52,"componentType":5126,"count":46,"max":[1],"min":[0],"type":"SCALAR"},{"bufferView":53,"componentType":5126,"count":46,"max":[0.3826834261417389,0.029587343335151672,0.19509032368659973,0.9807852506637573],"min":[-0.3826834261417389,-0.029587343335151672,-0.19509032368659973,0.9238795042037964],"type":"VEC4"},{"bufferView":54,"componentType":5126,"count":46,"max":[1],"min":[0],"type":"SCALAR"},{"bufferView":55,"componentType":5126,"count":46,"max":[0,0,0.13317899405956268,1],"min":[0,0,-0.13317899405956268,0.9910920262336731],"type":"VEC4"}],"materials":[{"pbrMetallicRoughness":{"metallicFactor":0,"roughnessFactor":1,"baseColorTexture":{"index":0}},"alphaMode":"MASK","alphaCutoff":0.05,"doubleSided":true}],"textures":[{"sampler":0,"source":0,"name":"snapper"}],"samplers":[{"magFilter":9728,"minFilter":9728,"wrapS":33071,"wrapT":33071}],"images":[{"mimeType":"image/png","uri":"data:image/png;base64,"}],"meshes":[{"primitives":[{"mode":4,"attributes":{"POSITION":0,"NORMAL":1,"TEXCOORD_0":2},"indices":3,"material":0}]},{"primitives":[{"mode":4,"attributes":{"POSITION":4,"NORMAL":5,"TEXCOORD_0":6},"indices":7,"material":0}]},{"primitives":[{"mode":4,"attributes":{"POSITION":8,"NORMAL":9,"TEXCOORD_0":10},"indices":11,"material":0}]},{"primitives":[{"mode":4,"attributes":{"POSITION":12,"NORMAL":13,"TEXCOORD_0":14},"indices":15,"material":0}]},{"primitives":[{"mode":4,"attributes":{"POSITION":16,"NORMAL":17,"TEXCOORD_0":18},"indices":19,"material":0}]},{"primitives":[{"mode":4,"attributes":{"POSITION":20,"NORMAL":21,"TEXCOORD_0":22},"indices":23,"material":0}]},{"primitives":[{"mode":4,"attributes":{"POSITION":24,"NORMAL":25,"TEXCOORD_0":26},"indices":27,"material":0}]},{"primitives":[{"mode":4,"attributes":{"POSITION":28,"NORMAL":29,"TEXCOORD_0":30},"indices":31,"material":0}]}],"animations":[{"name":"idle","samplers":[{"input":32,"output":33,"interpolation":"LINEAR"},{"input":34,"output":35,"interpolation":"LINEAR"},{"input":36,"output":37,"interpolation":"LINEAR"},{"input":38,"output":39,"interpolation":"LINEAR"},{"input":40,"output":41,"interpolation":"LINEAR"}],"channels":[{"sampler":0,"target":{"node":4,"path":"rotation"}},{"sampler":1,"target":{"node":8,"path":"rotation"}},{"sampler":2,"target":{"node":14,"path":"rotation"}},{"sampler":3,"target":{"node":14,"path":"translation"}},{"sampler":4,"target":{"node":10,"path":"rotation"}}]},{"name":"walk","samplers":[{"input":42,"output":43,"interpolation":"LINEAR"},{"input":44,"output":45,"interpolation":"LINEAR"},{"input":46,"output":47,"interpolation":"LINEAR"},{"input":48,"output":49,"interpolation":"LINEAR"},{"input":50,"output":51,"interpolation":"LINEAR"},{"input":52,"output":53,"interpolation":"LINEAR"},{"input":54,"output":55,"interpolation":"LINEAR"}],"channels":[{"sampler":0,"target":{"node":4,"path":"rotation"}},{"sampler":1,"target":{"node":6,"path":"rotation"}},{"sampler":2,"target":{"node":8,"path":"rotation"}},{"sampler":3,"target":{"node":14,"path":"rotation"}},{"sampler":4,"target":{"node":14,"path":"translation"}},{"sampler":5,"target":{"node":10,"path":"rotation"}},{"sampler":6,"target":{"node":12,"path":"rotation"}}]}]}