{"asset":{"version":"2.0","generator":"Blockbench 4.12.6 glTF exporter"},"scenes":[{"nodes":[15],"name":"blockbench_export"}],"scene":0,"nodes":[{"translation":[0,-0.09375,-0.15625],"name":"cube","mesh":0},{"translation":[-0.09375,-0.125,-0.125],"name":"cube","mesh":1},{"translation":[-0.09375,0.03125,-0.09375],"name":"fin","children":[1]},{"translation":[0.09375,-0.125,-0.125],"name":"cube","mesh":2},{"translation":[0.09375,0.03125,-0.09375],"name":"fin2","children":[3]},{"translation":[0,0,-0.1875],"name":"cube","mesh":3},{"translation":[0,0.15625,-0.03125],"name":"top_fin","children":[5]},{"translation":[0,0,-0.1875],"name":"cube","mesh":4},{"translation":[0,-0.15625,0.03125],"name":"bottom_fin","children":[7]},{"translation":[0,0,0.0625],"name":"cube","mesh":5},{"translation":[0,0,0.0625],"name":"cube","mesh":6},{"translation":[0,0,0.28125],"name":"tail","children":[9,10]},{"translation":[0,-0.09375,-0.375],"name":"cube","mesh":7},{"translation":[0,0,-0.21875],"name":"head","children":[12]},{"translation":[0,0.21875,-0.03125],"name":"clownfish","children":[0,2,4,6,8,11,13]},{"children":[14]}],"bufferViews":[{"buffer":0,"byteOffset":0,"byteLength":288,"target":34962,"byteStride":12},{"buffer":0,"byteOffset":288,"byteLength":288,"target":34962,"byteStride":12},{"buffer":0,"byteOffset":576,"byteLength":192,"target":34962,"byteStride":8},{"buffer":0,"byteOffset":768,"byteLength":72,"target":34963},{"buffer":0,"byteOffset":840,"byteLength":240,"target":34962,"byteStride":12},{"buffer":0,"byteOffset":1080,"byteLength":240,"target":34962,"byteStride":12},{"buffer":0,"byteOffset":1320,"byteLength":160,"target":34962,"byteStride":8},{"buffer":0,"byteOffset":1480,"byteLength":60,"target":34963},{"buffer":0,"byteOffset":1540,"byteLength":240,"target":34962,"byteStride":12},{"buffer":0,"byteOffset":1780,"byteLength":240,"target":34962,"byteStride":12},{"buffer":0,"byteOffset":2020,"byteLength":160,"target":34962,"byteStride":8},{"buffer":0,"byteOffset":2180,"byteLength":60,"target":34963},{"buffer":0,"byteOffset":2240,"byteLength":240,"target":34962,"byteStride":12},{"buffer":0,"byteOffset":2480,"byteLength":240,"target":34962,"byteStride":12},{"buffer":0,"byteOffset":2720,"byteLength":160,"target":34962,"byteStride":8},{"buffer":0,"byteOffset":2880,"byteLength":60,"target":34963},{"buffer":0,"byteOffset":2940,"byteLength":240,"target":34962,"byteStride":12},{"buffer":0,"byteOffset":3180,"byteLength":240,"target":34962,"byteStride":12},{"buffer":0,"byteOffset":3420,"byteLength":160,"target":34962,"byteStride":8},{"buffer":0,"byteOffset":3580,"byteLength":60,"target":34963},{"buffer":0,"byteOffset":3640,"byteLength":288,"target":34962,"byteStride":12},{"buffer":0,"byteOffset":3928,"byteLength":288,"target":34962,"byteStride":12},{"buffer":0,"byteOffset":4216,"byteLength":192,"target":34962,"byteStride":8},{"buffer":0,"byteOffset":4408,"byteLength":72,"target":34963},{"buffer":0,"byteOffset":4480,"byteLength":240,"target":34962,"byteStride":12},{"buffer":0,"byteOffset":4720,"byteLength":240,"target":34962,"byteStride":12},{"buffer":0,"byteOffset":4960,"byteLength":160,"target":34962,"byteStride":8},{"buffer":0,"byteOffset":5120,"byteLength":60,"target":34963},{"buffer":0,"byteOffset":5180,"byteLength":288,"target":34962,"byteStride":12},{"buffer":0,"byteOffset":5468,"byteLength":288,"target":34962,"byteStride":12},{"buffer":0,"byteOffset":5756,"byteLength":192,"target":34962,"byteStride":8},{"buffer":0,"byteOffset":5948,"byteLength":72,"target":34963},{"buffer":0,"byteOffset":6020,"byteLength":792},{"buffer":0,"byteOffset":6812,"byteLength":3168},{"buffer":0,"byteOffset":9980,"byteLength":788},{"buffer":0,"byteOffset":10768,"byteLength":2364},{"buffer":0,"byteOffset":13132,"byteLength":788},{"buffer":0,"byteOffset":13920,"byteLength":3152},{"buffer":0,"byteOffset":17072,"byteLength":788},{"buffer":0,"byteOffset":17860,"byteLength":3152},{"buffer":0,"byteOffset":21012,"byteLength":636},{"buffer":0,"byteOffset":21648,"byteLength":2544},{"buffer":0,"byteOffset":24192,"byteLength":792},{"buffer":0,"byteOffset":24984,"byteLength":3168},{"buffer":0,"byteOffset":28152,"byteLength":796},{"buffer":0,"byteOffset":28948,"byteLength":3184},{"buffer":0,"byteOffset":32132,"byteLength":792},{"buffer":0,"byteOffset":32924,"byteLength":3168},{"buffer":0,"byteOffset":36092,"byteLength":184},{"buffer":0,"byteOffset":36276,"byteLength":736},{"buffer":0,"byteOffset":37012,"byteLength":184},{"buffer":0,"byteOffset":37196,"byteLength":736},{"buffer":0,"byteOffset":37932,"byteLength":184},{"buffer":0,"byteOffset":38116,"byteLength":736},{"buffer":0,"byteOffset":38852,"byteLength":184},{"buffer":0,"byteOffset":39036,"byteLength":736},{"buffer":0,"byteOffset":39772,"byteLength":184},{"buffer":0,"byteOffset":39956,"byteLength":736},{"buffer":0,"byteOffset":40692,"byteLength":184},{"buffer":0,"byteOffset":40876,"byteLength":736},{"buffer":0,"byteOffset":41612,"byteLength":184},{"buffer":0,"byteOffset":41796,"byteLength":736}],"buffers":[{"byteLength":42532,"uri":"data:application/octet-stream;base64,"}],"accessors":[{"bufferView":0,"componentType":5126,"count":24,"max":[0.09375,0.25,0.4375],"min":[-0.09375,-0.0625,-0.125],"type":"VEC3"},{"bufferView":1,"componentType":5126,"count":24,"max":[1,1,1],"min":[-1,-1,-1],"type":"VEC3"},{"bufferView":2,"componentType":5126,"count":24,"max":[0.53125,0.59375],"min":[0,0],"type":"VEC2"},{"bufferView":3,"componentType":5123,"count":36,"max":[23],"min":[0],"type":"SCALAR"},{"bufferView":4,"componentType":5126,"count":20,"max":[0.09375,0.125,0.25],"min":[-0.09375,0.125,0],"type":"VEC3"},{"bufferView":5,"componentType":5126,"count":20,"max":[1,1,0],"min":[0,0,0],"type":"VEC3"},{"bufferView":6,"componentType":5126,"count":20,"max":[0.53125,0.3125],"min":[0,0],"type":"VEC2"},{"bufferView":7,"componentType":5123,"count":30,"max":[19],"min":[0],"type":"SCALAR"},{"bufferView":8,"componentType":5126,"count":20,"max":[0.09375,0.125,0.25],"min":[-0.09375,0.125,0],"type":"VEC3"},{"bufferView":9,"componentType":5126,"count":20,"max":[1,1,0],"min":[0,0,0],"type":"VEC3"},{"bufferView":10,"componentType":5126,"count":20,"max":[0.53125,0.3125],"min":[0,0],"type":"VEC2"},{"bufferView":11,"componentType":5123,"count":30,"max":[19],"min":[0],"type":"SCALAR"},{"bufferView":12,"componentType":5126,"count":20,"max":[0,0.125,0.3125],"min":[0,0,0.0625],"type":"VEC3"},{"bufferView":13,"componentType":5126,"count":20,"max":[1,0,0],"min":[-1,0,0],"type":"VEC3"},{"bufferView":14,"componentType":5126,"count":20,"max":[0.5625,0.40625],"min":[0,0],"type":"VEC2"},{"bufferView":15,"componentType":5123,"count":30,"max":[19],"min":[0],"type":"SCALAR"},{"bufferView":16,"componentType":5126,"count":20,"max":[0,0,0.3125],"min":[0,-0.125,0.0625],"type":"VEC3"},{"bufferView":17,"componentType":5126,"count":20,"max":[1,0,0],"min":[-1,0,0],"type":"VEC3"},{"bufferView":18,"componentType":5126,"count":20,"max":[0.5625,0.40625],"min":[0,0],"type":"VEC2"},{"bufferView":19,"componentType":5123,"count":30,"max":[19],"min":[0],"type":"SCALAR"},{"bufferView":20,"componentType":5126,"count":24,"max":[0.046875,0.09375,0.0625],"min":[-0.046875,-0.09375,-0.0625],"type":"VEC3"},{"bufferView":21,"componentType":5126,"count":24,"max":[1,1,1],"min":[-1,-1,-1],"type":"VEC3"},{"bufferView":22,"componentType":5126,"count":24,"max":[0.65625,0.6875],"min":[0,0.15625],"type":"VEC2"},{"bufferView":23,"componentType":5123,"count":36,"max":[23],"min":[0],"type":"SCALAR"},{"bufferView":24,"componentType":5126,"count":20,"max":[0,0.1875,0.1875],"min":[0,-0.1875,-0.0625],"type":"VEC3"},{"bufferView":25,"componentType":5126,"count":20,"max":[1,0,0],"min":[-1,0,0],"type":"VEC3"},{"bufferView":26,"componentType":5126,"count":20,"max":[0.125,0.5625],"min":[0,0],"type":"VEC2"},{"bufferView":27,"componentType":5123,"count":30,"max":[19],"min":[0],"type":"SCALAR"},{"bufferView":28,"componentType":5126,"count":24,"max":[0.0625,0.203125,0.3125],"min":[-0.0625,-0.015625,0.1875],"type":"VEC3"},{"bufferView":29,"componentType":5126,"count":24,"max":[1,1,1],"min":[-1,-1,-1],"type":"VEC3"},{"bufferView":30,"componentType":5126,"count":24,"max":[0.6875,0.6875],"min":[0.15625,0],"type":"VEC2"},{"bufferView":31,"componentType":5123,"count":36,"max":[23],"min":[0],"type":"SCALAR"},{"bufferView":32,"componentType":5126,"count":198,"max":[6],"min":[0],"type":"SCALAR"},{"bufferView":33,"componentType":5126,"count":198,"max":[0.022740261629223824,0.05198201909661293,0.023122811689972878,1],"min":[-0.023166125640273094,-0.051991384476423264,-0.027267388999462128,0.9984625577926636],"type":"VEC4"},{"bufferView":34,"componentType":5126,"count":197,"max":[6],"min":[0],"type":"SCALAR"},{"bufferView":35,"componentType":5126,"count":197,"max":[0,0.28125,-0.03125],"min":[0,0.21875,-0.03125],"type":"VEC3"},{"bufferView":36,"componentType":5126,"count":197,"max":[6],"min":[0],"type":"SCALAR"},{"bufferView":37,"componentType":5126,"count":197,"max":[0.19134171307086945,0.03900358825922012,0.2175624519586563,1],"min":[-0.19509032368659973,-0.012120638974010944,-0.02427237667143345,0.9609174728393555],"type":"VEC4"},{"bufferView":38,"componentType":5126,"count":197,"max":[6],"min":[0],"type":"SCALAR"},{"bufferView":39,"componentType":5126,"count":197,"max":[0.19134171307086945,0.012120638974010944,0.02427237667143345,1],"min":[-0.19509032368659973,-0.03900358825922012,-0.2175624519586563,0.9609174728393555],"type":"VEC4"},{"bufferView":40,"componentType":5126,"count":159,"max":[4.708330154418945],"min":[0],"type":"SCALAR"},{"bufferView":41,"componentType":5126,"count":159,"max":[0,0.15545424818992615,0,1],"min":[0,-0.15544557571411133,0,0.9878430962562561],"type":"VEC4"},{"bufferView":42,"componentType":5126,"count":198,"max":[6],"min":[0],"type":"SCALAR"},{"bufferView":43,"componentType":5126,"count":198,"max":[0,0,0.0666215643286705,1],"min":[0,0,-0.06660284847021103,0.9977782964706421],"type":"VEC4"},{"bufferView":44,"componentType":5126,"count":199,"max":[6],"min":[0],"type":"SCALAR"},{"bufferView":45,"componentType":5126,"count":199,"max":[0.0033351557794958353,0.19509032368659973,0.04361938685178757,0.9990482330322266],"min":[-0.0033358638174831867,-0.19509032368659973,-0.04361938685178757,0.9807852506637573],"type":"VEC4"},{"bufferView":46,"componentType":5126,"count":198,"max":[6],"min":[0],"type":"SCALAR"},{"bufferView":47,"componentType":5126,"count":198,"max":[0,0,0.06660284847021103,1],"min":[0,0,-0.0666215643286705,0.9977782964706421],"type":"VEC4"},{"bufferView":48,"componentType":5126,"count":46,"max":[1],"min":[0],"type":"SCALAR"},{"bufferView":49,"componentType":5126,"count":46,"max":[0.002214759821072221,0.13052618503570557,0.04361938685178757,0.9990482330322266],"min":[-0.002214759821072221,-0.13052618503570557,-0.04361938685178757,0.9914448857307434],"type":"VEC4"},{"bufferView":50,"componentType":5126,"count":46,"max":[1],"min":[0],"type":"SCALAR"},{"bufferView":51,"componentType":5126,"count":46,"max":[0,0,0.39008840918540955,1],"min":[0,0,-0.39008840918540955,0.920777440071106],"type":"VEC4"},{"bufferView":52,"componentType":5126,"count":46,"max":[1],"min":[0],"type":"SCALAR"},{"bufferView":53,"componentType":5126,"count":46,"max":[0,0,0.39008840918540955,1],"min":[0,0,-0.39008840918540955,0.920777440071106],"type":"VEC4"},{"bufferView":54,"componentType":5126,"count":46,"max":[1],"min":[0],"type":"SCALAR"},{"bufferView":55,"componentType":5126,"count":46,"max":[0,0.13317899405956268,0,1],"min":[0,-0.13317899405956268,0,0.9910920262336731],"type":"VEC4"},{"bufferView":56,"componentType":5126,"count":46,"max":[1],"min":[0],"type":"SCALAR"},{"bufferView":57,"componentType":5126,"count":46,"max":[0,0,0.13317899405956268,1],"min":[0,0,-0.13317899405956268,0.9910920262336731],"type":"VEC4"},{"bufferView":58,"componentType":5126,"count":46,"max":[1],"min":[0],"type":"SCALAR"},{"bufferView":59,"componentType":5126,"count":46,"max":[0.008888138458132744,0.13288207352161407,0.06614378839731216,1],"min":[0,-0.13288207352161407,-0.06614378839731216,0.9888823628425598],"type":"VEC4"},{"bufferView":60,"componentType":5126,"count":46,"max":[1],"min":[0],"type":"SCALAR"},{"bufferView":61,"componentType":5126,"count":46,"max":[0,0,0.13317899405956268,1],"min":[0,0,-0.13317899405956268,0.9910920262336731],"type":"VEC4"}],"materials":[{"pbrMetallicRoughness":{"metallicFactor":0,"roughnessFactor":1,"baseColorTexture":{"index":0}},"alphaMode":"MASK","alphaCutoff":0.05,"doubleSided":true}],"textures":[{"sampler":0,"source":0,"name":"clownfish.png"}],"samplers":[{"magFilter":9728,"minFilter":9728,"wrapS":33071,"wrapT":33071}],"images":[{"mimeType":"image/png","uri":"data:image/png;base64,"}],"meshes":[{"primitives":[{"mode":4,"attributes":{"POSITION":0,"NORMAL":1,"TEXCOORD_0":2},"indices":3,"material":0}]},{"primitives":[{"mode":4,"attributes":{"POSITION":4,"NORMAL":5,"TEXCOORD_0":6},"indices":7,"material":0}]},{"primitives":[{"mode":4,"attributes":{"POSITION":8,"NORMAL":9,"TEXCOORD_0":10},"indices":11,"material":0}]},{"primitives":[{"mode":4,"attributes":{"POSITION":12,"NORMAL":13,"TEXCOORD_0":14},"indices":15,"material":0}]},{"primitives":[{"mode":4,"attributes":{"POSITION":16,"NORMAL":17,"TEXCOORD_0":18},"indices":19,"material":0}]},{"primitives":[{"mode":4,"attributes":{"POSITION":20,"NORMAL":21,"TEXCOORD_0":22},"indices":23,"material":0}]},{"primitives":[{"mode":4,"attributes":{"POSITION":24,"NORMAL":25,"TEXCOORD_0":26},"indices":27,"material":0}]},{"primitives":[{"mode":4,"attributes":{"POSITION":28,"NORMAL":29,"TEXCOORD_0":30},"indices":31,"material":0}]}],"animations":[{"name":"idle","samplers":[{"input":32,"output":33,"interpolation":"LINEAR"},{"input":34,"output":35,"interpolation":"LINEAR"},{"input":36,"output":37,"interpolation":"LINEAR"},{"input":38,"output":39,"interpolation":"LINEAR"},{"input":40,"output":41,"interpolation":"LINEAR"},{"input":42,"output":43,"interpolation":"LINEAR"},{"input":44,"output":45,"interpolation":"LINEAR"},{"input":46,"output":47,"interpolation":"LINEAR"}],"channels":[{"sampler":0,"target":{"node":14,"path":"rotation"}},{"sampler":1,"target":{"node":14,"path":"translation"}},{"sampler":2,"target":{"node":2,"path":"rotation"}},{"sampler":3,"target":{"node":4,"path":"rotation"}},{"sampler":4,"target":{"node":13,"path":"rotation"}},{"sampler":5,"target":{"node":6,"path":"rotation"}},{"sampler":6,"target":{"node":11,"path":"rotation"}},{"sampler":7,"target":{"node":8,"path":"rotation"}}]},{"name":"walk","samplers":[{"input":48,"output":49,"interpolation":"LINEAR"},{"input":50,"output":51,"interpolation":"LINEAR"},{"input":52,"output":53,"interpolation":"LINEAR"},{"input":54,"output":55,"interpolation":"LINEAR"},{"input":56,"output":57,"interpolation":"LINEAR"},{"input":58,"output":59,"interpolation":"LINEAR"},{"input":60,"output":61,"interpolation":"LINEAR"}],"channels":[{"sampler":0,"target":{"node":14,"path":"rotation"}},{"sampler":1,"target":{"node":2,"path":"rotation"}},{"sampler":2,"target":{"node":4,"path":"rotation"}},{"sampler":3,"target":{"node":13,"path":"rotation"}},{"sampler":4,"target":{"node":6,"path":"rotation"}},{"sampler":5,"target":{"node":11,"path":"rotation"}},{"sampler":6,"target":{"node":8,"path":"rotation"}}]}]}