{"asset":{"version":"2.0","generator":"Blockbench 4.12.6 glTF exporter"},"scenes":[{"nodes":[18],"name":"blockbench_export"}],"scene":0,"nodes":[{"translation":[-0.375,-0.0625,0],"name":"cube","mesh":0},{"translation":[-0.375,0.0625,-0.125],"name":"arm","children":[0]},{"translation":[0.375,-0.0625,0],"name":"cube","mesh":1},{"translation":[0.375,0.0625,-0.125],"name":"arm2","children":[2]},{"name":"cube","mesh":2},{"translation":[0,0.75,0],"name":"cube","mesh":3},{"rotation":[-0.19509032201612825,0,0,0.9807852804032304],"translation":[0.015625,0.49521875000000004,-0.398975625],"name":"cube","mesh":4},{"translation":[0,-0.625,0],"name":"cube","mesh":5},{"rotation":[0.19509032201612825,0,0,0.9807852804032304],"translation":[0.015625,-0.37021875,-0.398975625],"name":"cube","mesh":6},{"rotation":[0,-0.19509032201612825,0,0.9807852804032304],"translation":[-0.4327425,0.046875,-0.3989175],"name":"cube","mesh":7},{"translation":[-0.68752375,0.03125,0.0000575],"name":"cube","mesh":8},{"rotation":[0,0.19509032201612825,0,0.9807852804032304],"translation":[0.4327425,0.046875,-0.3989175],"name":"cube","mesh":9},{"translation":[0.68752375,0.03125,0.0000575],"name":"cube","mesh":10},{"rotation":[0,-0.19509032201612825,0,0.9807852804032304],"translation":[0.4327425,0.046875,0.3989175],"name":"cube","mesh":11},{"rotation":[-0.19509032201612825,0,0,0.9807852804032304],"translation":[0.015625,-0.37021875,0.398975625],"name":"cube","mesh":12},{"rotation":[0,0.19509032201612825,0,0.9807852804032304],"translation":[-0.4327425,0.046875,0.3989175],"name":"cube","mesh":13},{"rotation":[0.19509032201612825,0,0,0.9807852804032304],"translation":[0.015625,0.49521875000000004,0.398975625],"name":"cube","mesh":14},{"translation":[0,0.375,0],"name":"pufferfish","children":[1,3,4,5,6,7,8,9,10,11,12,13,14,15,16]},{"children":[17]}],"bufferViews":[{"buffer":0,"byteOffset":0,"byteLength":288,"target":34962,"byteStride":12},{"buffer":0,"byteOffset":288,"byteLength":288,"target":34962,"byteStride":12},{"buffer":0,"byteOffset":576,"byteLength":192,"target":34962,"byteStride":8},{"buffer":0,"byteOffset":768,"byteLength":72,"target":34963},{"buffer":0,"byteOffset":840,"byteLength":288,"target":34962,"byteStride":12},{"buffer":0,"byteOffset":1128,"byteLength":288,"target":34962,"byteStride":12},{"buffer":0,"byteOffset":1416,"byteLength":192,"target":34962,"byteStride":8},{"buffer":0,"byteOffset":1608,"byteLength":72,"target":34963},{"buffer":0,"byteOffset":1680,"byteLength":288,"target":34962,"byteStride":12},{"buffer":0,"byteOffset":1968,"byteLength":288,"target":34962,"byteStride":12},{"buffer":0,"byteOffset":2256,"byteLength":192,"target":34962,"byteStride":8},{"buffer":0,"byteOffset":2448,"byteLength":72,"target":34963},{"buffer":0,"byteOffset":2520,"byteLength":240,"target":34962,"byteStride":12},{"buffer":0,"byteOffset":2760,"byteLength":240,"target":34962,"byteStride":12},{"buffer":0,"byteOffset":3000,"byteLength":160,"target":34962,"byteStride":8},{"buffer":0,"byteOffset":3160,"byteLength":60,"target":34963},{"buffer":0,"byteOffset":3220,"byteLength":240,"target":34962,"byteStride":12},{"buffer":0,"byteOffset":3460,"byteLength":240,"target":34962,"byteStride":12},{"buffer":0,"byteOffset":3700,"byteLength":160,"target":34962,"byteStride":8},{"buffer":0,"byteOffset":3860,"byteLength":60,"target":34963},{"buffer":0,"byteOffset":3920,"byteLength":240,"target":34962,"byteStride":12},{"buffer":0,"byteOffset":4160,"byteLength":240,"target":34962,"byteStride":12},{"buffer":0,"byteOffset":4400,"byteLength":160,"target":34962,"byteStride":8},{"buffer":0,"byteOffset":4560,"byteLength":60,"target":34963},{"buffer":0,"byteOffset":4620,"byteLength":240,"target":34962,"byteStride":12},{"buffer":0,"byteOffset":4860,"byteLength":240,"target":34962,"byteStride":12},{"buffer":0,"byteOffset":5100,"byteLength":160,"target":34962,"byteStride":8},{"buffer":0,"byteOffset":5260,"byteLength":60,"target":34963},{"buffer":0,"byteOffset":5320,"byteLength":240,"target":34962,"byteStride":12},{"buffer":0,"byteOffset":5560,"byteLength":240,"target":34962,"byteStride":12},{"buffer":0,"byteOffset":5800,"byteLength":160,"target":34962,"byteStride":8},{"buffer":0,"byteOffset":5960,"byteLength":60,"target":34963},{"buffer":0,"byteOffset":6020,"byteLength":240,"target":34962,"byteStride":12},{"buffer":0,"byteOffset":6260,"byteLength":240,"target":34962,"byteStride":12},{"buffer":0,"byteOffset":6500,"byteLength":160,"target":34962,"byteStride":8},{"buffer":0,"byteOffset":6660,"byteLength":60,"target":34963},{"buffer":0,"byteOffset":6720,"byteLength":240,"target":34962,"byteStride":12},{"buffer":0,"byteOffset":6960,"byteLength":240,"target":34962,"byteStride":12},{"buffer":0,"byteOffset":7200,"byteLength":160,"target":34962,"byteStride":8},{"buffer":0,"byteOffset":7360,"byteLength":60,"target":34963},{"buffer":0,"byteOffset":7420,"byteLength":240,"target":34962,"byteStride":12},{"buffer":0,"byteOffset":7660,"byteLength":240,"target":34962,"byteStride":12},{"buffer":0,"byteOffset":7900,"byteLength":160,"target":34962,"byteStride":8},{"buffer":0,"byteOffset":8060,"byteLength":60,"target":34963},{"buffer":0,"byteOffset":8120,"byteLength":240,"target":34962,"byteStride":12},{"buffer":0,"byteOffset":8360,"byteLength":240,"target":34962,"byteStride":12},{"buffer":0,"byteOffset":8600,"byteLength":160,"target":34962,"byteStride":8},{"buffer":0,"byteOffset":8760,"byteLength":60,"target":34963},{"buffer":0,"byteOffset":8820,"byteLength":240,"target":34962,"byteStride":12},{"buffer":0,"byteOffset":9060,"byteLength":240,"target":34962,"byteStride":12},{"buffer":0,"byteOffset":9300,"byteLength":160,"target":34962,"byteStride":8},{"buffer":0,"byteOffset":9460,"byteLength":60,"target":34963},{"buffer":0,"byteOffset":9520,"byteLength":240,"target":34962,"byteStride":12},{"buffer":0,"byteOffset":9760,"byteLength":240,"target":34962,"byteStride":12},{"buffer":0,"byteOffset":10000,"byteLength":160,"target":34962,"byteStride":8},{"buffer":0,"byteOffset":10160,"byteLength":60,"target":34963},{"buffer":0,"byteOffset":10220,"byteLength":240,"target":34962,"byteStride":12},{"buffer":0,"byteOffset":10460,"byteLength":240,"target":34962,"byteStride":12},{"buffer":0,"byteOffset":10700,"byteLength":160,"target":34962,"byteStride":8},{"buffer":0,"byteOffset":10860,"byteLength":60,"target":34963},{"buffer":0,"byteOffset":10920,"byteLength":308},{"buffer":0,"byteOffset":11228,"byteLength":1232},{"buffer":0,"byteOffset":12460,"byteLength":308},{"buffer":0,"byteOffset":12768,"byteLength":924},{"buffer":0,"byteOffset":13692,"byteLength":308},{"buffer":0,"byteOffset":14000,"byteLength":1232},{"buffer":0,"byteOffset":15232,"byteLength":308},{"buffer":0,"byteOffset":15540,"byteLength":1232},{"buffer":0,"byteOffset":16772,"byteLength":184},{"buffer":0,"byteOffset":16956,"byteLength":736},{"buffer":0,"byteOffset":17692,"byteLength":184},{"buffer":0,"byteOffset":17876,"byteLength":552},{"buffer":0,"byteOffset":18428,"byteLength":184},{"buffer":0,"byteOffset":18612,"byteLength":736},{"buffer":0,"byteOffset":19348,"byteLength":184},{"buffer":0,"byteOffset":19532,"byteLength":736},{"buffer":0,"byteOffset":20268,"byteLength":264},{"buffer":0,"byteOffset":20532,"byteLength":1056},{"buffer":0,"byteOffset":21588,"byteLength":4},{"buffer":0,"byteOffset":21592,"byteLength":12},{"buffer":0,"byteOffset":21604,"byteLength":220},{"buffer":0,"byteOffset":21824,"byteLength":660},{"buffer":0,"byteOffset":22484,"byteLength":244},{"buffer":0,"byteOffset":22728,"byteLength":976},{"buffer":0,"byteOffset":23704,"byteLength":244},{"buffer":0,"byteOffset":23948,"byteLength":976}],"buffers":[{"byteLength":24924,"uri":"data:application/octet-stream;base64,"}],"accessors":[{"bufferView":0,"componentType":5126,"count":24,"max":[0.375,0.1875,0.0625],"min":[0.0625,-0.0625,-0.0625],"type":"VEC3"},{"bufferView":1,"componentType":5126,"count":24,"max":[1,1,1],"min":[-1,-1,-1],"type":"VEC3"},{"bufferView":2,"componentType":5126,"count":24,"max":[0.53125,0.5625],"min":[0.296875,0.25],"type":"VEC2"},{"bufferView":3,"componentType":5123,"count":36,"max":[23],"min":[0],"type":"SCALAR"},{"bufferView":4,"componentType":5126,"count":24,"max":[-0.0625,0.1875,0.0625],"min":[-0.375,-0.0625,-0.0625],"type":"VEC3"},{"bufferView":5,"componentType":5126,"count":24,"max":[1,1,1],"min":[-1,-1,-1],"type":"VEC3"},{"bufferView":6,"componentType":5126,"count":24,"max":[0.5625,0.5625],"min":[0.203125,0.328125],"type":"VEC2"},{"bufferView":7,"componentType":5123,"count":36,"max":[23],"min":[0],"type":"SCALAR"},{"bufferView":8,"componentType":5126,"count":24,"max":[0.375,0.4375,0.375],"min":[-0.375,-0.3125,-0.375],"type":"VEC3"},{"bufferView":9,"componentType":5126,"count":24,"max":[1,1,1],"min":[-1,-1,-1],"type":"VEC3"},{"bufferView":10,"componentType":5126,"count":24,"max":[0.59375,0.59375],"min":[0,0],"type":"VEC2"},{"bufferView":11,"componentType":5123,"count":36,"max":[23],"min":[0],"type":"SCALAR"},{"bufferView":12,"componentType":5126,"count":20,"max":[0.328125,-0.1875,0],"min":[-0.328125,-0.3125,0],"type":"VEC3"},{"bufferView":13,"componentType":5126,"count":20,"max":[1,0,0],"min":[0,0,-1],"type":"VEC3"},{"bufferView":14,"componentType":5126,"count":20,"max":[0.578125,0.234375],"min":[0,0],"type":"VEC2"},{"bufferView":15,"componentType":5123,"count":30,"max":[19],"min":[0],"type":"SCALAR"},{"bufferView":16,"componentType":5126,"count":20,"max":[0.328125,0.0625,0],"min":[-0.328125,-0.0625,0],"type":"VEC3"},{"bufferView":17,"componentType":5126,"count":20,"max":[1,0,0],"min":[0,0,-1],"type":"VEC3"},{"bufferView":18,"componentType":5126,"count":20,"max":[0.578125,0.234375],"min":[0,0],"type":"VEC2"},{"bufferView":19,"componentType":5123,"count":30,"max":[19],"min":[0],"type":"SCALAR"},{"bufferView":20,"componentType":5126,"count":20,"max":[0.328125,0.3125,0],"min":[-0.328125,0.1875,0],"type":"VEC3"},{"bufferView":21,"componentType":5126,"count":20,"max":[1,0,0],"min":[0,0,-1],"type":"VEC3"},{"bufferView":22,"componentType":5126,"count":20,"max":[0.578125,0.234375],"min":[0,0],"type":"VEC2"},{"bufferView":23,"componentType":5123,"count":30,"max":[19],"min":[0],"type":"SCALAR"},{"bufferView":24,"componentType":5126,"count":20,"max":[0.328125,0.0625,0],"min":[-0.328125,-0.0625,0],"type":"VEC3"},{"bufferView":25,"componentType":5126,"count":20,"max":[1,0,0],"min":[0,0,-1],"type":"VEC3"},{"bufferView":26,"componentType":5126,"count":20,"max":[0.578125,0.234375],"min":[0,0],"type":"VEC2"},{"bufferView":27,"componentType":5123,"count":30,"max":[19],"min":[0],"type":"SCALAR"},{"bufferView":28,"componentType":5126,"count":20,"max":[0.0625,0.328125,0],"min":[-0.0625,-0.328125,0],"type":"VEC3"},{"bufferView":29,"componentType":5126,"count":20,"max":[1,0,0],"min":[0,0,-1],"type":"VEC3"},{"bufferView":30,"componentType":5126,"count":20,"max":[0.578125,0.234375],"min":[0,0],"type":"VEC2"},{"bufferView":31,"componentType":5123,"count":30,"max":[19],"min":[0],"type":"SCALAR"},{"bufferView":32,"componentType":5126,"count":20,"max":[0.3125,0.328125,0],"min":[0.1875,-0.328125,0],"type":"VEC3"},{"bufferView":33,"componentType":5126,"count":20,"max":[1,0,0],"min":[0,0,-1],"type":"VEC3"},{"bufferView":34,"componentType":5126,"count":20,"max":[0.578125,0.234375],"min":[0,0],"type":"VEC2"},{"bufferView":35,"componentType":5123,"count":30,"max":[19],"min":[0],"type":"SCALAR"},{"bufferView":36,"componentType":5126,"count":20,"max":[0.0625,0.328125,0],"min":[-0.0625,-0.328125,0],"type":"VEC3"},{"bufferView":37,"componentType":5126,"count":20,"max":[1,0,0],"min":[0,0,-1],"type":"VEC3"},{"bufferView":38,"componentType":5126,"count":20,"max":[0.578125,0.234375],"min":[0,0],"type":"VEC2"},{"bufferView":39,"componentType":5123,"count":30,"max":[19],"min":[0],"type":"SCALAR"},{"bufferView":40,"componentType":5126,"count":20,"max":[-0.1875,0.328125,0],"min":[-0.3125,-0.328125,0],"type":"VEC3"},{"bufferView":41,"componentType":5126,"count":20,"max":[1,0,0],"min":[0,0,-1],"type":"VEC3"},{"bufferView":42,"componentType":5126,"count":20,"max":[0.578125,0.234375],"min":[0,0],"type":"VEC2"},{"bufferView":43,"componentType":5123,"count":30,"max":[19],"min":[0],"type":"SCALAR"},{"bufferView":44,"componentType":5126,"count":20,"max":[0.0625,0.328125,0],"min":[-0.0625,-0.328125,0],"type":"VEC3"},{"bufferView":45,"componentType":5126,"count":20,"max":[1,0,1],"min":[0,0,0],"type":"VEC3"},{"bufferView":46,"componentType":5126,"count":20,"max":[0.578125,0.234375],"min":[0,0],"type":"VEC2"},{"bufferView":47,"componentType":5123,"count":30,"max":[19],"min":[0],"type":"SCALAR"},{"bufferView":48,"componentType":5126,"count":20,"max":[0.328125,0.0625,0],"min":[-0.328125,-0.0625,0],"type":"VEC3"},{"bufferView":49,"componentType":5126,"count":20,"max":[1,0,1],"min":[0,0,0],"type":"VEC3"},{"bufferView":50,"componentType":5126,"count":20,"max":[0.578125,0.234375],"min":[0,0],"type":"VEC2"},{"bufferView":51,"componentType":5123,"count":30,"max":[19],"min":[0],"type":"SCALAR"},{"bufferView":52,"componentType":5126,"count":20,"max":[0.0625,0.328125,0],"min":[-0.0625,-0.328125,0],"type":"VEC3"},{"bufferView":53,"componentType":5126,"count":20,"max":[1,0,1],"min":[0,0,0],"type":"VEC3"},{"bufferView":54,"componentType":5126,"count":20,"max":[0.578125,0.234375],"min":[0,0],"type":"VEC2"},{"bufferView":55,"componentType":5123,"count":30,"max":[19],"min":[0],"type":"SCALAR"},{"bufferView":56,"componentType":5126,"count":20,"max":[0.328125,0.0625,0],"min":[-0.328125,-0.0625,0],"type":"VEC3"},{"bufferView":57,"componentType":5126,"count":20,"max":[1,0,1],"min":[0,0,0],"type":"VEC3"},{"bufferView":58,"componentType":5126,"count":20,"max":[0.578125,0.234375],"min":[0,0],"type":"VEC2"},{"bufferView":59,"componentType":5123,"count":30,"max":[19],"min":[0],"type":"SCALAR"},{"bufferView":60,"componentType":5126,"count":77,"max":[2],"min":[0],"type":"SCALAR"},{"bufferView":61,"componentType":5126,"count":77,"max":[0.02181488461792469,0.0001859121985035017,0.02181488461792469,0.9998140931129456],"min":[-0.02181488461792469,-0.0001859121985035017,-0.02181488461792469,0.9997619986534119],"type":"VEC4"},{"bufferView":62,"componentType":5126,"count":77,"max":[2],"min":[0],"type":"SCALAR"},{"bufferView":63,"componentType":5126,"count":77,"max":[0,0.5,0],"min":[0,0.375,0],"type":"VEC3"},{"bufferView":64,"componentType":5126,"count":77,"max":[2],"min":[0],"type":"SCALAR"},{"bufferView":65,"componentType":5126,"count":77,"max":[0,0,0.3214394748210907,0.9914448857307434],"min":[0,0,0.13052618503570557,0.9469301104545593],"type":"VEC4"},{"bufferView":66,"componentType":5126,"count":77,"max":[2],"min":[0],"type":"SCALAR"},{"bufferView":67,"componentType":5126,"count":77,"max":[0,0,-0.13052618503570557,0.9914448857307434],"min":[0,0,-0.3214394748210907,0.9469301104545593],"type":"VEC4"},{"bufferView":68,"componentType":5126,"count":46,"max":[1],"min":[0],"type":"SCALAR"},{"bufferView":69,"componentType":5126,"count":46,"max":[0.044510576874017715,0,0,1],"min":[-0.044510576874017715,0,0,0.9990088939666748],"type":"VEC4"},{"bufferView":70,"componentType":5126,"count":46,"max":[1],"min":[0],"type":"SCALAR"},{"bufferView":71,"componentType":5126,"count":46,"max":[0,0.4375,0],"min":[0,0.375,0],"type":"VEC3"},{"bufferView":72,"componentType":5126,"count":46,"max":[1],"min":[0],"type":"SCALAR"},{"bufferView":73,"componentType":5126,"count":46,"max":[0.07465783506631851,0.4275352656841278,0.18510067462921143,1],"min":[-0.07465783506631851,0,-0.18587565422058105,0.9016956090927124],"type":"VEC4"},{"bufferView":74,"componentType":5126,"count":46,"max":[1],"min":[0],"type":"SCALAR"},{"bufferView":75,"componentType":5126,"count":46,"max":[0.07465783506631851,0,0.18587565422058105,1],"min":[-0.07465783506631851,-0.4275352656841278,-0.18510067462921143,0.9016956090927124],"type":"VEC4"},{"bufferView":76,"componentType":5126,"count":66,"max":[1.6666699647903442],"min":[0],"type":"SCALAR"},{"bufferView":77,"componentType":5126,"count":66,"max":[0.15696217119693756,0,0,1],"min":[-0.1541910469532013,0,0,0.9876046180725098],"type":"VEC4"},{"bufferView":78,"componentType":5126,"count":1,"max":[0],"min":[0],"type":"SCALAR"},{"bufferView":79,"componentType":5126,"count":1,"max":[0,0.375,0],"min":[0,0.375,0],"type":"VEC3"},{"bufferView":80,"componentType":5126,"count":55,"max":[1.3333300352096558],"min":[0],"type":"SCALAR"},{"bufferView":81,"componentType":5126,"count":55,"max":[1.4383999109268188,1.4383999109268188,1.4383999109268188],"min":[0.5888000130653381,0.5888000130653381,0.5888000130653381],"type":"VEC3"},{"bufferView":82,"componentType":5126,"count":61,"max":[1.5],"min":[0],"type":"SCALAR"},{"bufferView":83,"componentType":5126,"count":61,"max":[0,0,0.6248596906661987,1],"min":[0,0,-0.25932496786117554,0.7807371020317078],"type":"VEC4"},{"bufferView":84,"componentType":5126,"count":61,"max":[1.5],"min":[0],"type":"SCALAR"},{"bufferView":85,"componentType":5126,"count":61,"max":[0,0,0.25932496786117554,1],"min":[0,0,-0.6248596906661987,0.7807371020317078],"type":"VEC4"}],"materials":[{"pbrMetallicRoughness":{"metallicFactor":0,"roughnessFactor":1,"baseColorTexture":{"index":0}},"alphaMode":"MASK","alphaCutoff":0.05,"doubleSided":true}],"textures":[{"sampler":0,"source":0,"name":"pufferfish.png"}],"samplers":[{"magFilter":9728,"minFilter":9728,"wrapS":33071,"wrapT":33071}],"images":[{"mimeType":"image/png","uri":"data:image/png;base64,"}],"meshes":[{"primitives":[{"mode":4,"attributes":{"POSITION":0,"NORMAL":1,"TEXCOORD_0":2},"indices":3,"material":0}]},{"primitives":[{"mode":4,"attributes":{"POSITION":4,"NORMAL":5,"TEXCOORD_0":6},"indices":7,"material":0}]},{"primitives":[{"mode":4,"attributes":{"POSITION":8,"NORMAL":9,"TEXCOORD_0":10},"indices":11,"material":0}]},{"primitives":[{"mode":4,"attributes":{"POSITION":12,"NORMAL":13,"TEXCOORD_0":14},"indices":15,"material":0}]},{"primitives":[{"mode":4,"attributes":{"POSITION":16,"NORMAL":17,"TEXCOORD_0":18},"indices":19,"material":0}]},{"primitives":[{"mode":4,"attributes":{"POSITION":20,"NORMAL":21,"TEXCOORD_0":22},"indices":23,"material":0}]},{"primitives":[{"mode":4,"attributes":{"POSITION":24,"NORMAL":25,"TEXCOORD_0":26},"indices":27,"material":0}]},{"primitives":[{"mode":4,"attributes":{"POSITION":28,"NORMAL":29,"TEXCOORD_0":30},"indices":31,"material":0}]},{"primitives":[{"mode":4,"attributes":{"POSITION":32,"NORMAL":33,"TEXCOORD_0":34},"indices":35,"material":0}]},{"primitives":[{"mode":4,"attributes":{"POSITION":36,"NORMAL":37,"TEXCOORD_0":38},"indices":39,"material":0}]},{"primitives":[{"mode":4,"attributes":{"POSITION":40,"NORMAL":41,"TEXCOORD_0":42},"indices":43,"material":0}]},{"primitives":[{"mode":4,"attributes":{"POSITION":44,"NORMAL":45,"TEXCOORD_0":46},"indices":47,"material":0}]},{"primitives":[{"mode":4,"attributes":{"POSITION":48,"NORMAL":49,"TEXCOORD_0":50},"indices":51,"material":0}]},{"primitives":[{"mode":4,"attributes":{"POSITION":52,"NORMAL":53,"TEXCOORD_0":54},"indices":55,"material":0}]},{"primitives":[{"mode":4,"attributes":{"POSITION":56,"NORMAL":57,"TEXCOORD_0":58},"indices":59,"material":0}]}],"animations":[{"name":"idle","samplers":[{"input":60,"output":61,"interpolation":"LINEAR"},{"input":62,"output":63,"interpolation":"LINEAR"},{"input":64,"output":65,"interpolation":"LINEAR"},{"input":66,"output":67,"interpolation":"LINEAR"}],"channels":[{"sampler":0,"target":{"node":17,"path":"rotation"}},{"sampler":1,"target":{"node":17,"path":"translation"}},{"sampler":2,"target":{"node":1,"path":"rotation"}},{"sampler":3,"target":{"node":3,"path":"rotation"}}]},{"name":"walk","samplers":[{"input":68,"output":69,"interpolation":"LINEAR"},{"input":70,"output":71,"interpolation":"LINEAR"},{"input":72,"output":73,"interpolation":"LINEAR"},{"input":74,"output":75,"interpolation":"LINEAR"}],"channels":[{"sampler":0,"target":{"node":17,"path":"rotation"}},{"sampler":1,"target":{"node":17,"path":"translation"}},{"sampler":2,"target":{"node":1,"path":"rotation"}},{"sampler":3,"target":{"node":3,"path":"rotation"}}]},{"name":"attack","samplers":[{"input":76,"output":77,"interpolation":"LINEAR"},{"input":78,"output":79,"interpolation":"LINEAR"},{"input":80,"output":81,"interpolation":"LINEAR"},{"input":82,"output":83,"interpolation":"LINEAR"},{"input":84,"output":85,"interpolation":"LINEAR"}],"channels":[{"sampler":0,"target":{"node":17,"path":"rotation"}},{"sampler":1,"target":{"node":17,"path":"translation"}},{"sampler":2,"target":{"node":17,"path":"scale"}},{"sampler":3,"target":{"node":1,"path":"rotation"}},{"sampler":4,"target":{"node":3,"path":"rotation"}}]}]}