{"asset":{"version":"2.0","generator":"Blockbench 5.0.3 glTF exporter"},"scenes":[{"nodes":[4],"name":"blockbench_export"}],"scene":0,"nodes":[{"rotation":[0.6532814824381882,0.27059805007309845,-0.2705980500730985,0.6532814824381883],"translation":[0,1.5,0],"name":"plane","mesh":0},{"translation":[0,-0.5,0],"name":"bone","children":[0]},{"rotation":[0.2705980500730985,0.6532814824381882,-0.6532814824381883,0.27059805007309856],"translation":[0,0.5,0],"name":"plane","mesh":1},{"translation":[0,-0.5,0],"name":"bone2","children":[2]},{"translation":[0,0.5,0],"name":"TallGrass","children":[1,3]}],"bufferViews":[{"buffer":0,"byteOffset":0,"byteLength":96,"target":34962,"byteStride":12},{"buffer":0,"byteOffset":96,"byteLength":96,"target":34962,"byteStride":12},{"buffer":0,"byteOffset":192,"byteLength":64,"target":34962,"byteStride":8},{"buffer":0,"byteOffset":256,"byteLength":24,"target":34963},{"buffer":0,"byteOffset":280,"byteLength":96,"target":34962,"byteStride":12},{"buffer":0,"byteOffset":376,"byteLength":96,"target":34962,"byteStride":12},{"buffer":0,"byteOffset":472,"byteLength":64,"target":34962,"byteStride":8},{"buffer":0,"byteOffset":536,"byteLength":24,"target":34963},{"buffer":0,"byteOffset":560,"byteLength":784},{"buffer":0,"byteOffset":1344,"byteLength":3136},{"buffer":0,"byteOffset":4480,"byteLength":784},{"buffer":0,"byteOffset":5264,"byteLength":3136}],"buffers":[{"byteLength":8400,"uri":"data:application/octet-stream;base64,"}],"accessors":[{"bufferView":0,"componentType":5126,"count":8,"max":[0.5,0,1.5],"min":[-0.5,-2.700040868546026e-16,-0.5],"type":"VEC3"},{"bufferView":1,"componentType":5126,"count":8,"max":[0,1,0],"min":[-2.7755575615628914e-17,1,-2.7755575615628914e-17],"type":"VEC3"},{"bufferView":2,"componentType":5126,"count":8,"max":[0.125,0.265625],"min":[0,0.015624985098838806],"type":"VEC2"},{"bufferView":3,"componentType":5123,"count":12,"max":[7],"min":[0],"type":"SCALAR"},{"bufferView":4,"componentType":5126,"count":8,"max":[0.5,0,0.5],"min":[-0.5,-1.9905112794820488e-16,-1.5],"type":"VEC3"},{"bufferView":5,"componentType":5126,"count":8,"max":[5.551115123125783e-17,1,0],"min":[0,1,-2.7755575615628914e-17],"type":"VEC3"},{"bufferView":6,"componentType":5126,"count":8,"max":[0.2578125,0.265625],"min":[0.1328125,0.015624985098838806],"type":"VEC2"},{"bufferView":7,"componentType":5123,"count":12,"max":[7],"min":[0],"type":"SCALAR"},{"bufferView":8,"componentType":5126,"count":196,"max":[5.983333110809326],"min":[0],"type":"SCALAR"},{"bufferView":9,"componentType":5126,"count":196,"max":[0.006107683759182692,0.000028723474315484054,0.006108557339757681,1],"min":[-0.006107683759182692,-0.000028723474315484054,-0.006108557339757681,0.9999708533287048],"type":"VEC4"},{"bufferView":10,"componentType":5126,"count":196,"max":[5.983333110809326],"min":[0],"type":"SCALAR"},{"bufferView":11,"componentType":5126,"count":196,"max":[0.006107683759182692,0.000028723474315484054,0.006108557339757681,1],"min":[-0.006107683759182692,-0.000028723474315484054,-0.006108557339757681,0.9999708533287048],"type":"VEC4"}],"materials":[{"pbrMetallicRoughness":{"metallicFactor":0,"roughnessFactor":1,"baseColorTexture":{"index":0}},"alphaMode":"MASK","alphaCutoff":0.05,"doubleSided":true}],"textures":[{"sampler":0,"source":0,"name":"TallGrass.png"}],"samplers":[{"magFilter":9728,"minFilter":9728,"wrapS":33071,"wrapT":33071}],"images":[{"mimeType":"image/png","uri":"data:image/png;base64,"}],"meshes":[{"primitives":[{"mode":4,"attributes":{"POSITION":0,"NORMAL":1,"TEXCOORD_0":2},"indices":3,"material":0}]},{"primitives":[{"mode":4,"attributes":{"POSITION":4,"NORMAL":5,"TEXCOORD_0":6},"indices":7,"material":0}]}],"animations":[{"name":"idle","samplers":[{"input":8,"output":9,"interpolation":"LINEAR"},{"input":10,"output":11,"interpolation":"LINEAR"}],"channels":[{"sampler":0,"target":{"node":1,"path":"rotation"}},{"sampler":1,"target":{"node":3,"path":"rotation"}}]}]}