{
  "asset": {
    "version": "2.0",
    "generator": "Blockbench 4.12.4 glTF exporter"
  },
  "scenes": [
    {
      "nodes": [
        5
      ],
      "name": "blockbench_export"
    }
  ],
  "scene": 0,
  "nodes": [
    {
      "rotation": [
        0.2705980500730985,
        0.6532814824381882,
        -0.6532814824381883,
        0.27059805007309856
      ],
      "translation": [
        0,
        0.5,
        0
      ],
      "name": "plane",
      "mesh": 0
    },
    {
      "translation": [
        0,
        -0.5,
        0
      ],
      "name": "bone",
      "children": [
        0
      ]
    },
    {
      "rotation": [
        0.6532814824381882,
        0.27059805007309845,
        -0.2705980500730985,
        0.6532814824381883
      ],
      "translation": [
        0,
        0.5,
        0
      ],
      "name": "plane",
      "mesh": 1
    },
    {
      "translation": [
        0,
        -0.5,
        0
      ],
      "name": "bone2",
      "children": [
        2
      ]
    },
    {
      "translation": [
        0,
        0.5,
        0
      ],
      "name": "Grass",
      "children": [
        1,
        3
      ]
    },
    {
      "children": [
        4
      ]
    }
  ],
  "bufferViews": [
    {
      "buffer": 0,
      "byteOffset": 0,
      "byteLength": 48,
      "target": 34962,
      "byteStride": 12
    },
    {
      "buffer": 0,
      "byteOffset": 48,
      "byteLength": 48,
      "target": 34962,
      "byteStride": 12
    },
    {
      "buffer": 0,
      "byteOffset": 96,
      "byteLength": 32,
      "target": 34962,
      "byteStride": 8
    },
    {
      "buffer": 0,
      "byteOffset": 128,
      "byteLength": 12,
      "target": 34963
    },
    {
      "buffer": 0,
      "byteOffset": 140,
      "byteLength": 48,
      "target": 34962,
      "byteStride": 12
    },
    {
      "buffer": 0,
      "byteOffset": 188,
      "byteLength": 48,
      "target": 34962,
      "byteStride": 12
    },
    {
      "buffer": 0,
      "byteOffset": 236,
      "byteLength": 32,
      "target": 34962,
      "byteStride": 8
    },
    {
      "buffer": 0,
      "byteOffset": 268,
      "byteLength": 12,
      "target": 34963
    },
    {
      "buffer": 0,
      "byteOffset": 280,
      "byteLength": 444
    },
    {
      "buffer": 0,
      "byteOffset": 724,
      "byteLength": 1776
    },
    {
      "buffer": 0,
      "byteOffset": 2500,
      "byteLength": 444
    },
    {
      "buffer": 0,
      "byteOffset": 2944,
      "byteLength": 1776
    }
  ],
  "buffers": [
    {
      "byteLength": 4720,
      "uri": "data:application/octet-stream;base64,"
    }
  ],
  "accessors": [
    {
      "bufferView": 0,
      "componentType": 5126,
      "count": 4,
      "max": [
        0.5,
        0,
        0.5
      ],
      "min": [
        -0.5,
        0,
        -0.5
      ],
      "type": "VEC3"
    },
    {
      "bufferView": 1,
      "componentType": 5126,
      "count": 4,
      "max": [
        0,
        1,
        0
      ],
      "min": [
        0,
        1,
        0
      ],
      "type": "VEC3"
    },
    {
      "bufferView": 2,
      "componentType": 5126,
      "count": 4,
      "max": [
        0.25,
        0.25
      ],
      "min": [
        0,
        0
      ],
      "type": "VEC2"
    },
    {
      "bufferView": 3,
      "componentType": 5123,
      "count": 6,
      "max": [
        3
      ],
      "min": [
        0
      ],
      "type": "SCALAR"
    },
    {
      "bufferView": 4,
      "componentType": 5126,
      "count": 4,
      "max": [
        0.5,
        0,
        0.5
      ],
      "min": [
        -0.5,
        0,
        -0.5
      ],
      "type": "VEC3"
    },
    {
      "bufferView": 5,
      "componentType": 5126,
      "count": 4,
      "max": [
        0,
        1,
        0
      ],
      "min": [
        0,
        1,
        0
      ],
      "type": "VEC3"
    },
    {
      "bufferView": 6,
      "componentType": 5126,
      "count": 4,
      "max": [
        0.515625,
        0.25
      ],
      "min": [
        0.265625,
        0
      ],
      "type": "VEC2"
    },
    {
      "bufferView": 7,
      "componentType": 5123,
      "count": 6,
      "max": [
        3
      ],
      "min": [
        0
      ],
      "type": "SCALAR"
    },
    {
      "bufferView": 8,
      "componentType": 5126,
      "count": 111,
      "max": [
        6
      ],
      "min": [
        0
      ],
      "type": "SCALAR"
    },
    {
      "bufferView": 9,
      "componentType": 5126,
      "count": 111,
      "max": [
        0.008726535364985466,
        5.8618745242711157e-05,
        0.008726369589567184,
        1
      ],
      "min": [
        -0.008726535364985466,
        -5.8618745242711157e-05,
        -0.008726369589567184,
        0.9999405145645142
      ],
      "type": "VEC4"
    },
    {
      "bufferView": 10,
      "componentType": 5126,
      "count": 111,
      "max": [
        6
      ],
      "min": [
        0
      ],
      "type": "SCALAR"
    },
    {
      "bufferView": 11,
      "componentType": 5126,
      "count": 111,
      "max": [
        0.008726535364985466,
        5.8618745242711157e-05,
        0.008726369589567184,
        1
      ],
      "min": [
        -0.008726535364985466,
        -5.8618745242711157e-05,
        -0.008726369589567184,
        0.9999405145645142
      ],
      "type": "VEC4"
    }
  ],
  "materials": [
    {
      "pbrMetallicRoughness": {
        "metallicFactor": 0,
        "roughnessFactor": 1,
        "baseColorTexture": {
          "index": 0
        }
      },
      "alphaMode": "MASK",
      "alphaCutoff": 0.05,
      "doubleSided": true
    }
  ],
  "textures": [
    {
      "sampler": 0,
      "source": 0,
      "name": "Grass.png"
    }
  ],
  "samplers": [
    {
      "magFilter": 9728,
      "minFilter": 9728,
      "wrapS": 33071,
      "wrapT": 33071
    }
  ],
  "images": [
    {
      "mimeType": "image/png",
      "uri": "data:image/png;base64,"
    }
  ],
  "meshes": [
    {
      "primitives": [
        {
          "mode": 4,
          "attributes": {
            "POSITION": 0,
            "NORMAL": 1,
            "TEXCOORD_0": 2
          },
          "indices": 3,
          "material": 0
        }
      ]
    },
    {
      "primitives": [
        {
          "mode": 4,
          "attributes": {
            "POSITION": 4,
            "NORMAL": 5,
            "TEXCOORD_0": 6
          },
          "indices": 7,
          "material": 0
        }
      ]
    }
  ],
  "animations": [
    {
      "name": "idle",
      "samplers": [
        {
          "input": 8,
          "output": 9,
          "interpolation": "LINEAR"
        },
        {
          "input": 10,
          "output": 11,
          "interpolation": "LINEAR"
        }
      ],
      "channels": [
        {
          "sampler": 0,
          "target": {
            "node": 1,
            "path": "rotation"
          }
        },
        {
          "sampler": 1,
          "target": {
            "node": 3,
            "path": "rotation"
          }
        }
      ]
    }
  ]
}