{"asset":{"version":"2.0","generator":"Blockbench 5.0.7 glTF exporter"},"scenes":[{"nodes":[8],"name":"blockbench_export"}],"scene":0,"nodes":[{"translation":[0,0.625,0],"name":"cube","mesh":0},{"translation":[0,0.125,0],"name":"cube","mesh":1},{"name":"cube","mesh":2},{"rotation":[0,0,-0.17364817766693033,0.984807753012208],"translation":[-0.375,1.28125,0],"name":"cube","mesh":3},{"translation":[0,0.0625,0],"name":"cube","mesh":4},{"translation":[0,0.0625,0],"name":"cube","mesh":5},{"rotation":[0,0,-0.19509032201612825,0.9807852804032304],"translation":[-0.5,1.1875,0],"name":"cube","mesh":6},{"translation":[0,0,0.125],"name":"cube","mesh":7},{"name":"group","children":[0,1,2,3,4,5,6,7]}],"bufferViews":[{"buffer":0,"byteOffset":0,"byteLength":768,"target":34962,"byteStride":12},{"buffer":0,"byteOffset":768,"byteLength":768,"target":34962,"byteStride":12},{"buffer":0,"byteOffset":1536,"byteLength":512,"target":34962,"byteStride":8},{"buffer":0,"byteOffset":2048,"byteLength":192,"target":34963},{"buffer":0,"byteOffset":2240,"byteLength":480,"target":34962,"byteStride":12},{"buffer":0,"byteOffset":2720,"byteLength":480,"target":34962,"byteStride":12},{"buffer":0,"byteOffset":3200,"byteLength":320,"target":34962,"byteStride":8},{"buffer":0,"byteOffset":3520,"byteLength":120,"target":34963},{"buffer":0,"byteOffset":3640,"byteLength":288,"target":34962,"byteStride":12},{"buffer":0,"byteOffset":3928,"byteLength":288,"target":34962,"byteStride":12},{"buffer":0,"byteOffset":4216,"byteLength":192,"target":34962,"byteStride":8},{"buffer":0,"byteOffset":4408,"byteLength":72,"target":34963},{"buffer":0,"byteOffset":4480,"byteLength":768,"target":34962,"byteStride":12},{"buffer":0,"byteOffset":5248,"byteLength":768,"target":34962,"byteStride":12},{"buffer":0,"byteOffset":6016,"byteLength":512,"target":34962,"byteStride":8},{"buffer":0,"byteOffset":6528,"byteLength":192,"target":34963},{"buffer":0,"byteOffset":6720,"byteLength":768,"target":34962,"byteStride":12},{"buffer":0,"byteOffset":7488,"byteLength":768,"target":34962,"byteStride":12},{"buffer":0,"byteOffset":8256,"byteLength":512,"target":34962,"byteStride":8},{"buffer":0,"byteOffset":8768,"byteLength":192,"target":34963},{"buffer":0,"byteOffset":8960,"byteLength":768,"target":34962,"byteStride":12},{"buffer":0,"byteOffset":9728,"byteLength":768,"target":34962,"byteStride":12},{"buffer":0,"byteOffset":10496,"byteLength":512,"target":34962,"byteStride":8},{"buffer":0,"byteOffset":11008,"byteLength":192,"target":34963},{"buffer":0,"byteOffset":11200,"byteLength":288,"target":34962,"byteStride":12},{"buffer":0,"byteOffset":11488,"byteLength":288,"target":34962,"byteStride":12},{"buffer":0,"byteOffset":11776,"byteLength":192,"target":34962,"byteStride":8},{"buffer":0,"byteOffset":11968,"byteLength":72,"target":34963},{"buffer":0,"byteOffset":12040,"byteLength":288,"target":34962,"byteStride":12},{"buffer":0,"byteOffset":12328,"byteLength":288,"target":34962,"byteStride":12},{"buffer":0,"byteOffset":12616,"byteLength":192,"target":34962,"byteStride":8},{"buffer":0,"byteOffset":12808,"byteLength":72,"target":34963}],"buffers":[{"byteLength":12880,"uri":"data:application/octet-stream;base64,"}],"accessors":[{"bufferView":0,"componentType":5126,"count":64,"max":[0.3125,0.25,0.3125],"min":[-0.3125,0,-0.3125],"type":"VEC3"},{"bufferView":1,"componentType":5126,"count":64,"max":[1,1,1],"min":[-1,-1,-1],"type":"VEC3"},{"bufferView":2,"componentType":5126,"count":64,"max":[0.687261700630188,0.609375],"min":[0.0002382812526775524,0.1875],"type":"VEC2"},{"bufferView":3,"componentType":5123,"count":96,"max":[63],"min":[0],"type":"SCALAR"},{"bufferView":4,"componentType":5126,"count":40,"max":[0.375,0.5,0.375],"min":[-0.375,0,-0.375],"type":"VEC3"},{"bufferView":5,"componentType":5126,"count":40,"max":[0.9980525970458984,1,0.9980525970458984],"min":[-0.9980525970458984,-1,-0.9980525970458984],"type":"VEC3"},{"bufferView":6,"componentType":5126,"count":40,"max":[0.71875,0.6640625],"min":[0,0],"type":"VEC2"},{"bufferView":7,"componentType":5123,"count":60,"max":[39],"min":[0],"type":"SCALAR"},{"bufferView":8,"componentType":5126,"count":24,"max":[0.34375,0.125,0.34375],"min":[-0.34375,0,-0.34375],"type":"VEC3"},{"bufferView":9,"componentType":5126,"count":24,"max":[0.9701424837112427,1,0.9701424837112427],"min":[-0.9701424837112427,-1,-0.9701424837112427],"type":"VEC3"},{"bufferView":10,"componentType":5126,"count":24,"max":[0.765625,0.59375],"min":[0.1875,0],"type":"VEC2"},{"bufferView":11,"componentType":5123,"count":36,"max":[23],"min":[0],"type":"SCALAR"},{"bufferView":12,"componentType":5126,"count":64,"max":[0.3125,0.15625,0.125],"min":[-0.1875,-0.03125,-0.125],"type":"VEC3"},{"bufferView":13,"componentType":5126,"count":64,"max":[1,0.9899494647979736,0.9805806875228882],"min":[-0.8320503234863281,-1,-0.9805806875228882],"type":"VEC3"},{"bufferView":14,"componentType":5126,"count":64,"max":[0.6875,0.65625],"min":[0,0],"type":"VEC2"},{"bufferView":15,"componentType":5123,"count":96,"max":[63],"min":[0],"type":"SCALAR"},{"bufferView":16,"componentType":5126,"count":64,"max":[0.3125,1.3125,0.3125],"min":[-0.3125,0.9375,-0.3125],"type":"VEC3"},{"bufferView":17,"componentType":5126,"count":64,"max":[0.9938837289810181,0.9622504711151123,0.9938837289810181],"min":[-0.9938837289810181,-1,-0.9938837289810181],"type":"VEC3"},{"bufferView":18,"componentType":5126,"count":64,"max":[0.625,0.59375],"min":[0,0],"type":"VEC2"},{"bufferView":19,"componentType":5123,"count":96,"max":[63],"min":[0],"type":"SCALAR"},{"bufferView":20,"componentType":5126,"count":64,"max":[0.375,0.9375,0.375],"min":[-0.375,0.75,-0.375],"type":"VEC3"},{"bufferView":21,"componentType":5126,"count":64,"max":[0.9958931803703308,1,0.9958931803703308],"min":[-0.9958931803703308,-1,-0.9958931803703308],"type":"VEC3"},{"bufferView":22,"componentType":5126,"count":64,"max":[0.671875,0.53125],"min":[0.171875,0],"type":"VEC2"},{"bufferView":23,"componentType":5123,"count":96,"max":[63],"min":[0],"type":"SCALAR"},{"bufferView":24,"componentType":5126,"count":24,"max":[0.15625,0.125,0.15625],"min":[-0.15625,-0.1875,-0.15625],"type":"VEC3"},{"bufferView":25,"componentType":5126,"count":24,"max":[1,1,1],"min":[-1,-1,-1],"type":"VEC3"},{"bufferView":26,"componentType":5126,"count":24,"max":[0.53125,0.53125],"min":[0,0],"type":"VEC2"},{"bufferView":27,"componentType":5123,"count":36,"max":[23],"min":[0],"type":"SCALAR"},{"bufferView":28,"componentType":5126,"count":24,"max":[0.046875,0.671875,-0.25],"min":[-0.046875,0.578125,-0.5625],"type":"VEC3"},{"bufferView":29,"componentType":5126,"count":24,"max":[1,1,1],"min":[-1,-1,-1],"type":"VEC3"},{"bufferView":30,"componentType":5126,"count":24,"max":[0.53125,0.625],"min":[0.1875,0.1875],"type":"VEC2"},{"bufferView":31,"componentType":5123,"count":36,"max":[23],"min":[0],"type":"SCALAR"}],"materials":[{"pbrMetallicRoughness":{"metallicFactor":0,"roughnessFactor":1,"baseColorTexture":{"index":0}},"alphaMode":"MASK","alphaCutoff":0.05,"doubleSided":true},{"pbrMetallicRoughness":{"metallicFactor":0,"roughnessFactor":1,"baseColorTexture":{"index":1}},"alphaMode":"MASK","alphaCutoff":0.05,"doubleSided":true},{"pbrMetallicRoughness":{"metallicFactor":0,"roughnessFactor":1,"baseColorTexture":{"index":2}},"alphaMode":"MASK","alphaCutoff":0.05,"doubleSided":true}],"textures":[{"sampler":0,"source":0,"name":"snowman-egg"},{"sampler":1,"source":1,"name":"snowman-egg-hat"},{"sampler":2,"source":2,"name":"cubes"}],"samplers":[{"magFilter":9728,"minFilter":9728,"wrapS":33071,"wrapT":33071},{"magFilter":9728,"minFilter":9728,"wrapS":33071,"wrapT":33071},{"magFilter":9728,"minFilter":9728,"wrapS":33071,"wrapT":33071}],"images":[{"mimeType":"image/png","uri":"data:image/png;base64,"},{"mimeType":"image/png","uri":"data:image/png;base64,"},{"mimeType":"image/png","uri":"data:image/png;base64,"}],"meshes":[{"primitives":[{"mode":4,"attributes":{"POSITION":0,"NORMAL":1,"TEXCOORD_0":2},"indices":3,"material":0}]},{"primitives":[{"mode":4,"attributes":{"POSITION":4,"NORMAL":5,"TEXCOORD_0":6},"indices":7,"material":0}]},{"primitives":[{"mode":4,"attributes":{"POSITION":8,"NORMAL":9,"TEXCOORD_0":10},"indices":11,"material":0}]},{"primitives":[{"mode":4,"attributes":{"POSITION":12,"NORMAL":13,"TEXCOORD_0":14},"indices":15,"material":1}]},{"primitives":[{"mode":4,"attributes":{"POSITION":16,"NORMAL":17,"TEXCOORD_0":18},"indices":19,"material":1}]},{"primitives":[{"mode":4,"attributes":{"POSITION":20,"NORMAL":21,"TEXCOORD_0":22},"indices":23,"material":1}]},{"primitives":[{"mode":4,"attributes":{"POSITION":24,"NORMAL":25,"TEXCOORD_0":26},"indices":27,"material":2}]},{"primitives":[{"mode":4,"attributes":{"POSITION":28,"NORMAL":29,"TEXCOORD_0":30},"indices":31,"material":2}]}]}