{"asset":{"version":"2.0","generator":"Blockbench 4.12.6 glTF exporter"},"scenes":[{"nodes":[12],"name":"blockbench_export"}],"scene":0,"nodes":[{"translation":[0,0,-0.1875],"name":"cube","mesh":0},{"translation":[0,-0.125,-0.375],"name":"cube","mesh":1},{"translation":[0,0.125,-0.4375],"name":"head","children":[1]},{"translation":[-0.375,-0.03125,0.0625],"name":"cube","mesh":2},{"translation":[-0.375,0.03125,-0.25],"name":"leftArm","children":[3]},{"translation":[0.375,-0.03125,0.0625],"name":"cube","mesh":3},{"translation":[0.375,0.03125,-0.25],"name":"rightArm","children":[5]},{"rotation":[0,-0.7071067811865475,0,0.7071067811865476],"translation":[-0.1875,0,0],"name":"cube","mesh":4},{"translation":[-0.375,0.03125,0.25],"name":"leftLeg","children":[7]},{"rotation":[0,0.7071067811865475,0,0.7071067811865476],"translation":[0.1875,0,0],"name":"cube","mesh":5},{"translation":[0.375,0.03125,0.25],"name":"rightLeg","children":[9]},{"name":"root","children":[0,2,4,6,8,10]},{"children":[11]}],"bufferViews":[{"buffer":0,"byteOffset":0,"byteLength":288,"target":34962,"byteStride":12},{"buffer":0,"byteOffset":288,"byteLength":288,"target":34962,"byteStride":12},{"buffer":0,"byteOffset":576,"byteLength":192,"target":34962,"byteStride":8},{"buffer":0,"byteOffset":768,"byteLength":72,"target":34963},{"buffer":0,"byteOffset":840,"byteLength":288,"target":34962,"byteStride":12},{"buffer":0,"byteOffset":1128,"byteLength":288,"target":34962,"byteStride":12},{"buffer":0,"byteOffset":1416,"byteLength":192,"target":34962,"byteStride":8},{"buffer":0,"byteOffset":1608,"byteLength":72,"target":34963},{"buffer":0,"byteOffset":1680,"byteLength":288,"target":34962,"byteStride":12},{"buffer":0,"byteOffset":1968,"byteLength":288,"target":34962,"byteStride":12},{"buffer":0,"byteOffset":2256,"byteLength":192,"target":34962,"byteStride":8},{"buffer":0,"byteOffset":2448,"byteLength":72,"target":34963},{"buffer":0,"byteOffset":2520,"byteLength":288,"target":34962,"byteStride":12},{"buffer":0,"byteOffset":2808,"byteLength":288,"target":34962,"byteStride":12},{"buffer":0,"byteOffset":3096,"byteLength":192,"target":34962,"byteStride":8},{"buffer":0,"byteOffset":3288,"byteLength":72,"target":34963},{"buffer":0,"byteOffset":3360,"byteLength":288,"target":34962,"byteStride":12},{"buffer":0,"byteOffset":3648,"byteLength":288,"target":34962,"byteStride":12},{"buffer":0,"byteOffset":3936,"byteLength":192,"target":34962,"byteStride":8},{"buffer":0,"byteOffset":4128,"byteLength":72,"target":34963},{"buffer":0,"byteOffset":4200,"byteLength":288,"target":34962,"byteStride":12},{"buffer":0,"byteOffset":4488,"byteLength":288,"target":34962,"byteStride":12},{"buffer":0,"byteOffset":4776,"byteLength":192,"target":34962,"byteStride":8},{"buffer":0,"byteOffset":4968,"byteLength":72,"target":34963},{"buffer":0,"byteOffset":5040,"byteLength":204},{"buffer":0,"byteOffset":5244,"byteLength":612},{"buffer":0,"byteOffset":5856,"byteLength":204},{"buffer":0,"byteOffset":6060,"byteLength":816},{"buffer":0,"byteOffset":6876,"byteLength":204},{"buffer":0,"byteOffset":7080,"byteLength":816},{"buffer":0,"byteOffset":7896,"byteLength":204},{"buffer":0,"byteOffset":8100,"byteLength":816},{"buffer":0,"byteOffset":8916,"byteLength":204},{"buffer":0,"byteOffset":9120,"byteLength":816},{"buffer":0,"byteOffset":9936,"byteLength":204},{"buffer":0,"byteOffset":10140,"byteLength":816},{"buffer":0,"byteOffset":10956,"byteLength":8},{"buffer":0,"byteOffset":10964,"byteLength":32},{"buffer":0,"byteOffset":10996,"byteLength":88},{"buffer":0,"byteOffset":11084,"byteLength":264},{"buffer":0,"byteOffset":11348,"byteLength":88},{"buffer":0,"byteOffset":11436,"byteLength":352},{"buffer":0,"byteOffset":11788,"byteLength":88},{"buffer":0,"byteOffset":11876,"byteLength":352},{"buffer":0,"byteOffset":12228,"byteLength":88},{"buffer":0,"byteOffset":12316,"byteLength":352},{"buffer":0,"byteOffset":12668,"byteLength":88},{"buffer":0,"byteOffset":12756,"byteLength":352},{"buffer":0,"byteOffset":13108,"byteLength":88},{"buffer":0,"byteOffset":13196,"byteLength":352}],"buffers":[{"byteLength":13548,"uri":"data:application/octet-stream;base64,"}],"accessors":[{"bufferView":0,"componentType":5126,"count":24,"max":[0.375,0.3125,0.625],"min":[-0.375,0,-0.25],"type":"VEC3"},{"bufferView":1,"componentType":5126,"count":24,"max":[1,1,1],"min":[-1,-1,-1],"type":"VEC3"},{"bufferView":2,"componentType":5126,"count":24,"max":[0.453125,0.40625],"min":[0,0],"type":"VEC2"},{"bufferView":3,"componentType":5123,"count":36,"max":[23],"min":[0],"type":"SCALAR"},{"bufferView":4,"componentType":5126,"count":24,"max":[0.125,0.25,0.375],"min":[-0.125,0,0.125],"type":"VEC3"},{"bufferView":5,"componentType":5126,"count":24,"max":[1,1,1],"min":[-1,-1,-1],"type":"VEC3"},{"bufferView":6,"componentType":5126,"count":24,"max":[0.46875,0.5],"min":[0.078125,0.15625],"type":"VEC2"},{"bufferView":7,"componentType":5123,"count":36,"max":[23],"min":[0],"type":"SCALAR"},{"bufferView":8,"componentType":5126,"count":24,"max":[0.375,0.0625,0.0625],"min":[0,0,-0.1875],"type":"VEC3"},{"bufferView":9,"componentType":5126,"count":24,"max":[1,1,1],"min":[-1,-1,-1],"type":"VEC3"},{"bufferView":10,"componentType":5126,"count":24,"max":[0.5625,0.484375],"min":[0.40625,0],"type":"VEC2"},{"bufferView":11,"componentType":5123,"count":36,"max":[23],"min":[0],"type":"SCALAR"},{"bufferView":12,"componentType":5126,"count":24,"max":[0,0.0625,0.0625],"min":[-0.375,0,-0.1875],"type":"VEC3"},{"bufferView":13,"componentType":5126,"count":24,"max":[1,1,1],"min":[-1,-1,-1],"type":"VEC3"},{"bufferView":14,"componentType":5126,"count":24,"max":[0.5625,0.484375],"min":[0.40625,0],"type":"VEC2"},{"bufferView":15,"componentType":5123,"count":36,"max":[23],"min":[0],"type":"SCALAR"},{"bufferView":16,"componentType":5126,"count":24,"max":[0.125,0.03125,0.1875],"min":[-0.125,-0.03125,-0.1875],"type":"VEC3"},{"bufferView":17,"componentType":5126,"count":24,"max":[1,1,1],"min":[-1,-1,-1],"type":"VEC3"},{"bufferView":18,"componentType":5126,"count":24,"max":[0.5625,0.515625],"min":[0,0.1875],"type":"VEC2"},{"bufferView":19,"componentType":5123,"count":36,"max":[23],"min":[0],"type":"SCALAR"},{"bufferView":20,"componentType":5126,"count":24,"max":[0.125,0.03125,0.1875],"min":[-0.125,-0.03125,-0.1875],"type":"VEC3"},{"bufferView":21,"componentType":5126,"count":24,"max":[1,1,1],"min":[-1,-1,-1],"type":"VEC3"},{"bufferView":22,"componentType":5126,"count":24,"max":[0.5625,0.515625],"min":[0,0.1875],"type":"VEC2"},{"bufferView":23,"componentType":5123,"count":36,"max":[23],"min":[0],"type":"SCALAR"},{"bufferView":24,"componentType":5126,"count":51,"max":[1.1764706373214722],"min":[0],"type":"SCALAR"},{"bufferView":25,"componentType":5126,"count":51,"max":[0,0.015625,0],"min":[0,0,0],"type":"VEC3"},{"bufferView":26,"componentType":5126,"count":51,"max":[1.1764706373214722],"min":[0],"type":"SCALAR"},{"bufferView":27,"componentType":5126,"count":51,"max":[0.02181488461792469,0,0,1],"min":[-0.02181488461792469,0,0,0.9997619986534119],"type":"VEC4"},{"bufferView":28,"componentType":5126,"count":51,"max":[1.1764706373214722],"min":[0],"type":"SCALAR"},{"bufferView":29,"componentType":5126,"count":51,"max":[0.0014267617370933294,-0.06538756191730499,0.021768176928162575,0.9978589415550232],"min":[0,-0.06540312618017197,0,0.997621476650238],"type":"VEC4"},{"bufferView":30,"componentType":5126,"count":51,"max":[1.1764706373214722],"min":[0],"type":"SCALAR"},{"bufferView":31,"componentType":5126,"count":51,"max":[0.0014267617370933294,0.06540312618017197,0,0.9978589415550232],"min":[0,0.06538756191730499,-0.021768176928162575,0.997621476650238],"type":"VEC4"},{"bufferView":32,"componentType":5126,"count":51,"max":[1.1764706373214722],"min":[0],"type":"SCALAR"},{"bufferView":33,"componentType":5126,"count":51,"max":[0,0.10886687785387039,0.021685224026441574,0.9940563440322876],"min":[-0.00237491843290627,0.10884096473455429,0,0.9938197731971741],"type":"VEC4"},{"bufferView":34,"componentType":5126,"count":51,"max":[1.1764706373214722],"min":[0],"type":"SCALAR"},{"bufferView":35,"componentType":5126,"count":51,"max":[0,-0.10884096473455429,0,0.9940563440322876],"min":[-0.00237491843290627,-0.10886687785387039,-0.021685224026441574,0.9938197731971741],"type":"VEC4"},{"bufferView":36,"componentType":5126,"count":2,"max":[0.583329975605011],"min":[0],"type":"SCALAR"},{"bufferView":37,"componentType":5126,"count":2,"max":[0,0,0,1],"min":[0,0,0,1],"type":"VEC4"},{"bufferView":38,"componentType":5126,"count":22,"max":[0.583329975605011],"min":[0],"type":"SCALAR"},{"bufferView":39,"componentType":5126,"count":22,"max":[0,0.03125,0],"min":[0,0,0],"type":"VEC3"},{"bufferView":40,"componentType":5126,"count":22,"max":[0.583329975605011],"min":[0],"type":"SCALAR"},{"bufferView":41,"componentType":5126,"count":22,"max":[0.02181488461792469,0,0,1],"min":[0,0,0,0.9997619986534119],"type":"VEC4"},{"bufferView":42,"componentType":5126,"count":22,"max":[0.583329975605011],"min":[0],"type":"SCALAR"},{"bufferView":43,"componentType":5126,"count":22,"max":[0.014155828393995762,0.21834833920001984,0.06385281682014465,0.9997617602348328],"min":[-0.0038041791412979364,-0.22234401106834412,0,0.9738453030586243],"type":"VEC4"},{"bufferView":44,"componentType":5126,"count":22,"max":[0.583329975605011],"min":[0],"type":"SCALAR"},{"bufferView":45,"componentType":5126,"count":22,"max":[0.014155828393995762,0.22234401106834412,0,0.9997617602348328],"min":[-0.0038041791412979364,-0.21834833920001984,-0.06385281682014465,0.9738453030586243],"type":"VEC4"},{"bufferView":46,"componentType":5126,"count":22,"max":[0.583329975605011],"min":[0],"type":"SCALAR"},{"bufferView":47,"componentType":5126,"count":22,"max":[0.0038016801699995995,0.26117363572120667,0.043685294687747955,0.995635449886322],"min":[-0.01659344881772995,0.0834788829088211,0,0.9652900099754333],"type":"VEC4"},{"bufferView":48,"componentType":5126,"count":22,"max":[0.583329975605011],"min":[0],"type":"SCALAR"},{"bufferView":49,"componentType":5126,"count":22,"max":[0.0038016801699995995,-0.0834788829088211,0,0.995635449886322],"min":[-0.01659344881772995,-0.26117363572120667,-0.043685294687747955,0.9652900099754333],"type":"VEC4"}],"materials":[{"pbrMetallicRoughness":{"metallicFactor":0,"roughnessFactor":1,"baseColorTexture":{"index":0}},"alphaMode":"MASK","alphaCutoff":0.05,"doubleSided":true}],"textures":[{"sampler":0,"source":0,"name":"turtle"}],"samplers":[{"magFilter":9728,"minFilter":9728,"wrapS":33071,"wrapT":33071}],"images":[{"mimeType":"image/png","uri":"data:image/png;base64,"}],"meshes":[{"primitives":[{"mode":4,"attributes":{"POSITION":0,"NORMAL":1,"TEXCOORD_0":2},"indices":3,"material":0}]},{"primitives":[{"mode":4,"attributes":{"POSITION":4,"NORMAL":5,"TEXCOORD_0":6},"indices":7,"material":0}]},{"primitives":[{"mode":4,"attributes":{"POSITION":8,"NORMAL":9,"TEXCOORD_0":10},"indices":11,"material":0}]},{"primitives":[{"mode":4,"attributes":{"POSITION":12,"NORMAL":13,"TEXCOORD_0":14},"indices":15,"material":0}]},{"primitives":[{"mode":4,"attributes":{"POSITION":16,"NORMAL":17,"TEXCOORD_0":18},"indices":19,"material":0}]},{"primitives":[{"mode":4,"attributes":{"POSITION":20,"NORMAL":21,"TEXCOORD_0":22},"indices":23,"material":0}]}],"animations":[{"name":"idle","samplers":[{"input":24,"output":25,"interpolation":"LINEAR"},{"input":26,"output":27,"interpolation":"LINEAR"},{"input":28,"output":29,"interpolation":"LINEAR"},{"input":30,"output":31,"interpolation":"LINEAR"},{"input":32,"output":33,"interpolation":"LINEAR"},{"input":34,"output":35,"interpolation":"LINEAR"}],"channels":[{"sampler":0,"target":{"node":11,"path":"translation"}},{"sampler":1,"target":{"node":2,"path":"rotation"}},{"sampler":2,"target":{"node":4,"path":"rotation"}},{"sampler":3,"target":{"node":6,"path":"rotation"}},{"sampler":4,"target":{"node":8,"path":"rotation"}},{"sampler":5,"target":{"node":10,"path":"rotation"}}]},{"name":"walk","samplers":[{"input":36,"output":37,"interpolation":"LINEAR"},{"input":38,"output":39,"interpolation":"LINEAR"},{"input":40,"output":41,"interpolation":"LINEAR"},{"input":42,"output":43,"interpolation":"LINEAR"},{"input":44,"output":45,"interpolation":"LINEAR"},{"input":46,"output":47,"interpolation":"LINEAR"},{"input":48,"output":49,"interpolation":"LINEAR"}],"channels":[{"sampler":0,"target":{"node":11,"path":"rotation"}},{"sampler":1,"target":{"node":11,"path":"translation"}},{"sampler":2,"target":{"node":2,"path":"rotation"}},{"sampler":3,"target":{"node":4,"path":"rotation"}},{"sampler":4,"target":{"node":6,"path":"rotation"}},{"sampler":5,"target":{"node":8,"path":"rotation"}},{"sampler":6,"target":{"node":10,"path":"rotation"}}]}]}