{"asset":{"version":"2.0","generator":"Blockbench 5.0.3 glTF exporter"},"scenes":[{"nodes":[25],"name":"blockbench_export"}],"scene":0,"nodes":[{"translation":[0,-0.0625,0],"name":"cube","mesh":0},{"translation":[0,-0.625,0],"name":"cube","mesh":1},{"rotation":[0,0,0.19509032201612825,0.9807852804032304],"translation":[-0.54344625,-0.28322875,0.21875],"name":"cube","mesh":2},{"rotation":[0,0,-0.19509032201612825,0.9807852804032304],"translation":[0.54344625,-0.28322875,0.21875],"name":"cube","mesh":3},{"translation":[0,0.5,0],"name":"cube","mesh":4},{"translation":[0,-0.140625,0.1875],"name":"cube","mesh":5},{"translation":[0,0.296875,0.1875],"name":"cube","mesh":6},{"translation":[0,-0.15625,0.0625],"name":"cube","mesh":7},{"translation":[0,-0.15625,0.0625],"name":"cube","mesh":8},{"translation":[0,-0.046875,0.5],"name":"tail_3","children":[7,8]},{"translation":[0,-0.234375,0],"name":"tail_2","children":[5,6,9]},{"translation":[0,0.375,0.4375],"name":"tail","children":[10]},{"name":"cube","mesh":9},{"translation":[0,0.5625,0],"name":"cube","mesh":10},{"translation":[0,0.046875,0],"name":"cube","mesh":11},{"translation":[0,0.046875,-0.5],"name":"cube","mesh":12},{"rotation":[0,0,-0.3826834323650898,0.9238795325112867],"translation":[-0.31629125,-0.14441625000000002,-0.65625],"name":"cube","mesh":13},{"rotation":[0,0,0.3826834323650898,0.9238795325112867],"translation":[0.31629125,-0.14441625000000002,-0.65625],"name":"cube","mesh":14},{"translation":[0,-0.046875,-0.5625],"name":"head_2","children":[14,15,16,17]},{"translation":[-0.25,0,0],"name":"cube","mesh":15},{"rotation":[0,0,0.19509032201612825,0.9807852804032304],"translation":[-0.375,-0.25,-0.375],"name":"fin2","children":[19]},{"translation":[0.25,0,0],"name":"cube","mesh":16},{"rotation":[0,0,-0.19509032201612825,0.9807852804032304],"translation":[0.375,-0.25,-0.375],"name":"fin","children":[21]},{"translation":[0,0,-0.3125],"name":"head","children":[12,13,18,20,22]},{"translation":[0,0.5,0],"name":"body","children":[0,1,2,3,4,11,23]},{"translation":[0,0.0625,0],"name":"sturgeon","children":[24]}],"bufferViews":[{"buffer":0,"byteOffset":0,"byteLength":288,"target":34962,"byteStride":12},{"buffer":0,"byteOffset":288,"byteLength":288,"target":34962,"byteStride":12},{"buffer":0,"byteOffset":576,"byteLength":192,"target":34962,"byteStride":8},{"buffer":0,"byteOffset":768,"byteLength":72,"target":34963},{"buffer":0,"byteOffset":840,"byteLength":288,"target":34962,"byteStride":12},{"buffer":0,"byteOffset":1128,"byteLength":288,"target":34962,"byteStride":12},{"buffer":0,"byteOffset":1416,"byteLength":192,"target":34962,"byteStride":8},{"buffer":0,"byteOffset":1608,"byteLength":72,"target":34963},{"buffer":0,"byteOffset":1680,"byteLength":240,"target":34962,"byteStride":12},{"buffer":0,"byteOffset":1920,"byteLength":240,"target":34962,"byteStride":12},{"buffer":0,"byteOffset":2160,"byteLength":160,"target":34962,"byteStride":8},{"buffer":0,"byteOffset":2320,"byteLength":60,"target":34963},{"buffer":0,"byteOffset":2380,"byteLength":240,"target":34962,"byteStride":12},{"buffer":0,"byteOffset":2620,"byteLength":240,"target":34962,"byteStride":12},{"buffer":0,"byteOffset":2860,"byteLength":160,"target":34962,"byteStride":8},{"buffer":0,"byteOffset":3020,"byteLength":60,"target":34963},{"buffer":0,"byteOffset":3080,"byteLength":240,"target":34962,"byteStride":12},{"buffer":0,"byteOffset":3320,"byteLength":240,"target":34962,"byteStride":12},{"buffer":0,"byteOffset":3560,"byteLength":160,"target":34962,"byteStride":8},{"buffer":0,"byteOffset":3720,"byteLength":60,"target":34963},{"buffer":0,"byteOffset":3780,"byteLength":288,"target":34962,"byteStride":12},{"buffer":0,"byteOffset":4068,"byteLength":288,"target":34962,"byteStride":12},{"buffer":0,"byteOffset":4356,"byteLength":192,"target":34962,"byteStride":8},{"buffer":0,"byteOffset":4548,"byteLength":72,"target":34963},{"buffer":0,"byteOffset":4620,"byteLength":240,"target":34962,"byteStride":12},{"buffer":0,"byteOffset":4860,"byteLength":240,"target":34962,"byteStride":12},{"buffer":0,"byteOffset":5100,"byteLength":160,"target":34962,"byteStride":8},{"buffer":0,"byteOffset":5260,"byteLength":60,"target":34963},{"buffer":0,"byteOffset":5320,"byteLength":288,"target":34962,"byteStride":12},{"buffer":0,"byteOffset":5608,"byteLength":288,"target":34962,"byteStride":12},{"buffer":0,"byteOffset":5896,"byteLength":192,"target":34962,"byteStride":8},{"buffer":0,"byteOffset":6088,"byteLength":72,"target":34963},{"buffer":0,"byteOffset":6160,"byteLength":240,"target":34962,"byteStride":12},{"buffer":0,"byteOffset":6400,"byteLength":240,"target":34962,"byteStride":12},{"buffer":0,"byteOffset":6640,"byteLength":160,"target":34962,"byteStride":8},{"buffer":0,"byteOffset":6800,"byteLength":60,"target":34963},{"buffer":0,"byteOffset":6860,"byteLength":288,"target":34962,"byteStride":12},{"buffer":0,"byteOffset":7148,"byteLength":288,"target":34962,"byteStride":12},{"buffer":0,"byteOffset":7436,"byteLength":192,"target":34962,"byteStride":8},{"buffer":0,"byteOffset":7628,"byteLength":72,"target":34963},{"buffer":0,"byteOffset":7700,"byteLength":288,"target":34962,"byteStride":12},{"buffer":0,"byteOffset":7988,"byteLength":288,"target":34962,"byteStride":12},{"buffer":0,"byteOffset":8276,"byteLength":192,"target":34962,"byteStride":8},{"buffer":0,"byteOffset":8468,"byteLength":72,"target":34963},{"buffer":0,"byteOffset":8540,"byteLength":288,"target":34962,"byteStride":12},{"buffer":0,"byteOffset":8828,"byteLength":288,"target":34962,"byteStride":12},{"buffer":0,"byteOffset":9116,"byteLength":192,"target":34962,"byteStride":8},{"buffer":0,"byteOffset":9308,"byteLength":72,"target":34963},{"buffer":0,"byteOffset":9380,"byteLength":288,"target":34962,"byteStride":12},{"buffer":0,"byteOffset":9668,"byteLength":288,"target":34962,"byteStride":12},{"buffer":0,"byteOffset":9956,"byteLength":192,"target":34962,"byteStride":8},{"buffer":0,"byteOffset":10148,"byteLength":72,"target":34963},{"buffer":0,"byteOffset":10220,"byteLength":240,"target":34962,"byteStride":12},{"buffer":0,"byteOffset":10460,"byteLength":240,"target":34962,"byteStride":12},{"buffer":0,"byteOffset":10700,"byteLength":160,"target":34962,"byteStride":8},{"buffer":0,"byteOffset":10860,"byteLength":60,"target":34963},{"buffer":0,"byteOffset":10920,"byteLength":240,"target":34962,"byteStride":12},{"buffer":0,"byteOffset":11160,"byteLength":240,"target":34962,"byteStride":12},{"buffer":0,"byteOffset":11400,"byteLength":160,"target":34962,"byteStride":8},{"buffer":0,"byteOffset":11560,"byteLength":60,"target":34963},{"buffer":0,"byteOffset":11620,"byteLength":240,"target":34962,"byteStride":12},{"buffer":0,"byteOffset":11860,"byteLength":240,"target":34962,"byteStride":12},{"buffer":0,"byteOffset":12100,"byteLength":160,"target":34962,"byteStride":8},{"buffer":0,"byteOffset":12260,"byteLength":60,"target":34963},{"buffer":0,"byteOffset":12320,"byteLength":240,"target":34962,"byteStride":12},{"buffer":0,"byteOffset":12560,"byteLength":240,"target":34962,"byteStride":12},{"buffer":0,"byteOffset":12800,"byteLength":160,"target":34962,"byteStride":8},{"buffer":0,"byteOffset":12960,"byteLength":60,"target":34963},{"buffer":0,"byteOffset":13020,"byteLength":308},{"buffer":0,"byteOffset":13328,"byteLength":1232},{"buffer":0,"byteOffset":14560,"byteLength":308},{"buffer":0,"byteOffset":14868,"byteLength":924},{"buffer":0,"byteOffset":15792,"byteLength":308},{"buffer":0,"byteOffset":16100,"byteLength":1232},{"buffer":0,"byteOffset":17332,"byteLength":308},{"buffer":0,"byteOffset":17640,"byteLength":1232},{"buffer":0,"byteOffset":18872,"byteLength":308},{"buffer":0,"byteOffset":19180,"byteLength":1232},{"buffer":0,"byteOffset":20412,"byteLength":224},{"buffer":0,"byteOffset":20636,"byteLength":896},{"buffer":0,"byteOffset":21532,"byteLength":220},{"buffer":0,"byteOffset":21752,"byteLength":660},{"buffer":0,"byteOffset":22412,"byteLength":224},{"buffer":0,"byteOffset":22636,"byteLength":896},{"buffer":0,"byteOffset":23532,"byteLength":224},{"buffer":0,"byteOffset":23756,"byteLength":896},{"buffer":0,"byteOffset":24652,"byteLength":224},{"buffer":0,"byteOffset":24876,"byteLength":896},{"buffer":0,"byteOffset":25772,"byteLength":224},{"buffer":0,"byteOffset":25996,"byteLength":896}],"buffers":[{"byteLength":26892,"uri":"data:application/octet-stream;base64,"}],"accessors":[{"bufferView":0,"componentType":5126,"count":24,"max":[0.3125,0.4375,0.4375],"min":[-0.3125,-0.125,-0.4375],"type":"VEC3"},{"bufferView":1,"componentType":5126,"count":24,"max":[1,1,1],"min":[-1,-1,-1],"type":"VEC3"},{"bufferView":2,"componentType":5126,"count":24,"max":[0.3828125,0.3671875],"min":[0,0],"type":"VEC2"},{"bufferView":3,"componentType":5123,"count":36,"max":[23],"min":[0],"type":"SCALAR"},{"bufferView":4,"componentType":5126,"count":24,"max":[0.0000625000029685907,0.4375,0.5],"min":[0,0.0625,0],"type":"VEC3"},{"bufferView":5,"componentType":5126,"count":24,"max":[1,1,1],"min":[-1,-1,-1],"type":"VEC3"},{"bufferView":6,"componentType":5126,"count":24,"max":[0.4921875,0.546875],"min":[0.3046875,0.1328125],"type":"VEC2"},{"bufferView":7,"componentType":5123,"count":36,"max":[23],"min":[0],"type":"SCALAR"},{"bufferView":8,"componentType":5126,"count":20,"max":[0.25,0,0.34375],"min":[-0.125,0,-0.09375],"type":"VEC3"},{"bufferView":9,"componentType":5126,"count":20,"max":[1,0,0],"min":[0,-1,0],"type":"VEC3"},{"bufferView":10,"componentType":5126,"count":20,"max":[0.4921875,0.328125],"min":[0.3125,0.140625],"type":"VEC2"},{"bufferView":11,"componentType":5123,"count":30,"max":[19],"min":[0],"type":"SCALAR"},{"bufferView":12,"componentType":5126,"count":20,"max":[0.125,0,0.34375],"min":[-0.25,0,-0.09375],"type":"VEC3"},{"bufferView":13,"componentType":5126,"count":20,"max":[1,0,0],"min":[0,-1,0],"type":"VEC3"},{"bufferView":14,"componentType":5126,"count":20,"max":[0.4921875,0.328125],"min":[0.3125,0.140625],"type":"VEC2"},{"bufferView":15,"componentType":5123,"count":30,"max":[19],"min":[0],"type":"SCALAR"},{"bufferView":16,"componentType":5126,"count":20,"max":[0,0.25,0.4375],"min":[0,-0.125,-0.4375],"type":"VEC3"},{"bufferView":17,"componentType":5126,"count":20,"max":[1,0,0],"min":[-1,0,0],"type":"VEC3"},{"bufferView":18,"componentType":5126,"count":20,"max":[0.421875,0.59375],"min":[0.3125,0.15625],"type":"VEC2"},{"bufferView":19,"componentType":5123,"count":30,"max":[19],"min":[0],"type":"SCALAR"},{"bufferView":20,"componentType":5126,"count":24,"max":[0.21875,0.3125,0.3125],"min":[-0.21875,-0.125,-0.1875],"type":"VEC3"},{"bufferView":21,"componentType":5126,"count":24,"max":[1,1,1],"min":[-1,-1,-1],"type":"VEC3"},{"bufferView":22,"componentType":5126,"count":24,"max":[0.46875,0.4765625],"min":[0.0703125,0],"type":"VEC2"},{"bufferView":23,"componentType":5123,"count":36,"max":[23],"min":[0],"type":"SCALAR"},{"bufferView":24,"componentType":5126,"count":20,"max":[0,0.3125,0.3125],"min":[0,-0.125,-0.1875],"type":"VEC3"},{"bufferView":25,"componentType":5126,"count":20,"max":[1,0,0],"min":[-1,0,0],"type":"VEC3"},{"bufferView":26,"componentType":5126,"count":20,"max":[1,0.4765625],"min":[0.6015625,0],"type":"VEC2"},{"bufferView":27,"componentType":5123,"count":30,"max":[19],"min":[0],"type":"SCALAR"},{"bufferView":28,"componentType":5126,"count":24,"max":[0.125,0.3125,0.3125],"min":[-0.125,0,-0.0625],"type":"VEC3"},{"bufferView":29,"componentType":5126,"count":24,"max":[1,1,1],"min":[-1,-1,-1],"type":"VEC3"},{"bufferView":30,"componentType":5126,"count":24,"max":[0.5234375,0.5234375],"min":[0.0546875,0],"type":"VEC2"},{"bufferView":31,"componentType":5123,"count":36,"max":[23],"min":[0],"type":"SCALAR"},{"bufferView":32,"componentType":5126,"count":20,"max":[0,0.625,0.875],"min":[0,-0.1875,-0.0625],"type":"VEC3"},{"bufferView":33,"componentType":5126,"count":20,"max":[1,0,0],"min":[-1,0,0],"type":"VEC3"},{"bufferView":34,"componentType":5126,"count":20,"max":[0.43755000829696655,0.6171875],"min":[0,0.109375],"type":"VEC2"},{"bufferView":35,"componentType":5123,"count":30,"max":[19],"min":[0],"type":"SCALAR"},{"bufferView":36,"componentType":5126,"count":24,"max":[0.375,0.3125,0],"min":[-0.375,-0.25,-0.5625],"type":"VEC3"},{"bufferView":37,"componentType":5126,"count":24,"max":[1,1,1],"min":[-1,-1,-1],"type":"VEC3"},{"bufferView":38,"componentType":5126,"count":24,"max":[0.3515625,0.3828125],"min":[0,0.15625],"type":"VEC2"},{"bufferView":39,"componentType":5123,"count":36,"max":[23],"min":[0],"type":"SCALAR"},{"bufferView":40,"componentType":5126,"count":24,"max":[0.0000625000029685907,0.0625,-0.125],"min":[0,-0.25,-0.5625],"type":"VEC3"},{"bufferView":41,"componentType":5126,"count":24,"max":[1,1,1],"min":[-1,-1,-1],"type":"VEC3"},{"bufferView":42,"componentType":5126,"count":24,"max":[0.515625,0.5390625],"min":[0.0703125,0.1875],"type":"VEC2"},{"bufferView":43,"componentType":5123,"count":36,"max":[23],"min":[0],"type":"SCALAR"},{"bufferView":44,"componentType":5126,"count":24,"max":[0.3125,0.125,0],"min":[-0.3125,-0.25,-0.5],"type":"VEC3"},{"bufferView":45,"componentType":5126,"count":24,"max":[1,1,1],"min":[-1,-1,-1],"type":"VEC3"},{"bufferView":46,"componentType":5126,"count":24,"max":[0.4921875,0.4765625],"min":[0.0859375,0],"type":"VEC2"},{"bufferView":47,"componentType":5123,"count":36,"max":[23],"min":[0],"type":"SCALAR"},{"bufferView":48,"componentType":5126,"count":24,"max":[0.25,0.0625,0],"min":[-0.25,-0.125,-0.3125],"type":"VEC3"},{"bufferView":49,"componentType":5126,"count":24,"max":[1,1,1],"min":[-1,-1,-1],"type":"VEC3"},{"bufferView":50,"componentType":5126,"count":24,"max":[0.5234375,0.5078125],"min":[0.1328125,0.1015625],"type":"VEC2"},{"bufferView":51,"componentType":5123,"count":36,"max":[23],"min":[0],"type":"SCALAR"},{"bufferView":52,"componentType":5126,"count":20,"max":[0,0.09375,0.09375],"min":[0,-0.15625,-0.15625],"type":"VEC3"},{"bufferView":53,"componentType":5126,"count":20,"max":[1,0,0],"min":[-1,0,0],"type":"VEC3"},{"bufferView":54,"componentType":5126,"count":20,"max":[0.42973750829696655,0.46875],"min":[0.0546875,0.2734375],"type":"VEC2"},{"bufferView":55,"componentType":5123,"count":30,"max":[19],"min":[0],"type":"SCALAR"},{"bufferView":56,"componentType":5126,"count":20,"max":[0,0.09375,0.09375],"min":[0,-0.15625,-0.15625],"type":"VEC3"},{"bufferView":57,"componentType":5126,"count":20,"max":[1,0,0],"min":[1,0,0],"type":"VEC3"},{"bufferView":58,"componentType":5126,"count":20,"max":[0.42973750829696655,0.46875],"min":[0.0546875,0.2734375],"type":"VEC2"},{"bufferView":59,"componentType":5123,"count":30,"max":[19],"min":[0],"type":"SCALAR"},{"bufferView":60,"componentType":5126,"count":20,"max":[0.25,0,0.25],"min":[-0.25,0,-0.1875],"type":"VEC3"},{"bufferView":61,"componentType":5126,"count":20,"max":[1,0,0],"min":[0,-1,0],"type":"VEC3"},{"bufferView":62,"componentType":5126,"count":20,"max":[0.5546875,0.5000500082969666],"min":[0,0.1328125],"type":"VEC2"},{"bufferView":63,"componentType":5123,"count":30,"max":[19],"min":[0],"type":"SCALAR"},{"bufferView":64,"componentType":5126,"count":20,"max":[0.25,0,0.25],"min":[-0.25,0,-0.1875],"type":"VEC3"},{"bufferView":65,"componentType":5126,"count":20,"max":[1,0,0],"min":[0,-1,0],"type":"VEC3"},{"bufferView":66,"componentType":5126,"count":20,"max":[0.5546875,0.5000500082969666],"min":[0,0.1328125],"type":"VEC2"},{"bufferView":67,"componentType":5123,"count":30,"max":[19],"min":[0],"type":"SCALAR"},{"bufferView":68,"componentType":5126,"count":77,"max":[2],"min":[0],"type":"SCALAR"},{"bufferView":69,"componentType":5126,"count":77,"max":[0.017809173092246056,0,0,1],"min":[-0.017809173092246056,0,0,0.9998413920402527],"type":"VEC4"},{"bufferView":70,"componentType":5126,"count":77,"max":[2],"min":[0],"type":"SCALAR"},{"bufferView":71,"componentType":5126,"count":77,"max":[0,0.5625,0],"min":[0,0.5,0],"type":"VEC3"},{"bufferView":72,"componentType":5126,"count":77,"max":[2],"min":[0],"type":"SCALAR"},{"bufferView":73,"componentType":5126,"count":77,"max":[0,0.08715574443340302,0,1],"min":[0,-0.08715574443340302,0,0.9961947202682495],"type":"VEC4"},{"bufferView":74,"componentType":5126,"count":77,"max":[2],"min":[0],"type":"SCALAR"},{"bufferView":75,"componentType":5126,"count":77,"max":[0.194150909781456,0.02208980917930603,0.19509032368659973,1],"min":[-0.19403047859668732,-0.022999253123998642,0,0.975056529045105],"type":"VEC4"},{"bufferView":76,"componentType":5126,"count":77,"max":[2],"min":[0],"type":"SCALAR"},{"bufferView":77,"componentType":5126,"count":77,"max":[0.194150909781456,0.022999253123998642,0,1],"min":[-0.19403047859668732,-0.02208980917930603,-0.19509032368659973,0.975056529045105],"type":"VEC4"},{"bufferView":78,"componentType":5126,"count":56,"max":[1.3333300352096558],"min":[0],"type":"SCALAR"},{"bufferView":79,"componentType":5126,"count":56,"max":[0.026176948100328445,0.08715574443340302,0.0008795802714303136,0.9996573328971863],"min":[-0.026176948100328445,-0.08715574443340302,-0.000891951669473201,0.9961947202682495],"type":"VEC4"},{"bufferView":80,"componentType":5126,"count":55,"max":[1.3333300352096558],"min":[0],"type":"SCALAR"},{"bufferView":81,"componentType":5126,"count":55,"max":[0.0625,0.5,0],"min":[-0.0625,0.5,0],"type":"VEC3"},{"bufferView":82,"componentType":5126,"count":56,"max":[1.3333300352096558],"min":[0],"type":"SCALAR"},{"bufferView":83,"componentType":5126,"count":56,"max":[0.04361938685178757,0.08715574443340302,0.0014864681288599968,0.9990482330322266],"min":[-0.04361938685178757,-0.08715574443340302,-0.0014658297877758741,0.9961947202682495],"type":"VEC4"},{"bufferView":84,"componentType":5126,"count":56,"max":[1.3333300352096558],"min":[0],"type":"SCALAR"},{"bufferView":85,"componentType":5126,"count":56,"max":[0.054433438926935196,0.08707278966903687,0.004108045250177383,0.9993289709091187],"min":[-0.0544334352016449,-0.08707278966903687,-0.0006710372981615365,0.9951912760734558],"type":"VEC4"},{"bufferView":86,"componentType":5126,"count":56,"max":[1.3333300352096558],"min":[0],"type":"SCALAR"},{"bufferView":87,"componentType":5126,"count":56,"max":[0.08548106998205185,0.017384804785251617,0.2798290252685547,0.9940563440322876],"min":[-0.08548106998205185,-0.017384804785251617,0.10886687785387039,0.9600498676300049],"type":"VEC4"},{"bufferView":88,"componentType":5126,"count":56,"max":[1.3333300352096558],"min":[0],"type":"SCALAR"},{"bufferView":89,"componentType":5126,"count":56,"max":[0.08548106998205185,0.017384804785251617,-0.10886687785387039,0.9940563440322876],"min":[-0.08548106998205185,-0.017384804785251617,-0.2798290252685547,0.9600498676300049],"type":"VEC4"}],"materials":[{"pbrMetallicRoughness":{"metallicFactor":0,"roughnessFactor":1,"baseColorTexture":{"index":0}},"alphaMode":"MASK","alphaCutoff":0.05,"doubleSided":true}],"textures":[{"sampler":0,"source":0,"name":"sturgeon"}],"samplers":[{"magFilter":9728,"minFilter":9728,"wrapS":33071,"wrapT":33071}],"images":[{"mimeType":"image/png","uri":"data:image/png;base64,"}],"meshes":[{"primitives":[{"mode":4,"attributes":{"POSITION":0,"NORMAL":1,"TEXCOORD_0":2},"indices":3,"material":0}]},{"primitives":[{"mode":4,"attributes":{"POSITION":4,"NORMAL":5,"TEXCOORD_0":6},"indices":7,"material":0}]},{"primitives":[{"mode":4,"attributes":{"POSITION":8,"NORMAL":9,"TEXCOORD_0":10},"indices":11,"material":0}]},{"primitives":[{"mode":4,"attributes":{"POSITION":12,"NORMAL":13,"TEXCOORD_0":14},"indices":15,"material":0}]},{"primitives":[{"mode":4,"attributes":{"POSITION":16,"NORMAL":17,"TEXCOORD_0":18},"indices":19,"material":0}]},{"primitives":[{"mode":4,"attributes":{"POSITION":20,"NORMAL":21,"TEXCOORD_0":22},"indices":23,"material":0}]},{"primitives":[{"mode":4,"attributes":{"POSITION":24,"NORMAL":25,"TEXCOORD_0":26},"indices":27,"material":0}]},{"primitives":[{"mode":4,"attributes":{"POSITION":28,"NORMAL":29,"TEXCOORD_0":30},"indices":31,"material":0}]},{"primitives":[{"mode":4,"attributes":{"POSITION":32,"NORMAL":33,"TEXCOORD_0":34},"indices":35,"material":0}]},{"primitives":[{"mode":4,"attributes":{"POSITION":36,"NORMAL":37,"TEXCOORD_0":38},"indices":39,"material":0}]},{"primitives":[{"mode":4,"attributes":{"POSITION":40,"NORMAL":41,"TEXCOORD_0":42},"indices":43,"material":0}]},{"primitives":[{"mode":4,"attributes":{"POSITION":44,"NORMAL":45,"TEXCOORD_0":46},"indices":47,"material":0}]},{"primitives":[{"mode":4,"attributes":{"POSITION":48,"NORMAL":49,"TEXCOORD_0":50},"indices":51,"material":0}]},{"primitives":[{"mode":4,"attributes":{"POSITION":52,"NORMAL":53,"TEXCOORD_0":54},"indices":55,"material":0}]},{"primitives":[{"mode":4,"attributes":{"POSITION":56,"NORMAL":57,"TEXCOORD_0":58},"indices":59,"material":0}]},{"primitives":[{"mode":4,"attributes":{"POSITION":60,"NORMAL":61,"TEXCOORD_0":62},"indices":63,"material":0}]},{"primitives":[{"mode":4,"attributes":{"POSITION":64,"NORMAL":65,"TEXCOORD_0":66},"indices":67,"material":0}]}],"animations":[{"name":"idle","samplers":[{"input":68,"output":69,"interpolation":"LINEAR"},{"input":70,"output":71,"interpolation":"LINEAR"},{"input":72,"output":73,"interpolation":"LINEAR"},{"input":74,"output":75,"interpolation":"LINEAR"},{"input":76,"output":77,"interpolation":"LINEAR"}],"channels":[{"sampler":0,"target":{"node":24,"path":"rotation"}},{"sampler":1,"target":{"node":24,"path":"translation"}},{"sampler":2,"target":{"node":11,"path":"rotation"}},{"sampler":3,"target":{"node":20,"path":"rotation"}},{"sampler":4,"target":{"node":22,"path":"rotation"}}]},{"name":"walk","samplers":[{"input":78,"output":79,"interpolation":"LINEAR"},{"input":80,"output":81,"interpolation":"LINEAR"},{"input":82,"output":83,"interpolation":"LINEAR"},{"input":84,"output":85,"interpolation":"LINEAR"},{"input":86,"output":87,"interpolation":"LINEAR"},{"input":88,"output":89,"interpolation":"LINEAR"}],"channels":[{"sampler":0,"target":{"node":24,"path":"rotation"}},{"sampler":1,"target":{"node":24,"path":"translation"}},{"sampler":2,"target":{"node":11,"path":"rotation"}},{"sampler":3,"target":{"node":23,"path":"rotation"}},{"sampler":4,"target":{"node":20,"path":"rotation"}},{"sampler":5,"target":{"node":22,"path":"rotation"}}]}]}