{"asset":{"version":"2.0","generator":"Blockbench 5.0.3 glTF exporter"},"scenes":[{"nodes":[16],"name":"blockbench_export"}],"scene":0,"nodes":[{"translation":[0,-0.25,-0.375],"name":"cube","mesh":0},{"translation":[0,-0.25,0.375],"name":"cube","mesh":1},{"translation":[0,0.3125,-0.375],"name":"cube","mesh":2},{"rotation":[0.19509032201612825,0,0,0.9807852804032304],"translation":[0,0.375,0.0625],"name":"cube","mesh":3},{"translation":[0,-0.6875,-0.375],"name":"cube","mesh":4},{"rotation":[-0.19509032201612825,0,0,0.9807852804032304],"translation":[0,-0.359375,0.0625],"name":"cube","mesh":5},{"translation":[0,-0.25,0.34375],"name":"cube","mesh":6},{"translation":[0,-0.25,0.34375],"name":"cube","mesh":7},{"translation":[0,0,0.21875],"name":"tail","children":[6,7]},{"translation":[0,-0.1875,-0.4375],"name":"cube","mesh":8},{"translation":[0,0,-0.75],"name":"head","children":[9]},{"translation":[-0.25,-0.28125,0.21875],"name":"cube","mesh":9},{"translation":[-0.25,-0.09375,-0.59375],"name":"left_fin","children":[11]},{"translation":[0.25,-0.28125,0.21875],"name":"cube","mesh":10},{"translation":[0.25,-0.09375,-0.59375],"name":"right_fin","children":[13]},{"translation":[0,0.25,0.375],"name":"body","children":[0,1,2,3,4,5,8,10,12,14]},{"translation":[0,0.0625,-0.0625],"name":"tuna","children":[15]}],"bufferViews":[{"buffer":0,"byteOffset":0,"byteLength":288,"target":34962,"byteStride":12},{"buffer":0,"byteOffset":288,"byteLength":288,"target":34962,"byteStride":12},{"buffer":0,"byteOffset":576,"byteLength":192,"target":34962,"byteStride":8},{"buffer":0,"byteOffset":768,"byteLength":72,"target":34963},{"buffer":0,"byteOffset":840,"byteLength":288,"target":34962,"byteStride":12},{"buffer":0,"byteOffset":1128,"byteLength":288,"target":34962,"byteStride":12},{"buffer":0,"byteOffset":1416,"byteLength":192,"target":34962,"byteStride":8},{"buffer":0,"byteOffset":1608,"byteLength":72,"target":34963},{"buffer":0,"byteOffset":1680,"byteLength":240,"target":34962,"byteStride":12},{"buffer":0,"byteOffset":1920,"byteLength":240,"target":34962,"byteStride":12},{"buffer":0,"byteOffset":2160,"byteLength":160,"target":34962,"byteStride":8},{"buffer":0,"byteOffset":2320,"byteLength":60,"target":34963},{"buffer":0,"byteOffset":2380,"byteLength":240,"target":34962,"byteStride":12},{"buffer":0,"byteOffset":2620,"byteLength":240,"target":34962,"byteStride":12},{"buffer":0,"byteOffset":2860,"byteLength":160,"target":34962,"byteStride":8},{"buffer":0,"byteOffset":3020,"byteLength":60,"target":34963},{"buffer":0,"byteOffset":3080,"byteLength":240,"target":34962,"byteStride":12},{"buffer":0,"byteOffset":3320,"byteLength":240,"target":34962,"byteStride":12},{"buffer":0,"byteOffset":3560,"byteLength":160,"target":34962,"byteStride":8},{"buffer":0,"byteOffset":3720,"byteLength":60,"target":34963},{"buffer":0,"byteOffset":3780,"byteLength":240,"target":34962,"byteStride":12},{"buffer":0,"byteOffset":4020,"byteLength":240,"target":34962,"byteStride":12},{"buffer":0,"byteOffset":4260,"byteLength":160,"target":34962,"byteStride":8},{"buffer":0,"byteOffset":4420,"byteLength":60,"target":34963},{"buffer":0,"byteOffset":4480,"byteLength":288,"target":34962,"byteStride":12},{"buffer":0,"byteOffset":4768,"byteLength":288,"target":34962,"byteStride":12},{"buffer":0,"byteOffset":5056,"byteLength":192,"target":34962,"byteStride":8},{"buffer":0,"byteOffset":5248,"byteLength":72,"target":34963},{"buffer":0,"byteOffset":5320,"byteLength":240,"target":34962,"byteStride":12},{"buffer":0,"byteOffset":5560,"byteLength":240,"target":34962,"byteStride":12},{"buffer":0,"byteOffset":5800,"byteLength":160,"target":34962,"byteStride":8},{"buffer":0,"byteOffset":5960,"byteLength":60,"target":34963},{"buffer":0,"byteOffset":6020,"byteLength":288,"target":34962,"byteStride":12},{"buffer":0,"byteOffset":6308,"byteLength":288,"target":34962,"byteStride":12},{"buffer":0,"byteOffset":6596,"byteLength":192,"target":34962,"byteStride":8},{"buffer":0,"byteOffset":6788,"byteLength":72,"target":34963},{"buffer":0,"byteOffset":6860,"byteLength":240,"target":34962,"byteStride":12},{"buffer":0,"byteOffset":7100,"byteLength":240,"target":34962,"byteStride":12},{"buffer":0,"byteOffset":7340,"byteLength":160,"target":34962,"byteStride":8},{"buffer":0,"byteOffset":7500,"byteLength":60,"target":34963},{"buffer":0,"byteOffset":7560,"byteLength":240,"target":34962,"byteStride":12},{"buffer":0,"byteOffset":7800,"byteLength":240,"target":34962,"byteStride":12},{"buffer":0,"byteOffset":8040,"byteLength":160,"target":34962,"byteStride":8},{"buffer":0,"byteOffset":8200,"byteLength":60,"target":34963},{"buffer":0,"byteOffset":8260,"byteLength":308},{"buffer":0,"byteOffset":8568,"byteLength":1232},{"buffer":0,"byteOffset":9800,"byteLength":308},{"buffer":0,"byteOffset":10108,"byteLength":924},{"buffer":0,"byteOffset":11032,"byteLength":308},{"buffer":0,"byteOffset":11340,"byteLength":1232},{"buffer":0,"byteOffset":12572,"byteLength":308},{"buffer":0,"byteOffset":12880,"byteLength":1232},{"buffer":0,"byteOffset":14112,"byteLength":308},{"buffer":0,"byteOffset":14420,"byteLength":1232},{"buffer":0,"byteOffset":15652,"byteLength":184},{"buffer":0,"byteOffset":15836,"byteLength":736},{"buffer":0,"byteOffset":16572,"byteLength":184},{"buffer":0,"byteOffset":16756,"byteLength":552},{"buffer":0,"byteOffset":17308,"byteLength":184},{"buffer":0,"byteOffset":17492,"byteLength":736},{"buffer":0,"byteOffset":18228,"byteLength":184},{"buffer":0,"byteOffset":18412,"byteLength":736},{"buffer":0,"byteOffset":19148,"byteLength":184},{"buffer":0,"byteOffset":19332,"byteLength":736},{"buffer":0,"byteOffset":20068,"byteLength":184},{"buffer":0,"byteOffset":20252,"byteLength":736}],"buffers":[{"byteLength":20988,"uri":"data:application/octet-stream;base64,"}],"accessors":[{"bufferView":0,"componentType":5126,"count":24,"max":[0.25,0.5625,0.375],"min":[-0.25,0,-0.4375],"type":"VEC3"},{"bufferView":1,"componentType":5126,"count":24,"max":[1,1,1],"min":[-1,-1,-1],"type":"VEC3"},{"bufferView":2,"componentType":5126,"count":24,"max":[0.609375,0.609375],"min":[0,0],"type":"VEC2"},{"bufferView":3,"componentType":5123,"count":36,"max":[23],"min":[0],"type":"SCALAR"},{"bufferView":4,"componentType":5126,"count":24,"max":[0.125,0.4375,-0.125],"min":[-0.125,0.0625,-0.375],"type":"VEC3"},{"bufferView":5,"componentType":5126,"count":24,"max":[1,1,1],"min":[-1,-1,-1],"type":"VEC3"},{"bufferView":6,"componentType":5126,"count":24,"max":[0.6875,0.71875],"min":[0.140625,0],"type":"VEC2"},{"bufferView":7,"componentType":5123,"count":36,"max":[23],"min":[0],"type":"SCALAR"},{"bufferView":8,"componentType":5126,"count":20,"max":[0,0.4375,0.3125],"min":[0,0,-0.4375],"type":"VEC3"},{"bufferView":9,"componentType":5126,"count":20,"max":[1,0,0],"min":[-1,0,0],"type":"VEC3"},{"bufferView":10,"componentType":5126,"count":20,"max":[0.6094250082969666,0.875],"min":[0.34375,0.34375],"type":"VEC2"},{"bufferView":11,"componentType":5123,"count":30,"max":[19],"min":[0],"type":"SCALAR"},{"bufferView":12,"componentType":5126,"count":20,"max":[0,0.25,0.125],"min":[0,-0.1875,-0.125],"type":"VEC3"},{"bufferView":13,"componentType":5126,"count":20,"max":[1,0,0],"min":[-1,0,0],"type":"VEC3"},{"bufferView":14,"componentType":5126,"count":20,"max":[0.6719250082969666,0.765625],"min":[0.46875,0.578125],"type":"VEC2"},{"bufferView":15,"componentType":5123,"count":30,"max":[19],"min":[0],"type":"SCALAR"},{"bufferView":16,"componentType":5126,"count":20,"max":[0,0.4375,0.0625],"min":[0,0.0625,-0.4375],"type":"VEC3"},{"bufferView":17,"componentType":5126,"count":20,"max":[1,0,0],"min":[-1,0,0],"type":"VEC3"},{"bufferView":18,"componentType":5126,"count":20,"max":[0.7031750082969666,0.828125],"min":[0,0],"type":"VEC2"},{"bufferView":19,"componentType":5123,"count":30,"max":[19],"min":[0],"type":"SCALAR"},{"bufferView":20,"componentType":5126,"count":20,"max":[0,0.25,0.125],"min":[0,-0.1875,-0.125],"type":"VEC3"},{"bufferView":21,"componentType":5126,"count":20,"max":[1,0,0],"min":[-1,0,0],"type":"VEC3"},{"bufferView":22,"componentType":5126,"count":20,"max":[0.6719250082969666,0.765625],"min":[0.46875,0.578125],"type":"VEC2"},{"bufferView":23,"componentType":5123,"count":30,"max":[19],"min":[0],"type":"SCALAR"},{"bufferView":24,"componentType":5126,"count":24,"max":[0.0625,0.375,0],"min":[-0.0625,0.125,-0.3125],"type":"VEC3"},{"bufferView":25,"componentType":5126,"count":24,"max":[1,1,1],"min":[-1,-1,-1],"type":"VEC3"},{"bufferView":26,"componentType":5126,"count":24,"max":[0.71875,0.71875],"min":[0.15625,0.109375],"type":"VEC2"},{"bufferView":27,"componentType":5123,"count":36,"max":[23],"min":[0],"type":"SCALAR"},{"bufferView":28,"componentType":5126,"count":20,"max":[0,0.75,0.25],"min":[0,-0.25,-0.1875],"type":"VEC3"},{"bufferView":29,"componentType":5126,"count":20,"max":[1,0,0],"min":[-1,0,0],"type":"VEC3"},{"bufferView":30,"componentType":5126,"count":20,"max":[0.5469250082969666,0.953125],"min":[0.21875,0.265625],"type":"VEC2"},{"bufferView":31,"componentType":5123,"count":30,"max":[19],"min":[0],"type":"SCALAR"},{"bufferView":32,"componentType":5126,"count":24,"max":[0.1875,0.375,0.375],"min":[-0.1875,0,0.125],"type":"VEC3"},{"bufferView":33,"componentType":5126,"count":24,"max":[1,1,1],"min":[-1,-1,-1],"type":"VEC3"},{"bufferView":34,"componentType":5126,"count":24,"max":[0.734375,0.734375],"min":[0,0.15625],"type":"VEC2"},{"bufferView":35,"componentType":5123,"count":36,"max":[23],"min":[0],"type":"SCALAR"},{"bufferView":36,"componentType":5126,"count":20,"max":[0.25,0.28125,0],"min":[-0.0625,0.28125,-0.4375],"type":"VEC3"},{"bufferView":37,"componentType":5126,"count":20,"max":[1,0,0],"min":[0,-1,0],"type":"VEC3"},{"bufferView":38,"componentType":5126,"count":20,"max":[0.765625,0.37505000829696655],"min":[0.546875,0.203125],"type":"VEC2"},{"bufferView":39,"componentType":5123,"count":30,"max":[19],"min":[0],"type":"SCALAR"},{"bufferView":40,"componentType":5126,"count":20,"max":[0.0625,0.28125,0],"min":[-0.25,0.28125,-0.4375],"type":"VEC3"},{"bufferView":41,"componentType":5126,"count":20,"max":[1,0,0],"min":[0,-1,0],"type":"VEC3"},{"bufferView":42,"componentType":5126,"count":20,"max":[0.765625,0.37505000829696655],"min":[0.546875,0.203125],"type":"VEC2"},{"bufferView":43,"componentType":5123,"count":30,"max":[19],"min":[0],"type":"SCALAR"},{"bufferView":44,"componentType":5126,"count":77,"max":[2],"min":[0],"type":"SCALAR"},{"bufferView":45,"componentType":5126,"count":77,"max":[0.017809173092246056,0,0,1],"min":[-0.017809173092246056,0,0,0.9998413920402527],"type":"VEC4"},{"bufferView":46,"componentType":5126,"count":77,"max":[2],"min":[0],"type":"SCALAR"},{"bufferView":47,"componentType":5126,"count":77,"max":[0,0.125,-0.0625],"min":[0,0.0625,-0.0625],"type":"VEC3"},{"bufferView":48,"componentType":5126,"count":77,"max":[2],"min":[0],"type":"SCALAR"},{"bufferView":49,"componentType":5126,"count":77,"max":[0,0.19509032368659973,0,1],"min":[0,-0.19509032368659973,0,0.9807852506637573],"type":"VEC4"},{"bufferView":50,"componentType":5126,"count":77,"max":[2],"min":[0],"type":"SCALAR"},{"bufferView":51,"componentType":5126,"count":77,"max":[0.194150909781456,0.02211712673306465,0.19509032368659973,1],"min":[-0.19426409900188446,-0.02126799337565899,0,0.9756917357444763],"type":"VEC4"},{"bufferView":52,"componentType":5126,"count":77,"max":[2],"min":[0],"type":"SCALAR"},{"bufferView":53,"componentType":5126,"count":77,"max":[0.194150909781456,0.02126799337565899,0,1],"min":[-0.19426409900188446,-0.02211712673306465,-0.19509032368659973,0.9756917357444763],"type":"VEC4"},{"bufferView":54,"componentType":5126,"count":46,"max":[1],"min":[0],"type":"SCALAR"},{"bufferView":55,"componentType":5126,"count":46,"max":[0.005899077281355858,0.1736481785774231,0.08715574443340302,0.9961947202682495],"min":[-0.005899077281355858,-0.1736481785774231,-0.08715574443340302,0.9848077297210693],"type":"VEC4"},{"bufferView":56,"componentType":5126,"count":46,"max":[1],"min":[0],"type":"SCALAR"},{"bufferView":57,"componentType":5126,"count":46,"max":[0.06377777457237244,0.0625,-0.0625],"min":[-0.06377777457237244,0.0625,-0.0625],"type":"VEC3"},{"bufferView":58,"componentType":5126,"count":46,"max":[1],"min":[0],"type":"SCALAR"},{"bufferView":59,"componentType":5126,"count":46,"max":[0,0.2853910028934479,0,1],"min":[0,-0.2853910028934479,0,0.9584111571311951],"type":"VEC4"},{"bufferView":60,"componentType":5126,"count":46,"max":[1],"min":[0],"type":"SCALAR"},{"bufferView":61,"componentType":5126,"count":46,"max":[0,0.08893293142318726,0,1],"min":[0,-0.08893293142318726,0,0.9960376024246216],"type":"VEC4"},{"bufferView":62,"componentType":5126,"count":46,"max":[1],"min":[0],"type":"SCALAR"},{"bufferView":63,"componentType":5126,"count":46,"max":[0.3826834261417389,0.029587343335151672,0.19509032368659973,0.9807852506637573],"min":[-0.3826834261417389,-0.029587343335151672,-0.19509032368659973,0.9238795042037964],"type":"VEC4"},{"bufferView":64,"componentType":5126,"count":46,"max":[1],"min":[0],"type":"SCALAR"},{"bufferView":65,"componentType":5126,"count":46,"max":[0.3826834261417389,0.029587343335151672,0.19509032368659973,0.9807852506637573],"min":[-0.3826834261417389,-0.029587343335151672,-0.19509032368659973,0.9238795042037964],"type":"VEC4"}],"materials":[{"pbrMetallicRoughness":{"metallicFactor":0,"roughnessFactor":1,"baseColorTexture":{"index":0}},"alphaMode":"MASK","alphaCutoff":0.05,"doubleSided":true}],"textures":[{"sampler":0,"source":0,"name":"tuna"}],"samplers":[{"magFilter":9728,"minFilter":9728,"wrapS":33071,"wrapT":33071}],"images":[{"mimeType":"image/png","uri":"data:image/png;base64,"}],"meshes":[{"primitives":[{"mode":4,"attributes":{"POSITION":0,"NORMAL":1,"TEXCOORD_0":2},"indices":3,"material":0}]},{"primitives":[{"mode":4,"attributes":{"POSITION":4,"NORMAL":5,"TEXCOORD_0":6},"indices":7,"material":0}]},{"primitives":[{"mode":4,"attributes":{"POSITION":8,"NORMAL":9,"TEXCOORD_0":10},"indices":11,"material":0}]},{"primitives":[{"mode":4,"attributes":{"POSITION":12,"NORMAL":13,"TEXCOORD_0":14},"indices":15,"material":0}]},{"primitives":[{"mode":4,"attributes":{"POSITION":16,"NORMAL":17,"TEXCOORD_0":18},"indices":19,"material":0}]},{"primitives":[{"mode":4,"attributes":{"POSITION":20,"NORMAL":21,"TEXCOORD_0":22},"indices":23,"material":0}]},{"primitives":[{"mode":4,"attributes":{"POSITION":24,"NORMAL":25,"TEXCOORD_0":26},"indices":27,"material":0}]},{"primitives":[{"mode":4,"attributes":{"POSITION":28,"NORMAL":29,"TEXCOORD_0":30},"indices":31,"material":0}]},{"primitives":[{"mode":4,"attributes":{"POSITION":32,"NORMAL":33,"TEXCOORD_0":34},"indices":35,"material":0}]},{"primitives":[{"mode":4,"attributes":{"POSITION":36,"NORMAL":37,"TEXCOORD_0":38},"indices":39,"material":0}]},{"primitives":[{"mode":4,"attributes":{"POSITION":40,"NORMAL":41,"TEXCOORD_0":42},"indices":43,"material":0}]}],"animations":[{"name":"idle","samplers":[{"input":44,"output":45,"interpolation":"LINEAR"},{"input":46,"output":47,"interpolation":"LINEAR"},{"input":48,"output":49,"interpolation":"LINEAR"},{"input":50,"output":51,"interpolation":"LINEAR"},{"input":52,"output":53,"interpolation":"LINEAR"}],"channels":[{"sampler":0,"target":{"node":16,"path":"rotation"}},{"sampler":1,"target":{"node":16,"path":"translation"}},{"sampler":2,"target":{"node":8,"path":"rotation"}},{"sampler":3,"target":{"node":12,"path":"rotation"}},{"sampler":4,"target":{"node":14,"path":"rotation"}}]},{"name":"walk","samplers":[{"input":54,"output":55,"interpolation":"LINEAR"},{"input":56,"output":57,"interpolation":"LINEAR"},{"input":58,"output":59,"interpolation":"LINEAR"},{"input":60,"output":61,"interpolation":"LINEAR"},{"input":62,"output":63,"interpolation":"LINEAR"},{"input":64,"output":65,"interpolation":"LINEAR"}],"channels":[{"sampler":0,"target":{"node":16,"path":"rotation"}},{"sampler":1,"target":{"node":16,"path":"translation"}},{"sampler":2,"target":{"node":8,"path":"rotation"}},{"sampler":3,"target":{"node":10,"path":"rotation"}},{"sampler":4,"target":{"node":12,"path":"rotation"}},{"sampler":5,"target":{"node":14,"path":"rotation"}}]}]}